STARTFONT 2.1
FONT -HEPogaemkkol-regular-R-regular--16-16-75-c-80-iso10646-1
SIZE 16 75 75
FONTBOUNDINGBOX 16 16 0 0
STARTPROPERTIES 10
FAMILY_NAME HEPogaemkkol
WEIGHT_NAME regular
FONT_VERSION 1.0
COPYRIGHT Copyright © 2023 Taeyun An (WindowsTiger)
FOUNDRY PIXEL FONT MAKER
FONT_ASCENT 16
FONT_DESCENT 0
CAP_HEIGHT 16
FONT_SIZE 16
X_HEIGHT 11
ENDPROPERTIES
CHARS 17944
STARTCHAR U+0020
ENCODING 32
SWIDTH 500 0
DWIDTH 8 0
BBX 8 0 0 0
BITMAP

ENDCHAR
STARTCHAR U+f801
ENCODING 63489
SWIDTH 500 0
DWIDTH 8 0
BBX 8 12 0 0
BITMAP
3E00
4100
5500
4100
4100
5D00
4900
4100
3E00
0000
0000
0000
ENDCHAR
STARTCHAR U+f802
ENCODING 63490
SWIDTH 500 0
DWIDTH 8 0
BBX 8 12 0 0
BITMAP
3E00
7F00
6B00
7F00
7F00
7700
6300
7F00
3E00
0000
0000
0000
ENDCHAR
STARTCHAR U+f803
ENCODING 63491
SWIDTH 500 0
DWIDTH 8 0
BBX 8 11 0 0
BITMAP
3600
7F00
7F00
7F00
7F00
3E00
1C00
0800
0000
0000
0000
ENDCHAR
STARTCHAR U+f804
ENCODING 63492
SWIDTH 500 0
DWIDTH 8 0
BBX 8 11 0 0
BITMAP
0800
1C00
3E00
7F00
3E00
1C00
0800
0000
0000
0000
0000
ENDCHAR
STARTCHAR U+f805
ENCODING 63493
SWIDTH 500 0
DWIDTH 8 0
BBX 8 12 0 0
BITMAP
0800
1C00
1C00
1C00
7F00
7F00
0800
0800
1C00
0000
0000
0000
ENDCHAR
STARTCHAR U+f806
ENCODING 63494
SWIDTH 500 0
DWIDTH 8 0
BBX 8 12 0 0
BITMAP
0800
1C00
3E00
7F00
7F00
7F00
2A00
0800
0800
1C00
0000
0000
ENDCHAR
STARTCHAR U+f807
ENCODING 63495
SWIDTH 500 0
DWIDTH 8 0
BBX 8 10 0 0
BITMAP
1C00
3E00
3E00
1C00
0000
0000
0000
0000
0000
0000
ENDCHAR
STARTCHAR U+f808
ENCODING 63496
SWIDTH 500 0
DWIDTH 8 0
BBX 8 16 0 0
BITMAP
7F00
7F00
7F00
7F00
7F00
7F00
7700
6300
6300
7700
7F00
7F00
7F00
7F00
7F00
7F00
ENDCHAR
STARTCHAR U+f809
ENCODING 63497
SWIDTH 500 0
DWIDTH 8 0
BBX 8 11 0 0
BITMAP
1C00
3600
3600
3600
1C00
0000
0000
0000
0000
0000
0000
ENDCHAR
STARTCHAR U+f80a
ENCODING 63498
SWIDTH 500 0
DWIDTH 8 0
BBX 8 16 0 0
BITMAP
7F00
7F00
7F00
7700
7700
6300
6300
4100
6300
6300
7700
7700
7F00
7F00
7F00
7F00
ENDCHAR
STARTCHAR U+f80b
ENCODING 63499
SWIDTH 500 0
DWIDTH 8 0
BBX 8 12 0 0
BITMAP
3F00
0700
0F00
1900
3C00
6600
6600
6600
3C00
0000
0000
0000
ENDCHAR
STARTCHAR U+f80c
ENCODING 63500
SWIDTH 500 0
DWIDTH 8 0
BBX 8 13 0 0
BITMAP
3C00
6600
6600
6600
3C00
1800
1800
7E00
1800
1800
0000
0000
0000
ENDCHAR
STARTCHAR U+f80d
ENCODING 63501
SWIDTH 500 0
DWIDTH 8 0
BBX 8 12 0 0
BITMAP
3000
3C00
3600
3300
3300
3600
7000
F000
E000
0000
0000
0000
ENDCHAR
STARTCHAR U+f80e
ENCODING 63502
SWIDTH 500 0
DWIDTH 8 0
BBX 8 12 0 0
BITMAP
3F00
3300
3F00
3300
3300
3300
3700
7600
6000
0000
0000
0000
ENDCHAR
STARTCHAR U+f80f
ENCODING 63503
SWIDTH 500 0
DWIDTH 8 0
BBX 8 13 0 0
BITMAP
0800
0800
6B00
3E00
3600
6300
3600
3E00
6B00
0800
0800
0000
0000
ENDCHAR
STARTCHAR U+f810
ENCODING 63504
SWIDTH 500 0
DWIDTH 8 0
BBX 8 12 0 0
BITMAP
8000
C000
E000
F800
FE00
F800
E000
C000
8000
0000
0000
0000
ENDCHAR
STARTCHAR U+f811
ENCODING 63505
SWIDTH 500 0
DWIDTH 8 0
BBX 8 12 0 0
BITMAP
0100
0300
0700
1F00
7F00
1F00
0700
0300
0100
0000
0000
0000
ENDCHAR
STARTCHAR U+f812
ENCODING 63506
SWIDTH 500 0
DWIDTH 8 0
BBX 8 12 0 0
BITMAP
1800
3C00
7E00
1800
1800
1800
7E00
3C00
1800
0000
0000
0000
ENDCHAR
STARTCHAR U+f813
ENCODING 63507
SWIDTH 500 0
DWIDTH 8 0
BBX 8 12 0 0
BITMAP
3300
3300
3300
3300
3300
3300
0000
3300
3300
0000
0000
0000
ENDCHAR
STARTCHAR U+f814
ENCODING 63508
SWIDTH 500 0
DWIDTH 8 0
BBX 8 12 0 0
BITMAP
3F00
7B00
7B00
7B00
3B00
1B00
1B00
1B00
1B00
0000
0000
0000
ENDCHAR
STARTCHAR U+f815
ENCODING 63509
SWIDTH 500 0
DWIDTH 8 0
BBX 8 13 0 0
BITMAP
3E00
7300
3800
3C00
7600
6700
3E00
1C00
0E00
6700
3E00
0000
0000
ENDCHAR
STARTCHAR U+f816
ENCODING 63510
SWIDTH 500 0
DWIDTH 8 0
BBX 8 6 0 0
BITMAP
7F00
7F00
7F00
0000
0000
0000
ENDCHAR
STARTCHAR U+f817
ENCODING 63511
SWIDTH 500 0
DWIDTH 8 0
BBX 8 12 0 0
BITMAP
1800
3C00
7E00
1800
1800
1800
7E00
3C00
1800
7E00
0000
0000
ENDCHAR
STARTCHAR U+f818
ENCODING 63512
SWIDTH 500 0
DWIDTH 8 0
BBX 8 12 0 0
BITMAP
1800
3C00
7E00
1800
1800
1800
1800
1800
1800
1800
1800
0000
ENDCHAR
STARTCHAR U+f819
ENCODING 63513
SWIDTH 500 0
DWIDTH 8 0
BBX 8 15 0 0
BITMAP
1800
1800
1800
1800
1800
1800
1800
1800
1800
7E00
3C00
1800
0000
0000
0000
ENDCHAR
STARTCHAR U+f81a
ENCODING 63514
SWIDTH 500 0
DWIDTH 8 0
BBX 8 11 0 0
BITMAP
1000
1800
1C00
FE00
1C00
1800
1000
0000
0000
0000
0000
ENDCHAR
STARTCHAR U+f81b
ENCODING 63515
SWIDTH 500 0
DWIDTH 8 0
BBX 8 11 0 0
BITMAP
0800
1800
3800
7F00
3800
1800
0800
0000
0000
0000
0000
ENDCHAR
STARTCHAR U+f81c
ENCODING 63516
SWIDTH 500 0
DWIDTH 8 0
BBX 8 12 0 0
BITMAP
4200
4200
4200
5A00
FF00
5A00
6600
4200
4200
0000
0000
0000
ENDCHAR
STARTCHAR U+f81d
ENCODING 63517
SWIDTH 500 0
DWIDTH 8 0
BBX 8 10 0 0
BITMAP
2400
6600
FF00
6600
2400
0000
0000
0000
0000
0000
ENDCHAR
STARTCHAR U+f81e
ENCODING 63518
SWIDTH 500 0
DWIDTH 8 0
BBX 8 8 0 0
BITMAP
1800
1800
3C00
3C00
7E00
7E00
FF00
DB00
ENDCHAR
STARTCHAR U+f81f
ENCODING 63519
SWIDTH 500 0
DWIDTH 8 0
BBX 8 16 0 0
BITMAP
DB00
FF00
7E00
7E00
3C00
3C00
1800
1800
0000
0000
0000
0000
0000
0000
0000
0000
ENDCHAR
STARTCHAR U+0020
ENCODING 32
SWIDTH 500 0
DWIDTH 8 0
BBX 8 0 0 0
BITMAP

ENDCHAR
STARTCHAR U+0021
ENCODING 33
SWIDTH 500 0
DWIDTH 8 0
BBX 8 14 0 0
BITMAP
1800
3C00
3C00
3C00
3C00
3C00
1800
1800
1800
0000
1800
1800
0000
0000
ENDCHAR
STARTCHAR U+0022
ENCODING 34
SWIDTH 500 0
DWIDTH 8 0
BBX 8 14 0 0
BITMAP
3600
3600
3600
3600
2400
0000
0000
0000
0000
0000
0000
0000
0000
0000
ENDCHAR
STARTCHAR U+0023
ENCODING 35
SWIDTH 500 0
DWIDTH 8 0
BBX 8 15 0 0
BITMAP
0600
3600
3700
3E00
7600
3600
3600
3700
3E00
7600
3600
3000
0000
0000
0000
ENDCHAR
STARTCHAR U+0024
ENCODING 36
SWIDTH 500 0
DWIDTH 8 0
BBX 8 15 0 0
BITMAP
0800
3E00
6B00
6B00
6800
6800
3E00
0B00
0B00
6B00
6B00
6B00
3E00
0800
0000
ENDCHAR
STARTCHAR U+0025
ENCODING 37
SWIDTH 500 0
DWIDTH 8 0
BBX 8 13 0 0
BITMAP
6000
6100
6300
0600
0C00
1800
3000
6600
4600
0600
0000
0000
0000
ENDCHAR
STARTCHAR U+0026
ENCODING 38
SWIDTH 500 0
DWIDTH 8 0
BBX 8 14 0 0
BITMAP
3800
6C00
6C00
6C00
6C00
3B00
6B00
6E00
6600
6400
6E00
3B00
0000
0000
ENDCHAR
STARTCHAR U+0027
ENCODING 39
SWIDTH 500 0
DWIDTH 8 0
BBX 8 13 0 0
BITMAP
0C00
0C00
0C00
1800
1000
0000
0000
0000
0000
0000
0000
0000
0000
ENDCHAR
STARTCHAR U+0028
ENCODING 40
SWIDTH 500 0
DWIDTH 8 0
BBX 8 14 0 0
BITMAP
1800
3000
6000
6000
6000
6000
6000
6000
6000
6000
3000
1800
0000
0000
ENDCHAR
STARTCHAR U+0029
ENCODING 41
SWIDTH 500 0
DWIDTH 8 0
BBX 8 14 0 0
BITMAP
1800
0C00
0600
0600
0600
0600
0600
0600
0600
0600
0C00
1800
0000
0000
ENDCHAR
STARTCHAR U+002a
ENCODING 42
SWIDTH 500 0
DWIDTH 8 0
BBX 8 12 0 0
BITMAP
1800
DB00
DB00
7E00
1800
7E00
DB00
DB00
1800
0000
0000
0000
ENDCHAR
STARTCHAR U+002b
ENCODING 43
SWIDTH 500 0
DWIDTH 8 0
BBX 8 11 0 0
BITMAP
1800
1800
1800
7E00
1800
1800
1800
0000
0000
0000
0000
ENDCHAR
STARTCHAR U+002c
ENCODING 44
SWIDTH 500 0
DWIDTH 8 0
BBX 8 6 0 0
BITMAP
1800
1800
1800
3000
0000
0000
ENDCHAR
STARTCHAR U+002d
ENCODING 45
SWIDTH 500 0
DWIDTH 8 0
BBX 8 8 0 0
BITMAP
7E00
0000
0000
0000
0000
0000
0000
0000
ENDCHAR
STARTCHAR U+002e
ENCODING 46
SWIDTH 500 0
DWIDTH 8 0
BBX 8 6 0 0
BITMAP
3000
3000
3000
0000
0000
0000
ENDCHAR
STARTCHAR U+002f
ENCODING 47
SWIDTH 500 0
DWIDTH 8 0
BBX 8 12 0 0
BITMAP
0200
0600
0C00
1800
3000
6000
4000
0000
0000
0000
0000
0000
ENDCHAR
STARTCHAR U+0030
ENCODING 48
SWIDTH 500 0
DWIDTH 8 0
BBX 8 14 0 0
BITMAP
1C00
2200
6300
6300
6700
6F00
7B00
7300
6300
6300
2200
1C00
0000
0000
ENDCHAR
STARTCHAR U+0031
ENCODING 49
SWIDTH 500 0
DWIDTH 8 0
BBX 8 14 0 0
BITMAP
0400
0C00
1C00
3C00
0C00
0C00
0C00
0C00
0C00
0C00
0C00
3F00
0000
0000
ENDCHAR
STARTCHAR U+0032
ENCODING 50
SWIDTH 500 0
DWIDTH 8 0
BBX 8 14 0 0
BITMAP
1C00
3600
6300
4300
0300
0300
0600
0C00
1800
3100
6300
7F00
0000
0000
ENDCHAR
STARTCHAR U+0033
ENCODING 51
SWIDTH 500 0
DWIDTH 8 0
BBX 8 14 0 0
BITMAP
7F00
0600
0C00
1800
3C00
6600
0300
0300
0300
4300
6600
3C00
0000
0000
ENDCHAR
STARTCHAR U+0034
ENCODING 52
SWIDTH 500 0
DWIDTH 8 0
BBX 8 14 0 0
BITMAP
0600
0E00
0E00
1E00
1600
3600
2600
6600
7F00
0600
0600
0600
0000
0000
ENDCHAR
STARTCHAR U+0035
ENCODING 53
SWIDTH 500 0
DWIDTH 8 0
BBX 8 14 0 0
BITMAP
7F00
6000
6000
6000
7C00
6600
4300
0300
0300
4300
6600
3C00
0000
0000
ENDCHAR
STARTCHAR U+0036
ENCODING 54
SWIDTH 500 0
DWIDTH 8 0
BBX 8 14 0 0
BITMAP
1C00
3600
6300
6000
7C00
7600
6300
6300
6300
6300
3600
1C00
0000
0000
ENDCHAR
STARTCHAR U+0037
ENCODING 55
SWIDTH 500 0
DWIDTH 8 0
BBX 8 14 0 0
BITMAP
7F00
0300
0300
0300
0600
0C00
1800
1800
1800
1800
1800
1800
0000
0000
ENDCHAR
STARTCHAR U+0038
ENCODING 56
SWIDTH 500 0
DWIDTH 8 0
BBX 8 14 0 0
BITMAP
1C00
3600
6300
6300
3600
1C00
3600
6300
6300
6300
3600
1C00
0000
0000
ENDCHAR
STARTCHAR U+0039
ENCODING 57
SWIDTH 500 0
DWIDTH 8 0
BBX 8 14 0 0
BITMAP
1C00
3600
6300
6300
6300
6300
3700
1F00
0300
6300
3600
1C00
0000
0000
ENDCHAR
STARTCHAR U+003a
ENCODING 58
SWIDTH 500 0
DWIDTH 8 0
BBX 8 13 0 0
BITMAP
3000
3000
3000
0000
0000
0000
0000
3000
3000
3000
0000
0000
0000
ENDCHAR
STARTCHAR U+003b
ENCODING 59
SWIDTH 500 0
DWIDTH 8 0
BBX 8 12 0 0
BITMAP
3000
3000
3000
0000
0000
3000
3000
3000
6000
0000
0000
0000
ENDCHAR
STARTCHAR U+003c
ENCODING 60
SWIDTH 500 0
DWIDTH 8 0
BBX 8 13 0 0
BITMAP
0200
0600
0C00
1800
3000
6000
3000
1800
0C00
0600
0200
0000
0000
ENDCHAR
STARTCHAR U+003d
ENCODING 61
SWIDTH 500 0
DWIDTH 8 0
BBX 8 9 0 0
BITMAP
7E00
0000
0000
7E00
0000
0000
0000
0000
0000
ENDCHAR
STARTCHAR U+003e
ENCODING 62
SWIDTH 500 0
DWIDTH 8 0
BBX 8 13 0 0
BITMAP
4000
6000
3000
1800
0C00
0600
0C00
1800
3000
6000
4000
0000
0000
ENDCHAR
STARTCHAR U+003f
ENCODING 63
SWIDTH 500 0
DWIDTH 8 0
BBX 8 14 0 0
BITMAP
3E00
6300
6300
6300
0600
0C00
0C00
0C00
0C00
0000
0C00
0C00
0000
0000
ENDCHAR
STARTCHAR U+0040
ENCODING 64
SWIDTH 500 0
DWIDTH 8 0
BBX 8 14 0 0
BITMAP
3E00
6300
4100
5D00
5500
5500
5500
5F00
4000
6000
3E00
0000
0000
0000
ENDCHAR
STARTCHAR U+0041
ENCODING 65
SWIDTH 500 0
DWIDTH 8 0
BBX 8 14 0 0
BITMAP
0800
1C00
3600
6300
6300
6300
6300
7F00
6300
6300
6300
6300
0000
0000
ENDCHAR
STARTCHAR U+0042
ENCODING 66
SWIDTH 500 0
DWIDTH 8 0
BBX 8 14 0 0
BITMAP
7E00
6700
6300
6300
6700
7E00
6700
6300
6300
6300
6700
7E00
0000
0000
ENDCHAR
STARTCHAR U+0043
ENCODING 67
SWIDTH 500 0
DWIDTH 8 0
BBX 8 14 0 0
BITMAP
1E00
3300
6100
6000
6000
6000
6000
6000
6000
6100
3300
1E00
0000
0000
ENDCHAR
STARTCHAR U+0044
ENCODING 68
SWIDTH 500 0
DWIDTH 8 0
BBX 8 14 0 0
BITMAP
7C00
6600
6300
6300
6300
6300
6300
6300
6300
6300
6600
7C00
0000
0000
ENDCHAR
STARTCHAR U+0045
ENCODING 69
SWIDTH 500 0
DWIDTH 8 0
BBX 8 14 0 0
BITMAP
7F00
6000
6000
6000
6000
7E00
6000
6000
6000
6000
6000
7F00
0000
0000
ENDCHAR
STARTCHAR U+0046
ENCODING 70
SWIDTH 500 0
DWIDTH 8 0
BBX 8 14 0 0
BITMAP
7F00
6000
6000
6000
6000
7E00
6000
6000
6000
6000
6000
6000
0000
0000
ENDCHAR
STARTCHAR U+0047
ENCODING 71
SWIDTH 500 0
DWIDTH 8 0
BBX 8 14 0 0
BITMAP
1E00
3300
6100
6000
6000
6000
6F00
6300
6300
6300
3300
1E00
0000
0000
ENDCHAR
STARTCHAR U+0048
ENCODING 72
SWIDTH 500 0
DWIDTH 8 0
BBX 8 14 0 0
BITMAP
6300
6300
6300
6300
6300
7F00
6300
6300
6300
6300
6300
6300
0000
0000
ENDCHAR
STARTCHAR U+0049
ENCODING 73
SWIDTH 500 0
DWIDTH 8 0
BBX 8 14 0 0
BITMAP
3C00
1800
1800
1800
1800
1800
1800
1800
1800
1800
1800
3C00
0000
0000
ENDCHAR
STARTCHAR U+004a
ENCODING 74
SWIDTH 500 0
DWIDTH 8 0
BBX 8 14 0 0
BITMAP
1F00
0600
0600
0600
0600
0600
0600
0600
0600
4600
6C00
3800
0000
0000
ENDCHAR
STARTCHAR U+004b
ENCODING 75
SWIDTH 500 0
DWIDTH 8 0
BBX 8 14 0 0
BITMAP
6100
6300
6600
6C00
7800
7000
7000
7800
6C00
6600
6300
6100
0000
0000
ENDCHAR
STARTCHAR U+004c
ENCODING 76
SWIDTH 500 0
DWIDTH 8 0
BBX 8 14 0 0
BITMAP
6000
6000
6000
6000
6000
6000
6000
6000
6000
6000
6000
7F00
0000
0000
ENDCHAR
STARTCHAR U+004d
ENCODING 77
SWIDTH 500 0
DWIDTH 8 0
BBX 8 14 0 0
BITMAP
4100
6300
7700
7F00
6B00
6300
6300
6300
6300
6300
6300
6300
0000
0000
ENDCHAR
STARTCHAR U+004e
ENCODING 78
SWIDTH 500 0
DWIDTH 8 0
BBX 8 14 0 0
BITMAP
6300
6300
7300
7300
7B00
6B00
6F00
6700
6700
6300
6300
6300
0000
0000
ENDCHAR
STARTCHAR U+004f
ENCODING 79
SWIDTH 500 0
DWIDTH 8 0
BBX 8 14 0 0
BITMAP
1C00
3600
6300
6300
6300
6300
6300
6300
6300
6300
3600
1C00
0000
0000
ENDCHAR
STARTCHAR U+0050
ENCODING 80
SWIDTH 500 0
DWIDTH 8 0
BBX 8 14 0 0
BITMAP
7C00
6600
6300
6300
6300
6300
6600
7C00
6000
6000
6000
6000
0000
0000
ENDCHAR
STARTCHAR U+0051
ENCODING 81
SWIDTH 500 0
DWIDTH 8 0
BBX 8 14 0 0
BITMAP
1C00
3600
6300
6300
6300
6300
7300
7B00
6B00
6F00
3E00
1C00
0700
0000
ENDCHAR
STARTCHAR U+0052
ENCODING 82
SWIDTH 500 0
DWIDTH 8 0
BBX 8 14 0 0
BITMAP
7C00
6600
6300
6300
6300
6300
6600
7C00
6600
6300
6300
6300
0000
0000
ENDCHAR
STARTCHAR U+0053
ENCODING 83
SWIDTH 500 0
DWIDTH 8 0
BBX 8 14 0 0
BITMAP
3E00
6300
6300
6000
6000
3E00
0300
0300
0300
6300
6300
3E00
0000
0000
ENDCHAR
STARTCHAR U+0054
ENCODING 84
SWIDTH 500 0
DWIDTH 8 0
BBX 8 14 0 0
BITMAP
7E00
1800
1800
1800
1800
1800
1800
1800
1800
1800
1800
1800
0000
0000
ENDCHAR
STARTCHAR U+0055
ENCODING 85
SWIDTH 500 0
DWIDTH 8 0
BBX 8 14 0 0
BITMAP
6300
6300
6300
6300
6300
6300
6300
6300
6300
6300
3E00
1C00
0000
0000
ENDCHAR
STARTCHAR U+0056
ENCODING 86
SWIDTH 500 0
DWIDTH 8 0
BBX 8 14 0 0
BITMAP
6300
6300
6300
6300
6300
6300
6300
3600
3600
1C00
1C00
0800
0000
0000
ENDCHAR
STARTCHAR U+0057
ENCODING 87
SWIDTH 500 0
DWIDTH 8 0
BBX 8 14 0 0
BITMAP
6300
6300
6300
6300
6300
6300
6300
6B00
7F00
7700
6300
4100
0000
0000
ENDCHAR
STARTCHAR U+0058
ENCODING 88
SWIDTH 500 0
DWIDTH 8 0
BBX 8 14 0 0
BITMAP
6300
6300
3600
3600
1C00
1C00
1C00
1C00
3600
3600
6300
6300
0000
0000
ENDCHAR
STARTCHAR U+0059
ENCODING 89
SWIDTH 500 0
DWIDTH 8 0
BBX 8 14 0 0
BITMAP
8100
C300
6600
3C00
1800
1800
1800
1800
1800
1800
1800
1800
0000
0000
ENDCHAR
STARTCHAR U+005a
ENCODING 90
SWIDTH 500 0
DWIDTH 8 0
BBX 8 14 0 0
BITMAP
7F00
0300
0600
0600
0C00
0C00
1800
1800
3000
3000
6000
7F00
0000
0000
ENDCHAR
STARTCHAR U+005b
ENCODING 91
SWIDTH 500 0
DWIDTH 8 0
BBX 8 14 0 0
BITMAP
3C00
3000
3000
3000
3000
3000
3000
3000
3000
3000
3000
3C00
0000
0000
ENDCHAR
STARTCHAR U+005c
ENCODING 92
SWIDTH 500 0
DWIDTH 8 0
BBX 8 12 0 0
BITMAP
4000
6000
3000
1800
0C00
0600
0200
0000
0000
0000
0000
0000
ENDCHAR
STARTCHAR U+005d
ENCODING 93
SWIDTH 500 0
DWIDTH 8 0
BBX 8 14 0 0
BITMAP
3C00
0C00
0C00
0C00
0C00
0C00
0C00
0C00
0C00
0C00
0C00
3C00
0000
0000
ENDCHAR
STARTCHAR U+005e
ENCODING 94
SWIDTH 500 0
DWIDTH 8 0
BBX 8 15 0 0
BITMAP
0800
1C00
3600
6300
4100
0000
0000
0000
0000
0000
0000
0000
0000
0000
0000
ENDCHAR
STARTCHAR U+005f
ENCODING 95
SWIDTH 500 0
DWIDTH 8 0
BBX 8 4 0 0
BITMAP
7E00
0000
0000
0000
ENDCHAR
STARTCHAR U+0060
ENCODING 96
SWIDTH 500 0
DWIDTH 8 0
BBX 8 14 0 0
BITMAP
7000
3800
1C00
0E00
0300
0000
0000
0000
0000
0000
0000
0000
0000
0000
ENDCHAR
STARTCHAR U+0061
ENCODING 97
SWIDTH 500 0
DWIDTH 8 0
BBX 8 11 0 0
BITMAP
3800
0400
0600
3E00
6600
6600
6600
6600
3E00
0000
0000
ENDCHAR
STARTCHAR U+0062
ENCODING 98
SWIDTH 500 0
DWIDTH 8 0
BBX 8 14 0 0
BITMAP
6000
6000
6000
6000
6000
6000
7C00
6600
6600
6600
6600
7C00
0000
0000
ENDCHAR
STARTCHAR U+0063
ENCODING 99
SWIDTH 500 0
DWIDTH 8 0
BBX 8 10 0 0
BITMAP
1E00
3300
6100
6000
6000
6100
3300
1E00
0000
0000
ENDCHAR
STARTCHAR U+0064
ENCODING 100
SWIDTH 500 0
DWIDTH 8 0
BBX 8 14 0 0
BITMAP
0600
0600
0600
0600
0600
3E00
6600
6600
6600
6600
6600
3E00
0000
0000
ENDCHAR
STARTCHAR U+0065
ENCODING 101
SWIDTH 500 0
DWIDTH 8 0
BBX 8 11 0 0
BITMAP
1C00
3600
6300
6300
7F00
6000
6300
3600
1C00
0000
0000
ENDCHAR
STARTCHAR U+0066
ENCODING 102
SWIDTH 500 0
DWIDTH 8 0
BBX 8 14 0 0
BITMAP
1C00
3600
3600
3000
3000
7E00
3000
3000
3000
3000
3000
3000
0000
0000
ENDCHAR
STARTCHAR U+0067
ENCODING 103
SWIDTH 500 0
DWIDTH 8 0
BBX 8 12 0 0
BITMAP
3E00
6600
6600
6600
6600
3E00
0600
7E00
6600
6600
3C00
0000
ENDCHAR
STARTCHAR U+0068
ENCODING 104
SWIDTH 500 0
DWIDTH 8 0
BBX 8 14 0 0
BITMAP
6000
6000
6000
6000
6000
7C00
6600
6600
6600
6600
6600
6600
0000
0000
ENDCHAR
STARTCHAR U+0069
ENCODING 105
SWIDTH 500 0
DWIDTH 8 0
BBX 8 14 0 0
BITMAP
1800
1800
0000
0000
1800
1800
1800
1800
1800
1800
1800
1800
0000
0000
ENDCHAR
STARTCHAR U+006a
ENCODING 106
SWIDTH 500 0
DWIDTH 8 0
BBX 8 14 0 0
BITMAP
0600
0600
0000
0000
0600
0600
0600
0600
0600
6600
6600
6600
3C00
0000
ENDCHAR
STARTCHAR U+006b
ENCODING 107
SWIDTH 500 0
DWIDTH 8 0
BBX 8 14 0 0
BITMAP
6000
6000
6000
6000
6200
6600
6C00
7800
7800
6C00
6600
6200
0000
0000
ENDCHAR
STARTCHAR U+006c
ENCODING 108
SWIDTH 500 0
DWIDTH 8 0
BBX 8 14 0 0
BITMAP
1800
1800
1800
1800
1800
1800
1800
1800
1800
1800
1E00
1C00
0000
0000
ENDCHAR
STARTCHAR U+006d
ENCODING 109
SWIDTH 500 0
DWIDTH 8 0
BBX 8 11 0 0
BITMAP
4100
6300
7700
7F00
7F00
6B00
6B00
6300
6300
0000
0000
ENDCHAR
STARTCHAR U+006e
ENCODING 110
SWIDTH 500 0
DWIDTH 8 0
BBX 8 11 0 0
BITMAP
4600
6600
6600
7600
7E00
6E00
6600
6600
6200
0000
0000
ENDCHAR
STARTCHAR U+006f
ENCODING 111
SWIDTH 500 0
DWIDTH 8 0
BBX 8 11 0 0
BITMAP
1C00
3600
6300
6300
6300
6300
6300
3600
1C00
0000
0000
ENDCHAR
STARTCHAR U+0070
ENCODING 112
SWIDTH 500 0
DWIDTH 8 0
BBX 8 12 0 0
BITMAP
7800
6400
6600
6600
6600
6400
7800
6000
6000
6000
6000
0000
ENDCHAR
STARTCHAR U+0071
ENCODING 113
SWIDTH 500 0
DWIDTH 8 0
BBX 8 12 0 0
BITMAP
1E00
2600
6600
6600
6600
2600
1E00
0600
0600
0600
0600
0000
ENDCHAR
STARTCHAR U+0072
ENCODING 114
SWIDTH 500 0
DWIDTH 8 0
BBX 8 11 0 0
BITMAP
6000
6E00
7B00
7100
6000
6000
6000
6000
6000
0000
0000
ENDCHAR
STARTCHAR U+0073
ENCODING 115
SWIDTH 500 0
DWIDTH 8 0
BBX 8 11 0 0
BITMAP
3E00
6300
6000
6000
3E00
0300
0300
6300
3E00
0000
0000
ENDCHAR
STARTCHAR U+0074
ENCODING 116
SWIDTH 500 0
DWIDTH 8 0
BBX 8 14 0 0
BITMAP
1800
1800
1800
7E00
1800
1800
1800
1800
1800
1900
1900
0E00
0000
0000
ENDCHAR
STARTCHAR U+0075
ENCODING 117
SWIDTH 500 0
DWIDTH 8 0
BBX 8 11 0 0
BITMAP
6300
6300
6300
6300
6300
6300
6300
2200
1C00
0000
0000
ENDCHAR
STARTCHAR U+0076
ENCODING 118
SWIDTH 500 0
DWIDTH 8 0
BBX 8 11 0 0
BITMAP
6300
6300
6300
6300
6300
6300
3600
1C00
0800
0000
0000
ENDCHAR
STARTCHAR U+0077
ENCODING 119
SWIDTH 500 0
DWIDTH 8 0
BBX 8 11 0 0
BITMAP
6300
6300
6300
6B00
7F00
7F00
7700
6300
4100
0000
0000
ENDCHAR
STARTCHAR U+0078
ENCODING 120
SWIDTH 500 0
DWIDTH 8 0
BBX 8 11 0 0
BITMAP
4100
6300
7700
3E00
1C00
3E00
7700
6300
4100
0000
0000
ENDCHAR
STARTCHAR U+0079
ENCODING 121
SWIDTH 500 0
DWIDTH 8 0
BBX 8 11 0 0
BITMAP
6300
6300
6300
3300
1E00
0600
0C00
1800
3000
6000
0000
ENDCHAR
STARTCHAR U+007a
ENCODING 122
SWIDTH 500 0
DWIDTH 8 0
BBX 8 11 0 0
BITMAP
7F00
0700
0E00
1C00
3800
7000
6000
7F00
0000
0000
0000
ENDCHAR
STARTCHAR U+007b
ENCODING 123
SWIDTH 500 0
DWIDTH 8 0
BBX 8 14 0 0
BITMAP
0E00
1800
1800
1800
1800
7000
1800
1800
1800
1800
0E00
0000
0000
0000
ENDCHAR
STARTCHAR U+007c
ENCODING 124
SWIDTH 500 0
DWIDTH 8 0
BBX 8 16 0 0
BITMAP
1800
1800
1800
1800
1800
1800
1800
1800
1800
1800
1800
1800
1800
1800
1800
1800
ENDCHAR
STARTCHAR U+007d
ENCODING 125
SWIDTH 500 0
DWIDTH 8 0
BBX 8 14 0 0
BITMAP
7000
1800
1800
1800
1800
0E00
1800
1800
1800
1800
7000
0000
0000
0000
ENDCHAR
STARTCHAR U+007e
ENCODING 126
SWIDTH 500 0
DWIDTH 8 0
BBX 8 13 0 0
BITMAP
7000
F100
9F00
0E00
0000
0000
0000
0000
0000
0000
0000
0000
0000
ENDCHAR
STARTCHAR U+f87f
ENCODING 63615
SWIDTH 500 0
DWIDTH 8 0
BBX 8 16 0 0
BITMAP
1800
1800
1800
3C00
2400
6600
4200
C300
8100
C300
4200
6600
2400
3C00
1800
1800
ENDCHAR
STARTCHAR U+f881
ENCODING 63617
SWIDTH 500 0
DWIDTH 8 0
BBX 8 12 0 0
BITMAP
3E00
4100
5500
4100
4100
5D00
4900
4100
3E00
0000
0000
0000
ENDCHAR
STARTCHAR U+f882
ENCODING 63618
SWIDTH 500 0
DWIDTH 8 0
BBX 8 12 0 0
BITMAP
3E00
7F00
6B00
7F00
7F00
6300
7700
7F00
3E00
0000
0000
0000
ENDCHAR
STARTCHAR U+f883
ENCODING 63619
SWIDTH 500 0
DWIDTH 8 0
BBX 8 11 0 0
BITMAP
3600
7F00
7F00
7F00
7F00
3E00
1C00
0800
0000
0000
0000
ENDCHAR
STARTCHAR U+f884
ENCODING 63620
SWIDTH 500 0
DWIDTH 8 0
BBX 8 11 0 0
BITMAP
0800
1C00
3E00
7F00
3E00
1C00
0800
0000
0000
0000
0000
ENDCHAR
STARTCHAR U+f885
ENCODING 63621
SWIDTH 500 0
DWIDTH 8 0
BBX 8 12 0 0
BITMAP
0800
1C00
1C00
1C00
7F00
7F00
0800
0800
1C00
0000
0000
0000
ENDCHAR
STARTCHAR U+f886
ENCODING 63622
SWIDTH 500 0
DWIDTH 8 0
BBX 8 12 0 0
BITMAP
0800
1C00
3E00
7F00
7F00
7F00
2A00
0800
0800
1C00
0000
0000
ENDCHAR
STARTCHAR U+f887
ENCODING 63623
SWIDTH 500 0
DWIDTH 8 0
BBX 8 10 0 0
BITMAP
1C00
3E00
3E00
1C00
0000
0000
0000
0000
0000
0000
ENDCHAR
STARTCHAR U+f888
ENCODING 63624
SWIDTH 500 0
DWIDTH 8 0
BBX 8 16 0 0
BITMAP
7F00
7F00
7F00
7F00
7F00
7F00
7700
6300
6300
7700
7F00
7F00
7F00
7F00
7F00
7F00
ENDCHAR
STARTCHAR U+f889
ENCODING 63625
SWIDTH 500 0
DWIDTH 8 0
BBX 8 11 0 0
BITMAP
1C00
3600
3600
3600
1C00
0000
0000
0000
0000
0000
0000
ENDCHAR
STARTCHAR U+f88a
ENCODING 63626
SWIDTH 500 0
DWIDTH 8 0
BBX 8 16 0 0
BITMAP
7F00
7F00
7F00
7700
7700
6300
6300
4100
6300
6300
7700
7700
7F00
7F00
7F00
7F00
ENDCHAR
STARTCHAR U+f88b
ENCODING 63627
SWIDTH 500 0
DWIDTH 8 0
BBX 8 12 0 0
BITMAP
3F00
0700
0F00
1900
3C00
6600
6600
6600
3C00
0000
0000
0000
ENDCHAR
STARTCHAR U+f88c
ENCODING 63628
SWIDTH 500 0
DWIDTH 8 0
BBX 8 13 0 0
BITMAP
3C00
6600
6600
6600
3C00
1800
1800
7E00
1800
1800
0000
0000
0000
ENDCHAR
STARTCHAR U+f88d
ENCODING 63629
SWIDTH 500 0
DWIDTH 8 0
BBX 8 12 0 0
BITMAP
3000
3C00
3600
3300
3300
3600
7000
F000
E000
0000
0000
0000
ENDCHAR
STARTCHAR U+f88e
ENCODING 63630
SWIDTH 500 0
DWIDTH 8 0
BBX 8 12 0 0
BITMAP
3F00
3300
3F00
3300
3300
3300
3700
7600
6000
0000
0000
0000
ENDCHAR
STARTCHAR U+f88f
ENCODING 63631
SWIDTH 500 0
DWIDTH 8 0
BBX 8 13 0 0
BITMAP
0800
0800
6B00
3E00
3600
6300
3600
3E00
6B00
0800
0800
0000
0000
ENDCHAR
STARTCHAR U+f890
ENCODING 63632
SWIDTH 500 0
DWIDTH 8 0
BBX 8 12 0 0
BITMAP
4000
6000
7000
7C00
7F00
7C00
7000
6000
4000
0000
0000
0000
ENDCHAR
STARTCHAR U+f891
ENCODING 63633
SWIDTH 500 0
DWIDTH 8 0
BBX 8 12 0 0
BITMAP
0100
0300
0700
1F00
7F00
1F00
0700
0300
0100
0000
0000
0000
ENDCHAR
STARTCHAR U+f892
ENCODING 63634
SWIDTH 500 0
DWIDTH 8 0
BBX 8 12 0 0
BITMAP
1800
3C00
7E00
1800
1800
1800
7E00
3C00
1800
0000
0000
0000
ENDCHAR
STARTCHAR U+f893
ENCODING 63635
SWIDTH 500 0
DWIDTH 8 0
BBX 8 12 0 0
BITMAP
3300
3300
3300
3300
3300
3300
0000
3300
3300
0000
0000
0000
ENDCHAR
STARTCHAR U+f894
ENCODING 63636
SWIDTH 500 0
DWIDTH 8 0
BBX 8 12 0 0
BITMAP
3F00
7B00
7B00
7B00
3B00
1B00
1B00
1B00
1B00
0000
0000
0000
ENDCHAR
STARTCHAR U+f895
ENCODING 63637
SWIDTH 500 0
DWIDTH 8 0
BBX 8 13 0 0
BITMAP
3E00
6300
3000
1C00
3600
6300
3600
1C00
0600
6300
3E00
0000
0000
ENDCHAR
STARTCHAR U+f896
ENCODING 63638
SWIDTH 500 0
DWIDTH 8 0
BBX 8 6 0 0
BITMAP
7F00
7F00
7F00
0000
0000
0000
ENDCHAR
STARTCHAR U+f897
ENCODING 63639
SWIDTH 500 0
DWIDTH 8 0
BBX 8 12 0 0
BITMAP
1800
3C00
7E00
1800
1800
1800
7E00
3C00
1800
7E00
0000
0000
ENDCHAR
STARTCHAR U+f898
ENCODING 63640
SWIDTH 500 0
DWIDTH 8 0
BBX 8 12 0 0
BITMAP
1800
3C00
7E00
1800
1800
1800
1800
1800
1800
0000
0000
0000
ENDCHAR
STARTCHAR U+f899
ENCODING 63641
SWIDTH 500 0
DWIDTH 8 0
BBX 8 12 0 0
BITMAP
1800
1800
1800
1800
1800
1800
7E00
3C00
1800
0000
0000
0000
ENDCHAR
STARTCHAR U+f89a
ENCODING 63642
SWIDTH 500 0
DWIDTH 8 0
BBX 8 11 0 0
BITMAP
1000
1800
1C00
FE00
1C00
1800
1000
0000
0000
0000
0000
ENDCHAR
STARTCHAR U+f89b
ENCODING 63643
SWIDTH 500 0
DWIDTH 8 0
BBX 8 11 0 0
BITMAP
0800
1800
3800
7F00
3800
1800
0800
0000
0000
0000
0000
ENDCHAR
STARTCHAR U+f89c
ENCODING 63644
SWIDTH 500 0
DWIDTH 8 0
BBX 8 6 0 0
BITMAP
0100
8300
C600
6C00
3800
1000
ENDCHAR
STARTCHAR U+f89d
ENCODING 63645
SWIDTH 500 0
DWIDTH 8 0
BBX 8 10 0 0
BITMAP
2400
6600
FF00
6600
2400
0000
0000
0000
0000
0000
ENDCHAR
STARTCHAR U+f89e
ENCODING 63646
SWIDTH 500 0
DWIDTH 8 0
BBX 8 8 0 0
BITMAP
0800
0800
1C00
1C00
3E00
3E00
7F00
0000
ENDCHAR
STARTCHAR U+f89f
ENCODING 63647
SWIDTH 500 0
DWIDTH 8 0
BBX 8 15 0 0
BITMAP
7F00
3E00
3E00
1C00
1C00
0800
0800
0000
0000
0000
0000
0000
0000
0000
0000
ENDCHAR
STARTCHAR U+f8a0
ENCODING 63648
SWIDTH 500 0
DWIDTH 8 0
BBX 8 14 0 0
BITMAP
1C00
1800
3000
0000
3C00
0600
0600
3E00
6600
6600
3E00
0000
0000
0000
ENDCHAR
STARTCHAR U+f8a1
ENCODING 63649
SWIDTH 500 0
DWIDTH 8 0
BBX 8 14 0 0
BITMAP
1C00
1800
3000
0000
0000
3800
1800
1800
1800
1800
3C00
0000
0000
0000
ENDCHAR
STARTCHAR U+f8a2
ENCODING 63650
SWIDTH 500 0
DWIDTH 8 0
BBX 8 14 0 0
BITMAP
1C00
1800
3000
0000
0000
3E00
6300
6300
6300
6300
3E00
0000
0000
0000
ENDCHAR
STARTCHAR U+f8a3
ENCODING 63651
SWIDTH 500 0
DWIDTH 8 0
BBX 8 14 0 0
BITMAP
0E00
0C00
1800
0000
6300
6300
6300
6300
6300
6300
3E00
0000
0000
0000
ENDCHAR
STARTCHAR U+f8a4
ENCODING 63652
SWIDTH 500 0
DWIDTH 8 0
BBX 8 13 0 0
BITMAP
3B00
6E00
0000
0000
3E00
3300
3300
3300
3300
3300
0000
0000
0000
ENDCHAR
STARTCHAR U+f8a5
ENCODING 63653
SWIDTH 500 0
DWIDTH 8 0
BBX 8 15 0 0
BITMAP
3B00
6E00
0000
6300
6300
7300
7B00
6F00
6700
6300
6300
6300
0000
0000
0000
ENDCHAR
STARTCHAR U+f8a6
ENCODING 63654
SWIDTH 500 0
DWIDTH 8 0
BBX 8 15 0 0
BITMAP
3C00
0600
3E00
6600
6600
3B00
0000
FF00
0000
0000
0000
0000
0000
0000
0000
ENDCHAR
STARTCHAR U+f8a7
ENCODING 63655
SWIDTH 500 0
DWIDTH 8 0
BBX 8 15 0 0
BITMAP
3C00
6600
6600
6600
3C00
0000
0000
FF00
0000
0000
0000
0000
0000
0000
0000
ENDCHAR
STARTCHAR U+f8a8
ENCODING 63656
SWIDTH 500 0
DWIDTH 8 0
BBX 8 12 0 0
BITMAP
1800
1800
0000
1800
1800
3000
6300
6300
3E00
0000
0000
0000
ENDCHAR
STARTCHAR U+f8a9
ENCODING 63657
SWIDTH 500 0
DWIDTH 8 0
BBX 8 16 0 0
BITMAP
1800
1800
1800
1800
1800
3000
6000
C000
8100
0300
0600
0C00
1800
1800
1800
1800
ENDCHAR
STARTCHAR U+f8aa
ENCODING 63658
SWIDTH 500 0
DWIDTH 8 0
BBX 8 16 0 0
BITMAP
1800
1800
1800
1800
1800
0C00
0600
0300
8100
C000
6000
3000
1800
1800
1800
1800
ENDCHAR
STARTCHAR U+f8ab
ENCODING 63659
SWIDTH 500 0
DWIDTH 8 0
BBX 8 15 0 0
BITMAP
2100
6200
2400
7800
1600
2900
4200
8400
0F00
0000
0000
0000
0000
0000
0000
ENDCHAR
STARTCHAR U+f8ac
ENCODING 63660
SWIDTH 500 0
DWIDTH 8 0
BBX 8 15 0 0
BITMAP
2100
6200
2400
7800
1200
2600
4A00
9F00
0200
0000
0000
0000
0000
0000
0000
ENDCHAR
STARTCHAR U+f8ad
ENCODING 63661
SWIDTH 500 0
DWIDTH 8 0
BBX 8 12 0 0
BITMAP
1800
1800
0000
1800
1800
3C00
3C00
3C00
1800
0000
0000
0000
ENDCHAR
STARTCHAR U+f8ae
ENCODING 63662
SWIDTH 500 0
DWIDTH 8 0
BBX 8 11 0 0
BITMAP
1B00
3600
6C00
D800
6C00
3600
1B00
0000
0000
0000
0000
ENDCHAR
STARTCHAR U+f8af
ENCODING 63663
SWIDTH 500 0
DWIDTH 8 0
BBX 8 11 0 0
BITMAP
D800
6C00
3600
1B00
3600
6C00
D800
0000
0000
0000
0000
ENDCHAR
STARTCHAR U+f8b0
ENCODING 63664
SWIDTH 500 0
DWIDTH 8 0
BBX 8 16 0 0
BITMAP
8800
2200
8800
2200
8800
2200
8800
2200
8800
2200
8800
2200
8800
2200
8800
2200
ENDCHAR
STARTCHAR U+f8b1
ENCODING 63665
SWIDTH 500 0
DWIDTH 8 0
BBX 8 16 0 0
BITMAP
AA00
5500
AA00
5500
AA00
5500
AA00
5500
AA00
5500
AA00
5500
AA00
5500
AA00
5500
ENDCHAR
STARTCHAR U+f8b2
ENCODING 63666
SWIDTH 500 0
DWIDTH 8 0
BBX 8 16 0 0
BITMAP
7700
DD00
7700
DD00
7700
DD00
7700
DD00
7700
DD00
7700
DD00
7700
DD00
7700
DD00
ENDCHAR
STARTCHAR U+f8b3
ENCODING 63667
SWIDTH 500 0
DWIDTH 8 0
BBX 8 16 0 0
BITMAP
1800
1800
1800
1800
1800
1800
1800
1800
1800
1800
1800
1800
1800
1800
1800
1800
ENDCHAR
STARTCHAR U+f8b4
ENCODING 63668
SWIDTH 500 0
DWIDTH 8 0
BBX 8 16 0 0
BITMAP
1800
1800
1800
1800
1800
1800
1800
1800
F800
1800
1800
1800
1800
1800
1800
1800
ENDCHAR
STARTCHAR U+f8b5
ENCODING 63669
SWIDTH 500 0
DWIDTH 8 0
BBX 8 16 0 0
BITMAP
1800
1800
1800
1800
1800
1800
F800
1800
1800
1800
F800
1800
1800
1800
1800
1800
ENDCHAR
STARTCHAR U+f8b6
ENCODING 63670
SWIDTH 500 0
DWIDTH 8 0
BBX 8 16 0 0
BITMAP
2400
2400
2400
2400
2400
2400
2400
2400
E400
2400
2400
2400
2400
2400
2400
2400
ENDCHAR
STARTCHAR U+f8b7
ENCODING 63671
SWIDTH 500 0
DWIDTH 8 0
BBX 8 8 0 0
BITMAP
FC00
2400
2400
2400
2400
2400
2400
2400
ENDCHAR
STARTCHAR U+f8b8
ENCODING 63672
SWIDTH 500 0
DWIDTH 8 0
BBX 8 10 0 0
BITMAP
F800
1800
1800
1800
F800
1800
1800
1800
1800
1800
ENDCHAR
STARTCHAR U+f8b9
ENCODING 63673
SWIDTH 500 0
DWIDTH 8 0
BBX 8 16 0 0
BITMAP
2400
2400
2400
2400
2400
2400
E400
0400
0400
0400
E400
2400
2400
2400
2400
2400
ENDCHAR
STARTCHAR U+f8ba
ENCODING 63674
SWIDTH 500 0
DWIDTH 8 0
BBX 8 16 0 0
BITMAP
2400
2400
2400
2400
2400
2400
2400
2400
2400
2400
2400
2400
2400
2400
2400
2400
ENDCHAR
STARTCHAR U+f8bb
ENCODING 63675
SWIDTH 500 0
DWIDTH 8 0
BBX 8 10 0 0
BITMAP
FC00
0400
0400
0400
E400
2400
2400
2400
2400
2400
ENDCHAR
STARTCHAR U+f8bc
ENCODING 63676
SWIDTH 500 0
DWIDTH 8 0
BBX 8 16 0 0
BITMAP
2400
2400
2400
2400
2400
2400
E400
0400
0400
0400
FC00
0000
0000
0000
0000
0000
ENDCHAR
STARTCHAR U+f8bd
ENCODING 63677
SWIDTH 500 0
DWIDTH 8 0
BBX 8 16 0 0
BITMAP
2400
2400
2400
2400
2400
2400
2400
2400
FC00
0000
0000
0000
0000
0000
0000
0000
ENDCHAR
STARTCHAR U+f8be
ENCODING 63678
SWIDTH 500 0
DWIDTH 8 0
BBX 8 16 0 0
BITMAP
1800
1800
1800
1800
1800
1800
F800
1800
1800
1800
F800
0000
0000
0000
0000
0000
ENDCHAR
STARTCHAR U+f8bf
ENCODING 63679
SWIDTH 500 0
DWIDTH 8 0
BBX 8 8 0 0
BITMAP
F800
1800
1800
1800
1800
1800
1800
1800
ENDCHAR
STARTCHAR U+f8c0
ENCODING 63680
SWIDTH 500 0
DWIDTH 8 0
BBX 8 16 0 0
BITMAP
1800
1800
1800
1800
1800
1800
1800
1800
1F00
0000
0000
0000
0000
0000
0000
0000
ENDCHAR
STARTCHAR U+f8c1
ENCODING 63681
SWIDTH 500 0
DWIDTH 8 0
BBX 8 16 0 0
BITMAP
1800
1800
1800
1800
1800
1800
1800
1800
FF00
0000
0000
0000
0000
0000
0000
0000
ENDCHAR
STARTCHAR U+f8c2
ENCODING 63682
SWIDTH 500 0
DWIDTH 8 0
BBX 8 8 0 0
BITMAP
FF00
1800
1800
1800
1800
1800
1800
1800
ENDCHAR
STARTCHAR U+f8c3
ENCODING 63683
SWIDTH 500 0
DWIDTH 8 0
BBX 8 16 0 0
BITMAP
1800
1800
1800
1800
1800
1800
1800
1800
1F00
1800
1800
1800
1800
1800
1800
1800
ENDCHAR
STARTCHAR U+f8c4
ENCODING 63684
SWIDTH 500 0
DWIDTH 8 0
BBX 8 8 0 0
BITMAP
FF00
0000
0000
0000
0000
0000
0000
0000
ENDCHAR
STARTCHAR U+f8c5
ENCODING 63685
SWIDTH 500 0
DWIDTH 8 0
BBX 8 16 0 0
BITMAP
1800
1800
1800
1800
1800
1800
1800
1800
FF00
1800
1800
1800
1800
1800
1800
1800
ENDCHAR
STARTCHAR U+f8c6
ENCODING 63686
SWIDTH 500 0
DWIDTH 8 0
BBX 8 16 0 0
BITMAP
1800
1800
1800
1800
1800
1800
1F00
1800
1800
1800
1F00
1800
1800
1800
1800
1800
ENDCHAR
STARTCHAR U+f8c7
ENCODING 63687
SWIDTH 500 0
DWIDTH 8 0
BBX 8 16 0 0
BITMAP
2400
2400
2400
2400
2400
2400
2400
2400
2700
2400
2400
2400
2400
2400
2400
2400
ENDCHAR
STARTCHAR U+f8c8
ENCODING 63688
SWIDTH 500 0
DWIDTH 8 0
BBX 8 16 0 0
BITMAP
2400
2400
2400
2400
2400
2400
2700
2000
2000
2000
3F00
0000
0000
0000
0000
0000
ENDCHAR
STARTCHAR U+f8c9
ENCODING 63689
SWIDTH 500 0
DWIDTH 8 0
BBX 8 10 0 0
BITMAP
3F00
2000
2000
2000
2700
2400
2400
2400
2400
2400
ENDCHAR
STARTCHAR U+f8ca
ENCODING 63690
SWIDTH 500 0
DWIDTH 8 0
BBX 8 16 0 0
BITMAP
2400
2400
2400
2400
2400
2400
E700
0000
0000
0000
FF00
0000
0000
0000
0000
0000
ENDCHAR
STARTCHAR U+f8cb
ENCODING 63691
SWIDTH 500 0
DWIDTH 8 0
BBX 8 10 0 0
BITMAP
FF00
0000
0000
0000
E700
2400
2400
2400
2400
2400
ENDCHAR
STARTCHAR U+f8cc
ENCODING 63692
SWIDTH 500 0
DWIDTH 8 0
BBX 8 16 0 0
BITMAP
2400
2400
2400
2400
2400
2400
2700
2000
2000
2000
2700
2400
2400
2400
2400
2400
ENDCHAR
STARTCHAR U+f8cd
ENCODING 63693
SWIDTH 500 0
DWIDTH 8 0
BBX 8 10 0 0
BITMAP
FF00
0000
0000
0000
FF00
0000
0000
0000
0000
0000
ENDCHAR
STARTCHAR U+f8ce
ENCODING 63694
SWIDTH 500 0
DWIDTH 8 0
BBX 8 16 0 0
BITMAP
2400
2400
2400
2400
2400
2400
E700
0000
0000
0000
E700
2400
2400
2400
2400
2400
ENDCHAR
STARTCHAR U+f8cf
ENCODING 63695
SWIDTH 500 0
DWIDTH 8 0
BBX 8 16 0 0
BITMAP
1800
1800
1800
1800
1800
1800
FF00
0000
0000
0000
FF00
0000
0000
0000
0000
0000
ENDCHAR
STARTCHAR U+f8d0
ENCODING 63696
SWIDTH 500 0
DWIDTH 8 0
BBX 8 16 0 0
BITMAP
2400
2400
2400
2400
2400
2400
2400
2400
FF00
0000
0000
0000
0000
0000
0000
0000
ENDCHAR
STARTCHAR U+f8d1
ENCODING 63697
SWIDTH 500 0
DWIDTH 8 0
BBX 8 10 0 0
BITMAP
FF00
0000
0000
0000
FF00
1800
1800
1800
1800
1800
ENDCHAR
STARTCHAR U+f8d2
ENCODING 63698
SWIDTH 500 0
DWIDTH 8 0
BBX 8 8 0 0
BITMAP
FF00
2400
2400
2400
2400
2400
2400
2400
ENDCHAR
STARTCHAR U+f8d3
ENCODING 63699
SWIDTH 500 0
DWIDTH 8 0
BBX 8 16 0 0
BITMAP
2400
2400
2400
2400
2400
2400
2400
2400
3F00
0000
0000
0000
0000
0000
0000
0000
ENDCHAR
STARTCHAR U+f8d4
ENCODING 63700
SWIDTH 500 0
DWIDTH 8 0
BBX 8 16 0 0
BITMAP
1800
1800
1800
1800
1800
1800
1F00
1800
1800
1800
1F00
0000
0000
0000
0000
0000
ENDCHAR
STARTCHAR U+f8d5
ENCODING 63701
SWIDTH 500 0
DWIDTH 8 0
BBX 8 10 0 0
BITMAP
1F00
1800
1800
1800
1F00
1800
1800
1800
1800
1800
ENDCHAR
STARTCHAR U+f8d6
ENCODING 63702
SWIDTH 500 0
DWIDTH 8 0
BBX 8 8 0 0
BITMAP
3F00
2400
2400
2400
2400
2400
2400
2400
ENDCHAR
STARTCHAR U+f8d7
ENCODING 63703
SWIDTH 500 0
DWIDTH 8 0
BBX 8 16 0 0
BITMAP
2400
2400
2400
2400
2400
2400
2400
2400
FF00
2400
2400
2400
2400
2400
2400
2400
ENDCHAR
STARTCHAR U+f8d8
ENCODING 63704
SWIDTH 500 0
DWIDTH 8 0
BBX 8 16 0 0
BITMAP
1800
1800
1800
1800
1800
1800
FF00
1800
1800
1800
FF00
1800
1800
1800
1800
1800
ENDCHAR
STARTCHAR U+f8d9
ENCODING 63705
SWIDTH 500 0
DWIDTH 8 0
BBX 8 16 0 0
BITMAP
1800
1800
1800
1800
1800
1800
1800
1800
F800
0000
0000
0000
0000
0000
0000
0000
ENDCHAR
STARTCHAR U+f8da
ENCODING 63706
SWIDTH 500 0
DWIDTH 8 0
BBX 8 8 0 0
BITMAP
1F00
1800
1800
1800
1800
1800
1800
1800
ENDCHAR
STARTCHAR U+f8db
ENCODING 63707
SWIDTH 500 0
DWIDTH 8 0
BBX 8 16 0 0
BITMAP
FF00
FF00
FF00
FF00
FF00
FF00
FF00
FF00
FF00
FF00
FF00
FF00
FF00
FF00
FF00
FF00
ENDCHAR
STARTCHAR U+f8dc
ENCODING 63708
SWIDTH 500 0
DWIDTH 8 0
BBX 8 5 0 0
BITMAP
FF00
FF00
FF00
FF00
FF00
ENDCHAR
STARTCHAR U+f8dd
ENCODING 63709
SWIDTH 500 0
DWIDTH 8 0
BBX 8 16 0 0
BITMAP
F000
F000
F000
F000
F000
F000
F000
F000
F000
F000
F000
F000
F000
F000
F000
F000
ENDCHAR
STARTCHAR U+f8de
ENCODING 63710
SWIDTH 500 0
DWIDTH 8 0
BBX 8 16 0 0
BITMAP
0F00
0F00
0F00
0F00
0F00
0F00
0F00
0F00
0F00
0F00
0F00
0F00
0F00
0F00
0F00
0F00
ENDCHAR
STARTCHAR U+f8df
ENCODING 63711
SWIDTH 500 0
DWIDTH 8 0
BBX 8 16 0 0
BITMAP
FF00
FF00
FF00
FF00
FF00
0000
0000
0000
0000
0000
0000
0000
0000
0000
0000
0000
ENDCHAR
STARTCHAR U+f8e0
ENCODING 63712
SWIDTH 500 0
DWIDTH 8 0
BBX 8 11 0 0
BITMAP
0300
3600
7E00
6600
6600
6600
6F00
3B00
0000
0000
0000
ENDCHAR
STARTCHAR U+f8e1
ENCODING 63713
SWIDTH 500 0
DWIDTH 8 0
BBX 8 12 0 0
BITMAP
1E00
3300
3300
3200
3E00
3300
7300
6300
7E00
6000
6000
0000
ENDCHAR
STARTCHAR U+f8e2
ENCODING 63714
SWIDTH 500 0
DWIDTH 8 0
BBX 8 10 0 0
BITMAP
7700
5D00
1800
1800
1800
3000
3000
3000
0000
0000
ENDCHAR
STARTCHAR U+f8e3
ENCODING 63715
SWIDTH 500 0
DWIDTH 8 0
BBX 8 9 0 0
BITMAP
7F00
3600
6C00
6C00
6C00
6600
0000
0000
0000
ENDCHAR
STARTCHAR U+f8e4
ENCODING 63716
SWIDTH 500 0
DWIDTH 8 0
BBX 8 12 0 0
BITMAP
FF00
6300
3000
1800
0C00
1800
3000
6300
FF00
0000
0000
0000
ENDCHAR
STARTCHAR U+f8e5
ENCODING 63717
SWIDTH 500 0
DWIDTH 8 0
BBX 8 12 0 0
BITMAP
0F00
3B00
6C00
6600
6600
6600
6600
3C00
0000
0000
0000
0000
ENDCHAR
STARTCHAR U+f8e6
ENCODING 63718
SWIDTH 500 0
DWIDTH 8 0
BBX 8 11 0 0
BITMAP
3300
3300
3300
3300
3300
3E00
3000
E000
6000
0000
0000
ENDCHAR
STARTCHAR U+f8e7
ENCODING 63719
SWIDTH 500 0
DWIDTH 8 0
BBX 8 12 0 0
BITMAP
0300
7F00
6600
0C00
1800
3000
3000
1B00
0E00
0000
0000
0000
ENDCHAR
STARTCHAR U+f8e8
ENCODING 63720
SWIDTH 500 0
DWIDTH 8 0
BBX 8 13 0 0
BITMAP
7E00
1800
1800
3C00
6600
6600
6600
3C00
1800
1800
7E00
0000
0000
ENDCHAR
STARTCHAR U+f8e9
ENCODING 63721
SWIDTH 500 0
DWIDTH 8 0
BBX 8 11 0 0
BITMAP
7E00
C300
C300
FF00
C300
C300
7E00
0000
0000
0000
0000
ENDCHAR
STARTCHAR U+f8ea
ENCODING 63722
SWIDTH 500 0
DWIDTH 8 0
BBX 8 11 0 0
BITMAP
7E00
E700
C300
C300
C300
6700
6600
E700
0000
0000
0000
ENDCHAR
STARTCHAR U+f8eb
ENCODING 63723
SWIDTH 500 0
DWIDTH 8 0
BBX 8 12 0 0
BITMAP
3E00
6700
3100
3C00
6600
6600
6600
3C00
0000
0000
0000
0000
ENDCHAR
STARTCHAR U+f8ec
ENCODING 63724
SWIDTH 500 0
DWIDTH 8 0
BBX 8 9 0 0
BITMAP
7E00
DB00
DB00
7E00
0000
0000
0000
0000
0000
ENDCHAR
STARTCHAR U+f8ed
ENCODING 63725
SWIDTH 500 0
DWIDTH 8 0
BBX 8 12 0 0
BITMAP
0300
0300
3E00
6700
6F00
7B00
7300
3E00
6000
6000
0000
0000
ENDCHAR
STARTCHAR U+f8ee
ENCODING 63726
SWIDTH 500 0
DWIDTH 8 0
BBX 8 12 0 0
BITMAP
1F00
3000
6000
6000
7F00
6000
6000
3000
1F00
0000
0000
0000
ENDCHAR
STARTCHAR U+f8ef
ENCODING 63727
SWIDTH 500 0
DWIDTH 8 0
BBX 8 10 0 0
BITMAP
3E00
7700
6300
6300
6300
6300
6300
0000
0000
0000
ENDCHAR
STARTCHAR U+f8f0
ENCODING 63728
SWIDTH 500 0
DWIDTH 8 0
BBX 8 12 0 0
BITMAP
FF00
0000
0000
0000
FF00
0000
0000
0000
FF00
0000
0000
0000
ENDCHAR
STARTCHAR U+f8f1
ENCODING 63729
SWIDTH 500 0
DWIDTH 8 0
BBX 8 12 0 0
BITMAP
1800
1800
1800
7E00
1800
1800
1800
0000
7E00
0000
0000
0000
ENDCHAR
STARTCHAR U+f8f2
ENCODING 63730
SWIDTH 500 0
DWIDTH 8 0
BBX 8 12 0 0
BITMAP
3000
1800
0C00
0600
0C00
1800
3000
0000
7E00
0000
0000
0000
ENDCHAR
STARTCHAR U+f8f3
ENCODING 63731
SWIDTH 500 0
DWIDTH 8 0
BBX 8 12 0 0
BITMAP
0C00
1800
3000
6000
3000
1800
0C00
0000
7E00
0000
0000
0000
ENDCHAR
STARTCHAR U+f8f4
ENCODING 63732
SWIDTH 500 0
DWIDTH 8 0
BBX 8 10 0 0
BITMAP
0E00
1B00
1B00
1800
1800
1800
1800
1800
1800
1800
ENDCHAR
STARTCHAR U+f8f5
ENCODING 63733
SWIDTH 500 0
DWIDTH 8 0
BBX 8 16 0 0
BITMAP
1800
1800
1800
1800
1800
1800
1800
1800
D800
7000
0000
0000
0000
0000
0000
0000
ENDCHAR
STARTCHAR U+f8f6
ENCODING 63734
SWIDTH 500 0
DWIDTH 8 0
BBX 8 12 0 0
BITMAP
1800
3C00
1800
0000
FF00
0000
1800
3C00
1800
0000
0000
0000
ENDCHAR
STARTCHAR U+f8f7
ENCODING 63735
SWIDTH 500 0
DWIDTH 8 0
BBX 8 12 0 0
BITMAP
7000
DB00
0E00
7000
DB00
0E00
0000
0000
0000
0000
0000
0000
ENDCHAR
STARTCHAR U+f8f8
ENCODING 63736
SWIDTH 500 0
DWIDTH 8 0
BBX 8 13 0 0
BITMAP
3C00
6600
6600
3C00
0000
0000
0000
0000
0000
0000
0000
0000
0000
ENDCHAR
STARTCHAR U+f8f9
ENCODING 63737
SWIDTH 500 0
DWIDTH 8 0
BBX 8 9 0 0
BITMAP
1C00
3E00
3E00
1C00
0000
0000
0000
0000
0000
ENDCHAR
STARTCHAR U+f8fa
ENCODING 63738
SWIDTH 500 0
DWIDTH 8 0
BBX 8 7 0 0
BITMAP
1800
3C00
1800
0000
0000
0000
0000
ENDCHAR
STARTCHAR U+f8fb
ENCODING 63739
SWIDTH 500 0
DWIDTH 8 0
BBX 8 16 0 0
BITMAP
1800
1800
1800
1800
1800
1800
1800
9800
D800
F800
3800
1800
0800
0000
0000
0000
ENDCHAR
STARTCHAR U+f8fc
ENCODING 63740
SWIDTH 500 0
DWIDTH 8 0
BBX 8 14 0 0
BITMAP
D800
6C00
6C00
6C00
6C00
0000
0000
0000
0000
0000
0000
0000
0000
0000
ENDCHAR
STARTCHAR U+f8fd
ENCODING 63741
SWIDTH 500 0
DWIDTH 8 0
BBX 8 14 0 0
BITMAP
7000
D800
1800
3000
6800
F800
0000
0000
0000
0000
0000
0000
0000
0000
ENDCHAR
STARTCHAR U+f8fe
ENCODING 63742
SWIDTH 500 0
DWIDTH 8 0
BBX 8 10 0 0
BITMAP
2A00
1400
2A00
1400
2A00
1400
2A00
0000
0000
0000
ENDCHAR
STARTCHAR U+f8ff
ENCODING 63743
SWIDTH 500 0
DWIDTH 8 0
BBX 8 16 0 0
BITMAP
FF00
8100
8100
8100
8100
8100
8100
8100
8100
8100
8100
8100
8100
8100
8100
FF00
ENDCHAR
STARTCHAR U+0000
ENCODING 0
SWIDTH 500 0
DWIDTH 16 0
BBX 16 16 0 0
BITMAP
FFFF
C003
A005
9009
8811
8421
8241
8181
8181
8241
8421
8811
9009
A005
C003
FFFF
ENDCHAR
STARTCHAR U+263a
ENCODING 9786
SWIDTH 500 0
DWIDTH 16 0
BBX 16 14 0 0
BITMAP
07E0
0810
1008
2664
2664
2004
2004
2424
23C4
1008
0810
07E0
0000
0000
ENDCHAR
STARTCHAR U+1f641
ENCODING 128577
SWIDTH 500 0
DWIDTH 8 0
BBX 8 12 0 0
BITMAP
3E00
7F00
6B00
7F00
7F00
7700
6300
7F00
3E00
0000
0000
0000
ENDCHAR
STARTCHAR U+2665
ENCODING 9829
SWIDTH 500 0
DWIDTH 16 0
BBX 16 14 0 0
BITMAP
1C70
3EF8
7FFC
7FFC
7FFC
7FFC
3FF8
1FF0
0FE0
07C0
0380
0100
0000
0000
ENDCHAR
STARTCHAR U+2666
ENCODING 9830
SWIDTH 500 0
DWIDTH 16 0
BBX 16 14 0 0
BITMAP
0100
0380
07C0
0FE0
1FF0
3FF8
1FF0
0FE0
07C0
0380
0100
0000
0000
0000
ENDCHAR
STARTCHAR U+2663
ENCODING 9827
SWIDTH 500 0
DWIDTH 16 0
BBX 16 14 0 0
BITMAP
03C0
07E0
07E0
03C0
3DBC
7FFE
7FFE
7E7E
3DBC
0180
0180
03C0
0000
0000
ENDCHAR
STARTCHAR U+2660
ENCODING 9824
SWIDTH 500 0
DWIDTH 16 0
BBX 16 14 0 0
BITMAP
0100
0380
07C0
0FE0
1FF0
3FF8
7FFC
7FFC
3D78
0100
0100
0380
0000
0000
ENDCHAR
STARTCHAR U+2022
ENCODING 8226
SWIDTH 500 0
DWIDTH 16 0
BBX 16 10 0 0
BITMAP
0780
0FC0
0FC0
0780
0000
0000
0000
0000
0000
0000
ENDCHAR
STARTCHAR U+25d8
ENCODING 9688
SWIDTH 500 0
DWIDTH 16 0
BBX 16 14 0 0
BITMAP
FFFC
FFFC
FFFC
FFFC
F03C
E01C
E01C
F03C
FFFC
FFFC
FFFC
FFFC
0000
0000
ENDCHAR
STARTCHAR U+25cb
ENCODING 9675
SWIDTH 500 0
DWIDTH 16 0
BBX 16 16 0 0
BITMAP
07C0
1830
2008
4404
5004
9002
A002
8002
A002
8002
4004
4004
2008
1830
07C0
0000
ENDCHAR
STARTCHAR U+25d9
ENCODING 9689
SWIDTH 500 0
DWIDTH 16 0
BBX 16 15 0 0
BITMAP
FFFE
FFFE
F01E
C7C6
9FF2
9FF2
9FF2
9FF2
9FF2
C7C6
F01E
FFFE
FFFE
0000
0000
ENDCHAR
STARTCHAR U+2642
ENCODING 9794
SWIDTH 500 0
DWIDTH 16 0
BBX 16 15 0 0
BITMAP
0180
03C0
07E0
0DB0
1998
0180
07E0
0C30
1818
1818
0C30
07E0
0000
0000
0000
ENDCHAR
STARTCHAR U+2640
ENCODING 9792
SWIDTH 500 0
DWIDTH 16 0
BBX 16 14 0 0
BITMAP
07E0
0C30
1818
1818
0C30
07E0
0180
0180
1FF8
0180
0180
0000
0000
0000
ENDCHAR
STARTCHAR U+266a
ENCODING 9834
SWIDTH 500 0
DWIDTH 16 0
BBX 16 14 0 0
BITMAP
0080
00C0
00A0
00D0
00B0
0090
0090
01A0
0780
0F00
0C00
0000
0000
0000
ENDCHAR
STARTCHAR U+266c
ENCODING 9836
SWIDTH 500 0
DWIDTH 16 0
BBX 16 14 0 0
BITMAP
07FC
07FC
0404
07FC
0404
0404
0404
0C0C
3C3C
7878
6060
0000
0000
0000
ENDCHAR
STARTCHAR U+263c
ENCODING 9788
SWIDTH 500 0
DWIDTH 16 0
BBX 16 14 0 0
BITMAP
0100
2108
17D0
0820
1010
701C
1010
0820
17D0
2108
0100
0000
0000
0000
ENDCHAR
STARTCHAR U+25ba
ENCODING 9658
SWIDTH 500 0
DWIDTH 16 0
BBX 16 14 0 0
BITMAP
6000
7800
7E00
7F80
7FE0
7FF8
7FE0
7F80
7E00
7800
6000
0000
0000
0000
ENDCHAR
STARTCHAR U+25c4
ENCODING 9668
SWIDTH 500 0
DWIDTH 16 0
BBX 16 14 0 0
BITMAP
0018
0078
01F8
07F8
1FF8
7FF8
1FF8
07F8
01F8
0078
0018
0000
0000
0000
ENDCHAR
STARTCHAR U+2195
ENCODING 8597
SWIDTH 500 0
DWIDTH 16 0
BBX 16 14 0 0
BITMAP
0080
01C0
03E0
0080
0080
0080
0080
0080
03E0
01C0
0080
0000
0000
0000
ENDCHAR
STARTCHAR U+203c
ENCODING 8252
SWIDTH 500 0
DWIDTH 16 0
BBX 16 14 0 0
BITMAP
0E70
0E70
0E70
0E70
0C60
0C60
0C60
0C60
0000
1CE0
1CE0
0000
0000
0000
ENDCHAR
STARTCHAR U+00b6
ENCODING 182
SWIDTH 500 0
DWIDTH 16 0
BBX 16 14 0 0
BITMAP
0FEC
386C
606C
606C
386C
0FEC
006C
006C
006C
006C
006C
0000
0000
0000
ENDCHAR
STARTCHAR U+00a7
ENCODING 167
SWIDTH 500 0
DWIDTH 16 0
BBX 16 14 0 0
BITMAP
03E0
0630
0630
0300
01E0
0630
0630
03C0
0060
0630
0630
03E0
0000
0000
ENDCHAR
STARTCHAR U+25ac
ENCODING 9644
SWIDTH 500 0
DWIDTH 16 0
BBX 16 8 0 0
BITMAP
7FF8
7FF8
7FF8
0000
0000
0000
0000
0000
ENDCHAR
STARTCHAR U+21a8
ENCODING 8616
SWIDTH 500 0
DWIDTH 16 0
BBX 16 15 0 0
BITMAP
0300
0780
0FC0
0300
0300
0300
0300
0300
0FC0
0780
0300
FFFC
0000
0000
0000
ENDCHAR
STARTCHAR U+2b06
ENCODING 11014
SWIDTH 500 0
DWIDTH 8 0
BBX 8 12 0 0
BITMAP
1800
3C00
7E00
1800
1800
1800
1800
1800
1800
1800
1800
0000
ENDCHAR
STARTCHAR U+2b07
ENCODING 11015
SWIDTH 500 0
DWIDTH 8 0
BBX 8 15 0 0
BITMAP
1800
1800
1800
1800
1800
1800
1800
1800
1800
7E00
3C00
1800
0000
0000
0000
ENDCHAR
STARTCHAR U+2192
ENCODING 8594
SWIDTH 500 0
DWIDTH 16 0
BBX 16 11 0 0
BITMAP
0060
0030
3FF8
0030
0060
0000
0000
0000
0000
0000
0000
ENDCHAR
STARTCHAR U+2190
ENCODING 8592
SWIDTH 500 0
DWIDTH 16 0
BBX 16 11 0 0
BITMAP
0C00
1800
3FF8
1800
0C00
0000
0000
0000
0000
0000
0000
ENDCHAR
STARTCHAR U+20a9
ENCODING 8361
SWIDTH 500 0
DWIDTH 8 0
BBX 8 12 0 0
BITMAP
4200
4200
4200
5A00
FF00
5A00
6600
4200
4200
0000
0000
0000
ENDCHAR
STARTCHAR U+2194
ENCODING 8596
SWIDTH 500 0
DWIDTH 16 0
BBX 16 11 0 0
BITMAP
0820
1830
3FF8
1830
0820
0000
0000
0000
0000
0000
0000
ENDCHAR
STARTCHAR U+1f839
ENCODING 129081
SWIDTH 500 0
DWIDTH 8 0
BBX 8 8 0 0
BITMAP
1800
1800
3C00
3C00
7E00
7E00
FF00
DB00
ENDCHAR
STARTCHAR U+1f83b
ENCODING 129083
SWIDTH 500 0
DWIDTH 8 0
BBX 8 16 0 0
BITMAP
DB00
FF00
7E00
7E00
3C00
3C00
1800
1800
0000
0000
0000
0000
0000
0000
0000
0000
ENDCHAR
STARTCHAR U+25c7
ENCODING 9671
SWIDTH 500 0
DWIDTH 16 0
BBX 16 15 0 0
BITMAP
0100
0280
0440
0820
1010
2008
4004
2008
1010
0820
0440
0280
0100
0000
0000
ENDCHAR
STARTCHAR U+263b
ENCODING 9787
SWIDTH 500 0
DWIDTH 16 0
BBX 16 14 0 0
BITMAP
07E0
0FF0
1FF8
399C
399C
3FFC
3FFC
3BDC
3C3C
1FF8
0FF0
07E0
0000
0000
ENDCHAR
STARTCHAR U+25b6
ENCODING 9654
SWIDTH 500 0
DWIDTH 16 0
BBX 16 14 0 0
BITMAP
1000
1C00
1F00
1FC0
1FF0
1FFC
1FF0
1FC0
1F00
1C00
1000
0000
0000
0000
ENDCHAR
STARTCHAR U+25c0
ENCODING 9664
SWIDTH 500 0
DWIDTH 16 0
BBX 16 14 0 0
BITMAP
0008
0038
00F8
03F8
0FF8
3FF8
0FF8
03F8
00F8
0038
0008
0000
0000
0000
ENDCHAR
STARTCHAR U+2191
ENCODING 8593
SWIDTH 500 0
DWIDTH 16 0
BBX 16 13 0 0
BITMAP
0300
0780
0FC0
0300
0300
0300
0300
0300
0300
0000
0000
0000
0000
ENDCHAR
STARTCHAR U+2193
ENCODING 8595
SWIDTH 500 0
DWIDTH 16 0
BBX 16 13 0 0
BITMAP
0300
0300
0300
0300
0300
0300
0FC0
0780
0300
0000
0000
0000
0000
ENDCHAR
STARTCHAR U+2713
ENCODING 10003
SWIDTH 500 0
DWIDTH 8 0
BBX 8 6 0 0
BITMAP
0100
8300
C600
6C00
3800
1000
ENDCHAR
STARTCHAR U+25b2
ENCODING 9650
SWIDTH 500 0
DWIDTH 16 0
BBX 16 11 0 0
BITMAP
0100
0380
07C0
0FE0
1FF0
3FF8
7FFC
0000
0000
0000
0000
ENDCHAR
STARTCHAR U+25bc
ENCODING 9660
SWIDTH 500 0
DWIDTH 16 0
BBX 16 11 0 0
BITMAP
7FFC
3FF8
1FF0
0FE0
07C0
0380
0100
0000
0000
0000
0000
ENDCHAR
STARTCHAR U+00e1
ENCODING 225
SWIDTH 500 0
DWIDTH 8 0
BBX 8 14 0 0
BITMAP
1800
3000
6000
0000
7800
0C00
7C00
CC00
CC00
7600
0000
0000
0000
0000
ENDCHAR
STARTCHAR U+00ed
ENCODING 237
SWIDTH 500 0
DWIDTH 8 0
BBX 8 14 0 0
BITMAP
0C00
1800
3000
0000
3800
1800
1800
1800
1800
3C00
0000
0000
0000
0000
ENDCHAR
STARTCHAR U+00f3
ENCODING 243
SWIDTH 500 0
DWIDTH 8 0
BBX 8 14 0 0
BITMAP
1800
3000
6000
0000
7C00
C600
C600
C600
C600
7C00
0000
0000
0000
0000
ENDCHAR
STARTCHAR U+00fa
ENCODING 250
SWIDTH 500 0
DWIDTH 8 0
BBX 8 14 0 0
BITMAP
1800
3000
6000
0000
CC00
CC00
CC00
CC00
CC00
7600
0000
0000
0000
0000
ENDCHAR
STARTCHAR U+00f1
ENCODING 241
SWIDTH 500 0
DWIDTH 8 0
BBX 8 13 0 0
BITMAP
7600
DC00
0000
DC00
6600
6600
6600
6600
6600
0000
0000
0000
0000
ENDCHAR
STARTCHAR U+00d1
ENCODING 209
SWIDTH 500 0
DWIDTH 8 0
BBX 8 15 0 0
BITMAP
7600
DC00
0000
C600
E600
F600
FE00
DE00
CE00
C600
C600
0000
0000
0000
0000
ENDCHAR
STARTCHAR U+00aa
ENCODING 170
SWIDTH 500 0
DWIDTH 16 0
BBX 16 14 0 0
BITMAP
07C0
0860
03E0
0C60
18E0
0FB0
0000
1FF8
0000
0000
0000
0000
0000
0000
ENDCHAR
STARTCHAR U+00ba
ENCODING 186
SWIDTH 500 0
DWIDTH 16 0
BBX 16 14 0 0
BITMAP
0380
0C60
1830
1830
0C60
0380
0000
1FF0
0000
0000
0000
0000
0000
0000
ENDCHAR
STARTCHAR U+00bf
ENCODING 191
SWIDTH 500 0
DWIDTH 16 0
BBX 16 13 0 0
BITMAP
0300
0300
0000
0300
0300
0600
0C00
1830
1830
0C60
07C0
0000
0000
ENDCHAR
STARTCHAR U+2310
ENCODING 8976
SWIDTH 500 0
DWIDTH 16 0
BBX 16 15 0 0
BITMAP
00FE
0082
00BE
00A0
00A0
00A0
00A0
00E0
0000
0000
0000
0000
0000
0000
0000
ENDCHAR
STARTCHAR U+00ac
ENCODING 172
SWIDTH 500 0
DWIDTH 8 0
BBX 8 9 0 0
BITMAP
0700
0500
0500
0500
0500
7D00
4100
7F00
0000
ENDCHAR
STARTCHAR U+00bd
ENCODING 189
SWIDTH 500 0
DWIDTH 16 0
BBX 16 15 0 0
BITMAP
0400
0C02
0404
0408
0410
0420
045E
0EA1
0101
0202
0404
0808
1011
203F
0000
ENDCHAR
STARTCHAR U+00bc
ENCODING 188
SWIDTH 500 0
DWIDTH 16 0
BBX 16 15 0 0
BITMAP
0400
0C02
0404
0408
0410
0420
0444
0E8C
0114
0224
0444
08FF
1004
2004
0000
ENDCHAR
STARTCHAR U+00a1
ENCODING 161
SWIDTH 500 0
DWIDTH 16 0
BBX 16 13 0 0
BITMAP
0180
0180
0000
0180
0180
0180
0180
03C0
03C0
03C0
0180
0000
0000
ENDCHAR
STARTCHAR U+00ab
ENCODING 171
SWIDTH 500 0
DWIDTH 16 0
BBX 16 15 0 0
BITMAP
00C6
018C
0318
0630
0C60
18C0
3180
3180
18C0
0C60
0630
0318
018C
00C6
0000
ENDCHAR
STARTCHAR U+00bb
ENCODING 187
SWIDTH 500 0
DWIDTH 16 0
BBX 16 15 0 0
BITMAP
6300
3180
18C0
0C60
0630
0318
018C
018C
0318
0630
0C60
18C0
3180
6300
0000
ENDCHAR
STARTCHAR U+2591
ENCODING 9617
SWIDTH 500 0
DWIDTH 16 0
BBX 16 16 0 0
BITMAP
DDDD
7777
DDDD
7777
DDDD
7777
DDDD
7777
DDDD
7777
DDDD
7777
DDDD
7777
DDDD
7777
ENDCHAR
STARTCHAR U+2592
ENCODING 9618
SWIDTH 500 0
DWIDTH 16 0
BBX 16 16 0 0
BITMAP
CCCC
3333
CCCC
3333
CCCC
3333
CCCC
3333
CCCC
3333
CCCC
3333
CCCC
3333
CCCC
3333
ENDCHAR
STARTCHAR U+2593
ENCODING 9619
SWIDTH 500 0
DWIDTH 16 0
BBX 16 16 0 0
BITMAP
AAAA
5555
AAAA
5555
AAAA
5555
AAAA
5555
AAAA
5555
AAAA
5555
AAAA
5555
AAAA
5555
ENDCHAR
STARTCHAR U+2502
ENCODING 9474
SWIDTH 500 0
DWIDTH 16 0
BBX 16 16 0 0
BITMAP
0180
0180
0180
0180
0180
0180
0180
0180
0180
0180
0180
0180
0180
0180
0180
0180
ENDCHAR
STARTCHAR U+2524
ENCODING 9508
SWIDTH 500 0
DWIDTH 16 0
BBX 16 16 0 0
BITMAP
0180
0180
0180
0180
0180
0180
0180
FF80
FF80
0180
0180
0180
0180
0180
0180
0180
ENDCHAR
STARTCHAR U+2561
ENCODING 9569
SWIDTH 500 0
DWIDTH 16 0
BBX 16 16 0 0
BITMAP
0180
0180
0180
0180
0180
0180
FF80
FF80
0180
FF80
FF80
0180
0180
0180
0180
0180
ENDCHAR
STARTCHAR U+2562
ENCODING 9570
SWIDTH 500 0
DWIDTH 16 0
BBX 16 16 0 0
BITMAP
0360
0360
0360
0360
0360
0360
0360
FF60
FF60
0360
0360
0360
0360
0360
0360
0360
ENDCHAR
STARTCHAR U+2556
ENCODING 9558
SWIDTH 500 0
DWIDTH 16 0
BBX 16 9 0 0
BITMAP
FFE0
FFE0
0360
0360
0360
0360
0360
0360
0360
ENDCHAR
STARTCHAR U+2555
ENCODING 9557
SWIDTH 500 0
DWIDTH 16 0
BBX 16 10 0 0
BITMAP
FF80
FF80
0180
FF80
FF80
0180
0180
0180
0180
0180
ENDCHAR
STARTCHAR U+2563
ENCODING 9571
SWIDTH 500 0
DWIDTH 16 0
BBX 16 16 0 0
BITMAP
0360
0360
0360
0360
0360
0360
FF60
FF60
0060
FF60
FF60
0360
0360
0360
0360
0360
ENDCHAR
STARTCHAR U+2551
ENCODING 9553
SWIDTH 500 0
DWIDTH 16 0
BBX 16 16 0 0
BITMAP
0360
0360
0360
0360
0360
0360
0360
0360
0360
0360
0360
0360
0360
0360
0360
0360
ENDCHAR
STARTCHAR U+2557
ENCODING 9559
SWIDTH 500 0
DWIDTH 16 0
BBX 16 10 0 0
BITMAP
FFE0
FFE0
0060
FF60
FF60
0360
0360
0360
0360
0360
ENDCHAR
STARTCHAR U+255d
ENCODING 9565
SWIDTH 500 0
DWIDTH 16 0
BBX 16 16 0 0
BITMAP
0360
0360
0360
0360
0360
0360
FF60
FF60
0060
FFE0
FFE0
0000
0000
0000
0000
0000
ENDCHAR
STARTCHAR U+255c
ENCODING 9564
SWIDTH 500 0
DWIDTH 16 0
BBX 16 16 0 0
BITMAP
0360
0360
0360
0360
0360
0360
0360
FFE0
FFE0
0000
0000
0000
0000
0000
0000
0000
ENDCHAR
STARTCHAR U+255b
ENCODING 9563
SWIDTH 500 0
DWIDTH 16 0
BBX 16 16 0 0
BITMAP
0180
0180
0180
0180
0180
0180
FF80
FF80
0180
FF80
FF80
0000
0000
0000
0000
0000
ENDCHAR
STARTCHAR U+2510
ENCODING 9488
SWIDTH 500 0
DWIDTH 16 0
BBX 16 9 0 0
BITMAP
FF80
FF80
0180
0180
0180
0180
0180
0180
0180
ENDCHAR
STARTCHAR U+2514
ENCODING 9492
SWIDTH 500 0
DWIDTH 16 0
BBX 16 16 0 0
BITMAP
0180
0180
0180
0180
0180
0180
0180
01FF
01FF
0000
0000
0000
0000
0000
0000
0000
ENDCHAR
STARTCHAR U+2534
ENCODING 9524
SWIDTH 500 0
DWIDTH 16 0
BBX 16 16 0 0
BITMAP
0180
0180
0180
0180
0180
0180
0180
FFFF
FFFF
0000
0000
0000
0000
0000
0000
0000
ENDCHAR
STARTCHAR U+252c
ENCODING 9516
SWIDTH 500 0
DWIDTH 16 0
BBX 16 9 0 0
BITMAP
FFFF
FFFF
0180
0180
0180
0180
0180
0180
0180
ENDCHAR
STARTCHAR U+251c
ENCODING 9500
SWIDTH 500 0
DWIDTH 16 0
BBX 16 16 0 0
BITMAP
0180
0180
0180
0180
0180
0180
0180
01FF
01FF
0180
0180
0180
0180
0180
0180
0180
ENDCHAR
STARTCHAR U+2500
ENCODING 9472
SWIDTH 500 0
DWIDTH 16 0
BBX 16 9 0 0
BITMAP
FFFF
FFFF
0000
0000
0000
0000
0000
0000
0000
ENDCHAR
STARTCHAR U+253c
ENCODING 9532
SWIDTH 500 0
DWIDTH 16 0
BBX 16 16 0 0
BITMAP
0180
0180
0180
0180
0180
0180
0180
FFFF
FFFF
0180
0180
0180
0180
0180
0180
0180
ENDCHAR
STARTCHAR U+255e
ENCODING 9566
SWIDTH 500 0
DWIDTH 16 0
BBX 16 16 0 0
BITMAP
0180
0180
0180
0180
0180
0180
01FF
01FF
0180
01FF
01FF
0180
0180
0180
0180
0180
ENDCHAR
STARTCHAR U+255f
ENCODING 9567
SWIDTH 500 0
DWIDTH 16 0
BBX 16 16 0 0
BITMAP
0360
0360
0360
0360
0360
0360
0360
037F
037F
0360
0360
0360
0360
0360
0360
0360
ENDCHAR
STARTCHAR U+255a
ENCODING 9562
SWIDTH 500 0
DWIDTH 16 0
BBX 16 16 0 0
BITMAP
0360
0360
0360
0360
0360
0360
037F
037F
0300
03FF
03FF
0000
0000
0000
0000
0000
ENDCHAR
STARTCHAR U+2554
ENCODING 9556
SWIDTH 500 0
DWIDTH 16 0
BBX 16 10 0 0
BITMAP
03FF
03FF
0300
037F
037F
0360
0360
0360
0360
0360
ENDCHAR
STARTCHAR U+2569
ENCODING 9577
SWIDTH 500 0
DWIDTH 16 0
BBX 16 16 0 0
BITMAP
0360
0360
0360
0360
0360
0360
FF7F
FF7F
0000
FEFF
FFFF
0000
0000
0000
0000
0000
ENDCHAR
STARTCHAR U+2566
ENCODING 9574
SWIDTH 500 0
DWIDTH 16 0
BBX 16 10 0 0
BITMAP
FFFF
FFFF
0000
FF7F
FF7F
0360
0360
0360
0360
0360
ENDCHAR
STARTCHAR U+2560
ENCODING 9568
SWIDTH 500 0
DWIDTH 16 0
BBX 16 16 0 0
BITMAP
0360
0360
0360
0360
0360
0360
037F
037F
0300
037F
037F
0360
0360
0360
0360
0360
ENDCHAR
STARTCHAR U+2550
ENCODING 9552
SWIDTH 500 0
DWIDTH 16 0
BBX 16 10 0 0
BITMAP
FFFF
FFFF
0000
FEFF
FFFF
0000
0000
0000
0000
0000
ENDCHAR
STARTCHAR U+256c
ENCODING 9580
SWIDTH 500 0
DWIDTH 16 0
BBX 16 16 0 0
BITMAP
0360
0360
0360
0360
0360
0360
FF7F
FF7F
0000
FF7F
FF7F
0360
0360
0360
0360
0360
ENDCHAR
STARTCHAR U+2567
ENCODING 9575
SWIDTH 500 0
DWIDTH 16 0
BBX 16 16 0 0
BITMAP
0180
0180
0180
0180
0180
0180
FFFF
FFFF
0000
FEFF
FFFF
0000
0000
0000
0000
0000
ENDCHAR
STARTCHAR U+2568
ENCODING 9576
SWIDTH 500 0
DWIDTH 16 0
BBX 16 16 0 0
BITMAP
0360
0360
0360
0360
0360
0360
0360
FFFF
FFFF
0000
0000
0000
0000
0000
0000
0000
ENDCHAR
STARTCHAR U+2564
ENCODING 9572
SWIDTH 500 0
DWIDTH 16 0
BBX 16 10 0 0
BITMAP
FFFF
FFFF
0000
FFFF
FFFF
0180
0180
0180
0180
0180
ENDCHAR
STARTCHAR U+2565
ENCODING 9573
SWIDTH 500 0
DWIDTH 16 0
BBX 16 9 0 0
BITMAP
FFFF
FFFF
0360
0360
0360
0360
0360
0360
0360
ENDCHAR
STARTCHAR U+2559
ENCODING 9561
SWIDTH 500 0
DWIDTH 16 0
BBX 16 16 0 0
BITMAP
0360
0360
0360
0360
0360
0360
0360
03FF
03FF
0000
0000
0000
0000
0000
0000
0000
ENDCHAR
STARTCHAR U+2558
ENCODING 9560
SWIDTH 500 0
DWIDTH 16 0
BBX 16 16 0 0
BITMAP
0180
0180
0180
0180
0180
0180
01FF
01FF
0180
01FF
01FF
0000
0000
0000
0000
0000
ENDCHAR
STARTCHAR U+2552
ENCODING 9554
SWIDTH 500 0
DWIDTH 16 0
BBX 16 10 0 0
BITMAP
01FF
01FF
0180
01FF
01FF
0180
0180
0180
0180
0180
ENDCHAR
STARTCHAR U+2553
ENCODING 9555
SWIDTH 500 0
DWIDTH 16 0
BBX 16 9 0 0
BITMAP
03FF
03FF
0360
0360
0360
0360
0360
0360
0360
ENDCHAR
STARTCHAR U+256b
ENCODING 9579
SWIDTH 500 0
DWIDTH 16 0
BBX 16 16 0 0
BITMAP
0360
0360
0360
0360
0360
0360
0360
FFFF
FFFF
0360
0360
0360
0360
0360
0360
0360
ENDCHAR
STARTCHAR U+256a
ENCODING 9578
SWIDTH 500 0
DWIDTH 16 0
BBX 16 16 0 0
BITMAP
0180
0180
0180
0180
0180
0180
FFFF
FFFF
0180
FFFF
FFFF
0180
0180
0180
0180
0180
ENDCHAR
STARTCHAR U+2518
ENCODING 9496
SWIDTH 500 0
DWIDTH 16 0
BBX 16 16 0 0
BITMAP
0180
0180
0180
0180
0180
0180
0180
FF80
FF80
0000
0000
0000
0000
0000
0000
0000
ENDCHAR
STARTCHAR U+250c
ENCODING 9484
SWIDTH 500 0
DWIDTH 16 0
BBX 16 9 0 0
BITMAP
01FF
01FF
0180
0180
0180
0180
0180
0180
0180
ENDCHAR
STARTCHAR U+2588
ENCODING 9608
SWIDTH 500 0
DWIDTH 16 0
BBX 16 16 0 0
BITMAP
FFFF
FFFF
FFFF
FFFF
FFFF
FFFF
FFFF
FFFF
FFFF
FFFF
FFFF
FFFF
FFFF
FFFF
FFFF
FFFF
ENDCHAR
STARTCHAR U+2584
ENCODING 9604
SWIDTH 500 0
DWIDTH 16 0
BBX 16 8 0 0
BITMAP
FFFF
FFFF
FFFF
FFFF
FFFF
FFFF
FFFF
FFFF
ENDCHAR
STARTCHAR U+258c
ENCODING 9612
SWIDTH 500 0
DWIDTH 8 0
BBX 8 16 0 0
BITMAP
FF00
FF00
FF00
FF00
FF00
FF00
FF00
FF00
FF00
FF00
FF00
FF00
FF00
FF00
FF00
FF00
ENDCHAR
STARTCHAR U+2590
ENCODING 9616
SWIDTH 500 0
DWIDTH 16 0
BBX 16 16 0 0
BITMAP
01FF
01FF
01FF
01FF
01FF
01FF
01FF
01FF
01FF
01FF
01FF
01FF
01FF
01FF
01FF
01FF
ENDCHAR
STARTCHAR U+2580
ENCODING 9600
SWIDTH 500 0
DWIDTH 16 0
BBX 16 16 0 0
BITMAP
FFFF
FFFF
FFFF
FFFF
FFFF
FFFF
FFFF
FFFF
0000
0000
0000
0000
0000
0000
0000
0000
ENDCHAR
STARTCHAR U+03b1
ENCODING 945
SWIDTH 500 0
DWIDTH 16 0
BBX 16 11 0 0
BITMAP
0788
18D0
3060
3060
3060
3060
30F0
0F9C
0000
0000
0000
ENDCHAR
STARTCHAR U+00df
ENCODING 223
SWIDTH 500 0
DWIDTH 16 0
BBX 16 12 0 0
BITMAP
03E0
0C30
1830
19C0
1860
1830
1830
1860
1B80
1800
1800
0000
ENDCHAR
STARTCHAR U+0393
ENCODING 915
SWIDTH 500 0
DWIDTH 16 0
BBX 16 14 0 0
BITMAP
3FFC
180C
1804
1800
1800
1800
1800
1800
1800
1800
3C00
0000
0000
0000
ENDCHAR
STARTCHAR U+03c0
ENCODING 960
SWIDTH 500 0
DWIDTH 16 0
BBX 16 11 0 0
BITMAP
3FFC
0C30
0C30
0C30
0C30
0C30
0830
101C
0000
0000
0000
ENDCHAR
STARTCHAR U+03a3
ENCODING 931
SWIDTH 500 0
DWIDTH 16 0
BBX 16 14 0 0
BITMAP
3FFC
180C
0C04
0600
0300
0180
0200
0400
0804
1FFC
3FFC
0000
0000
0000
ENDCHAR
STARTCHAR U+03c3
ENCODING 963
SWIDTH 500 0
DWIDTH 16 0
BBX 16 11 0 0
BITMAP
01FC
0660
0C18
1818
1818
1818
1830
07C0
0000
0000
0000
ENDCHAR
STARTCHAR U+00b5
ENCODING 181
SWIDTH 500 0
DWIDTH 16 0
BBX 16 11 0 0
BITMAP
1C38
0C18
0C18
0C18
0E18
0F30
19E0
1800
3000
7000
E000
ENDCHAR
STARTCHAR U+03c4
ENCODING 964
SWIDTH 500 0
DWIDTH 16 0
BBX 16 11 0 0
BITMAP
3FF8
00C0
0180
0300
0300
0300
0180
00E0
0000
0000
0000
ENDCHAR
STARTCHAR U+03a6
ENCODING 934
SWIDTH 500 0
DWIDTH 16 0
BBX 16 14 0 0
BITMAP
03C0
0180
0FF0
1998
318C
318C
318C
1998
0FF0
0180
03C0
0000
0000
0000
ENDCHAR
STARTCHAR U+0398
ENCODING 920
SWIDTH 500 0
DWIDTH 16 0
BBX 16 14 0 0
BITMAP
0EE0
1830
3018
3458
37D8
37D8
3458
3018
3018
1830
0EE0
0000
0000
0000
ENDCHAR
STARTCHAR U+03a9
ENCODING 937
SWIDTH 500 0
DWIDTH 16 0
BBX 16 14 0 0
BITMAP
0FE0
1830
3018
3018
3018
3018
1830
0C60
2288
3EF8
3EF8
0000
0000
0000
ENDCHAR
STARTCHAR U+03b4
ENCODING 948
SWIDTH 500 0
DWIDTH 16 0
BBX 16 14 0 0
BITMAP
03E0
0C10
0C00
0300
0180
06C0
1830
3018
3018
1830
07C0
0000
0000
0000
ENDCHAR
STARTCHAR U+221e
ENCODING 8734
SWIDTH 500 0
DWIDTH 16 0
BBX 16 11 0 0
BITMAP
1C70
2288
4104
4104
4104
2288
1C70
0000
0000
0000
0000
ENDCHAR
STARTCHAR U+1d719
ENCODING 120601
SWIDTH 500 0
DWIDTH 8 0
BBX 8 12 0 0
BITMAP
0300
0300
3E00
6700
6F00
7B00
7300
3E00
6000
6000
0000
0000
ENDCHAR
STARTCHAR U+2208
ENCODING 8712
SWIDTH 500 0
DWIDTH 16 0
BBX 16 11 0 0
BITMAP
03F8
0C00
1000
1FF8
1000
0C00
03F8
0000
0000
0000
0000
ENDCHAR
STARTCHAR U+2229
ENCODING 8745
SWIDTH 500 0
DWIDTH 16 0
BBX 16 12 0 0
BITMAP
07C0
1830
2008
2008
2008
2008
2008
2008
0000
0000
0000
0000
ENDCHAR
STARTCHAR U+2261
ENCODING 8801
SWIDTH 500 0
DWIDTH 16 0
BBX 16 11 0 0
BITMAP
3FFC
0000
3FFC
0000
3FFC
0000
0000
0000
0000
0000
0000
ENDCHAR
STARTCHAR U+00b1
ENCODING 177
SWIDTH 500 0
DWIDTH 16 0
BBX 16 13 0 0
BITMAP
0180
0180
0180
1FF8
0180
0180
0180
0000
1FF8
0000
0000
0000
0000
ENDCHAR
STARTCHAR U+2265
ENCODING 8805
SWIDTH 500 0
DWIDTH 16 0
BBX 16 14 0 0
BITMAP
1C00
0700
01C0
0070
01C0
0700
1C00
0000
1FF0
0000
1FF0
0000
0000
0000
ENDCHAR
STARTCHAR U+2264
ENCODING 8804
SWIDTH 500 0
DWIDTH 16 0
BBX 16 14 0 0
BITMAP
0070
01C0
0700
1C00
0700
01C0
0070
0000
1FF0
0000
1FF0
0000
0000
0000
ENDCHAR
STARTCHAR U+2320
ENCODING 8992
SWIDTH 500 0
DWIDTH 16 0
BBX 16 14 0 0
BITMAP
03E0
0670
0C30
0C00
0C00
0C00
0600
0600
0300
0300
0380
0180
01C0
01C0
ENDCHAR
STARTCHAR U+2321
ENCODING 8993
SWIDTH 500 0
DWIDTH 16 0
BBX 16 16 0 0
BITMAP
01C0
01C0
00C0
00E0
0060
0060
0030
0030
0018
0018
0018
0618
0730
03E0
0000
0000
ENDCHAR
STARTCHAR U+00f7
ENCODING 247
SWIDTH 500 0
DWIDTH 16 0
BBX 16 13 0 0
BITMAP
0180
0180
0000
0000
3FFC
0000
0000
0180
0180
0000
0000
0000
0000
ENDCHAR
STARTCHAR U+2248
ENCODING 8776
SWIDTH 500 0
DWIDTH 16 0
BBX 16 13 0 0
BITMAP
1C00
2200
4104
0088
1C70
2200
4104
0088
0070
0000
0000
0000
0000
ENDCHAR
STARTCHAR U+00b0
ENCODING 176
SWIDTH 500 0
DWIDTH 8 0
BBX 8 13 0 0
BITMAP
0E00
1100
1100
0E00
0000
0000
0000
0000
0000
0000
0000
0000
0000
ENDCHAR
STARTCHAR U+2219
ENCODING 8729
SWIDTH 500 0
DWIDTH 16 0
BBX 16 15 0 0
BITMAP
0700
0F80
0F80
0700
0000
0000
0000
0000
0000
0000
0000
0000
0000
0000
0000
ENDCHAR
STARTCHAR U+00b7
ENCODING 183
SWIDTH 500 0
DWIDTH 16 0
BBX 16 9 0 0
BITMAP
0180
0180
0000
0000
0000
0000
0000
0000
0000
ENDCHAR
STARTCHAR U+221a
ENCODING 8730
SWIDTH 500 0
DWIDTH 16 0
BBX 16 14 0 0
BITMAP
07FC
0400
0400
0400
0400
0400
0400
0400
3400
0C00
0400
0000
0000
0000
ENDCHAR
STARTCHAR U+207f
ENCODING 8319
SWIDTH 500 0
DWIDTH 8 0
BBX 8 15 0 0
BITMAP
5C00
2200
2200
2200
2200
2300
0000
0000
0000
0000
0000
0000
0000
0000
0000
ENDCHAR
STARTCHAR U+00b2
ENCODING 178
SWIDTH 500 0
DWIDTH 8 0
BBX 8 15 0 0
BITMAP
3800
4400
0800
1000
2000
7C00
0000
0000
0000
0000
0000
0000
0000
0000
0000
ENDCHAR
STARTCHAR U+25a6
ENCODING 9638
SWIDTH 500 0
DWIDTH 16 0
BBX 16 16 0 0
BITMAP
AAAA
FFFF
AAAA
FFFF
AAAA
FFFF
AAAA
FFFF
AAAA
FFFF
AAAA
FFFF
AAAA
FFFF
AAAA
FFFF
ENDCHAR
STARTCHAR U+25a1
ENCODING 9633
SWIDTH 500 0
DWIDTH 16 0
BBX 16 13 0 0
BITMAP
3FFC
2004
2004
2004
2004
2004
2004
2004
2004
3FFC
0000
0000
0000
ENDCHAR
STARTCHAR U+00e0
ENCODING 224
SWIDTH 500 0
DWIDTH 8 0
BBX 8 14 0 0
BITMAP
6000
3000
1800
0000
7800
0C00
7C00
CC00
CC00
7600
0000
0000
0000
0000
ENDCHAR
STARTCHAR U+00e2
ENCODING 226
SWIDTH 500 0
DWIDTH 8 0
BBX 8 14 0 0
BITMAP
1000
3800
6C00
0000
7800
0C00
7C00
CC00
CC00
7600
0000
0000
0000
0000
ENDCHAR
STARTCHAR U+00e4
ENCODING 228
SWIDTH 500 0
DWIDTH 8 0
BBX 8 13 0 0
BITMAP
CC00
CC00
0000
7800
0C00
7C00
CC00
CC00
7600
0000
0000
0000
0000
ENDCHAR
STARTCHAR U+00e3
ENCODING 227
SWIDTH 500 0
DWIDTH 8 0
BBX 8 13 0 0
BITMAP
7600
DC00
0000
7800
0C00
7C00
CC00
CC00
7600
0000
0000
0000
0000
ENDCHAR
STARTCHAR U+00e5
ENCODING 229
SWIDTH 500 0
DWIDTH 8 0
BBX 8 14 0 0
BITMAP
3800
6C00
3800
0000
7800
0C00
7C00
CC00
CC00
7600
0000
0000
0000
0000
ENDCHAR
STARTCHAR U+00c7
ENCODING 199
SWIDTH 500 0
DWIDTH 8 0
BBX 8 12 0 0
BITMAP
3C00
6600
C200
C000
C200
6600
3C00
1800
0E00
0C00
7800
0000
ENDCHAR
STARTCHAR U+00e7
ENCODING 231
SWIDTH 500 0
DWIDTH 8 0
BBX 8 10 0 0
BITMAP
3C00
6600
6000
6600
3C00
0C00
0600
3C00
0000
0000
ENDCHAR
STARTCHAR U+00c9
ENCODING 201
SWIDTH 500 0
DWIDTH 8 0
BBX 8 15 0 0
BITMAP
1800
3000
6000
0000
FE00
6600
6000
7C00
6000
6600
FE00
0000
0000
0000
0000
ENDCHAR
STARTCHAR U+00e9
ENCODING 233
SWIDTH 500 0
DWIDTH 8 0
BBX 8 14 0 0
BITMAP
0C00
1800
3000
0000
7C00
C600
FE00
C000
C600
7C00
0000
0000
0000
0000
ENDCHAR
STARTCHAR U+00e8
ENCODING 232
SWIDTH 500 0
DWIDTH 8 0
BBX 8 14 0 0
BITMAP
6000
3000
1800
0000
7C00
C600
FE00
C000
C600
7C00
0000
0000
0000
0000
ENDCHAR
STARTCHAR U+00ea
ENCODING 234
SWIDTH 500 0
DWIDTH 8 0
BBX 8 14 0 0
BITMAP
1000
3800
6C00
0000
7C00
C600
FE00
C000
C600
7C00
0000
0000
0000
0000
ENDCHAR
STARTCHAR U+00eb
ENCODING 235
SWIDTH 500 0
DWIDTH 8 0
BBX 8 13 0 0
BITMAP
CC00
CC00
0000
7C00
C600
FE00
C000
C600
7C00
0000
0000
0000
0000
ENDCHAR
STARTCHAR U+00ec
ENCODING 236
SWIDTH 500 0
DWIDTH 8 0
BBX 8 14 0 0
BITMAP
6000
3000
1800
0000
3800
1800
1800
1800
1800
3C00
0000
0000
0000
0000
ENDCHAR
STARTCHAR U+00ee
ENCODING 238
SWIDTH 500 0
DWIDTH 8 0
BBX 8 14 0 0
BITMAP
1800
3C00
6600
0000
3800
1800
1800
1800
1800
3C00
0000
0000
0000
0000
ENDCHAR
STARTCHAR U+00ef
ENCODING 239
SWIDTH 500 0
DWIDTH 8 0
BBX 8 13 0 0
BITMAP
6600
6600
0000
3800
1800
1800
1800
1800
3C00
0000
0000
0000
0000
ENDCHAR
STARTCHAR U+00d6
ENCODING 214
SWIDTH 500 0
DWIDTH 8 0
BBX 8 15 0 0
BITMAP
C600
C600
0000
3800
6C00
C600
C600
C600
C600
6C00
3800
0000
0000
0000
0000
ENDCHAR
STARTCHAR U+00d5
ENCODING 213
SWIDTH 500 0
DWIDTH 8 0
BBX 8 15 0 0
BITMAP
7600
DC00
0000
3800
6C00
C600
C600
C600
C600
6C00
3800
0000
0000
0000
0000
ENDCHAR
STARTCHAR U+00d8
ENCODING 216
SWIDTH 500 0
DWIDTH 16 0
BBX 16 15 0 0
BITMAP
0030
0030
0060
07E0
0C70
18D8
1998
1998
1B18
0E30
07E0
0600
0C00
0000
0000
ENDCHAR
STARTCHAR U+00f2
ENCODING 242
SWIDTH 500 0
DWIDTH 8 0
BBX 8 14 0 0
BITMAP
6000
3000
1800
0000
7C00
C600
C600
C600
C600
7C00
0000
0000
0000
0000
ENDCHAR
STARTCHAR U+00f4
ENCODING 244
SWIDTH 500 0
DWIDTH 8 0
BBX 8 14 0 0
BITMAP
1000
3800
6C00
0000
7C00
C600
C600
C600
C600
7C00
0000
0000
0000
0000
ENDCHAR
STARTCHAR U+00f6
ENCODING 246
SWIDTH 500 0
DWIDTH 8 0
BBX 8 13 0 0
BITMAP
C600
C600
0000
7C00
C600
C600
C600
C600
7C00
0000
0000
0000
0000
ENDCHAR
STARTCHAR U+00f5
ENCODING 245
SWIDTH 500 0
DWIDTH 8 0
BBX 8 13 0 0
BITMAP
7600
DC00
0000
7C00
C600
C600
C600
C600
7C00
0000
0000
0000
0000
ENDCHAR
STARTCHAR U+00f8
ENCODING 248
SWIDTH 500 0
DWIDTH 16 0
BBX 16 13 0 0
BITMAP
0060
0060
0060
07E0
0CF0
18D8
1998
1998
0FF0
0300
0300
0600
0000
ENDCHAR
STARTCHAR U+00dc
ENCODING 220
SWIDTH 500 0
DWIDTH 8 0
BBX 8 15 0 0
BITMAP
C600
C600
0000
0000
C600
C600
C600
C600
C600
C600
7C00
0000
0000
0000
0000
ENDCHAR
STARTCHAR U+00f9
ENCODING 249
SWIDTH 500 0
DWIDTH 8 0
BBX 8 14 0 0
BITMAP
6000
3000
1800
0000
CC00
CC00
CC00
CC00
CC00
7600
0000
0000
0000
0000
ENDCHAR
STARTCHAR U+00fb
ENCODING 251
SWIDTH 500 0
DWIDTH 8 0
BBX 8 14 0 0
BITMAP
3000
7800
CC00
0000
CC00
CC00
CC00
CC00
CC00
7600
0000
0000
0000
0000
ENDCHAR
STARTCHAR U+00fc
ENCODING 252
SWIDTH 500 0
DWIDTH 8 0
BBX 8 13 0 0
BITMAP
CC00
CC00
0000
CC00
CC00
CC00
CC00
CC00
7600
0000
0000
0000
0000
ENDCHAR
STARTCHAR U+00ff
ENCODING 255
SWIDTH 500 0
DWIDTH 8 0
BBX 8 13 0 0
BITMAP
C600
C600
0000
C600
C600
C600
C600
7E00
0600
0C00
7800
0000
0000
ENDCHAR
STARTCHAR U+00c6
ENCODING 198
SWIDTH 500 0
DWIDTH 16 0
BBX 16 14 0 0
BITMAP
0060
007F
00E1
0160
0262
047E
0FE2
1060
2060
4061
E0FF
0000
0000
0000
ENDCHAR
STARTCHAR U+00e6
ENCODING 230
SWIDTH 500 0
DWIDTH 16 0
BBX 16 10 0 0
BITMAP
7E7C
C3C6
0183
FFFF
C180
C3C3
7E7E
0000
0000
0000
ENDCHAR
STARTCHAR U+00a2
ENCODING 162
SWIDTH 500 0
DWIDTH 8 0
BBX 8 14 0 0
BITMAP
1800
1800
7E00
C300
C000
C000
C300
7E00
1800
1800
0000
0000
0000
0000
ENDCHAR
STARTCHAR U+00a3
ENCODING 163
SWIDTH 500 0
DWIDTH 8 0
BBX 8 14 0 0
BITMAP
3800
6C00
6400
6000
F000
6000
6000
6000
E600
FC00
0000
0000
0000
0000
ENDCHAR
STARTCHAR U+20a7
ENCODING 8359
SWIDTH 500 0
DWIDTH 8 0
BBX 8 14 0 0
BITMAP
FC00
6600
6600
7C00
6200
6600
6F00
6600
6600
F300
0000
0000
0000
0000
ENDCHAR
STARTCHAR U+3000
ENCODING 12288
SWIDTH 500 0
DWIDTH 8 0
BBX 8 0 0 0
BITMAP

ENDCHAR
STARTCHAR U+f700
ENCODING 63232
SWIDTH 500 0
DWIDTH 16 0
BBX 16 15 0 0
BITMAP
EEEE
EEEE
EEEE
0000
EEEE
EEEE
EEEE
0000
EEEE
EEEE
EEEE
0000
EEEE
EEEE
EEEE
ENDCHAR
STARTCHAR U+f701
ENCODING 63233
SWIDTH 500 0
DWIDTH 16 0
BBX 16 14 0 0
BITMAP
07E0
0810
1008
2664
2664
2004
2004
2424
23C4
1008
0810
07E0
0000
0000
ENDCHAR
STARTCHAR U+f702
ENCODING 63234
SWIDTH 500 0
DWIDTH 16 0
BBX 16 14 0 0
BITMAP
07E0
0FF0
1FF8
399C
399C
3FFC
3FFC
3BDC
3C3C
1FF8
0FF0
07E0
0000
0000
ENDCHAR
STARTCHAR U+f703
ENCODING 63235
SWIDTH 500 0
DWIDTH 16 0
BBX 16 14 0 0
BITMAP
1C70
3EF8
7EFC
7FFC
7FFC
7FFC
7FFC
3FF8
1FF0
0FE0
07C0
0380
0100
0000
ENDCHAR
STARTCHAR U+f704
ENCODING 63236
SWIDTH 500 0
DWIDTH 16 0
BBX 16 14 0 0
BITMAP
0100
0380
07C0
0FE0
1FF0
3FF8
1FF0
0FE0
07C0
0380
0100
0000
0000
0000
ENDCHAR
STARTCHAR U+f705
ENCODING 63237
SWIDTH 500 0
DWIDTH 16 0
BBX 16 14 0 0
BITMAP
0180
03C0
07E0
07E0
1BD8
3FFC
7FFE
7FFE
3DBC
1998
0180
07E0
0000
0000
ENDCHAR
STARTCHAR U+f706
ENCODING 63238
SWIDTH 500 0
DWIDTH 16 0
BBX 16 14 0 0
BITMAP
0100
0380
07C0
0FE0
1FF0
3FF8
7FFC
7FFC
3D78
0100
0100
0FE0
0000
0000
ENDCHAR
STARTCHAR U+f707
ENCODING 63239
SWIDTH 500 0
DWIDTH 16 0
BBX 16 10 0 0
BITMAP
0780
0FC0
0FC0
0780
0000
0000
0000
0000
0000
0000
ENDCHAR
STARTCHAR U+f708
ENCODING 63240
SWIDTH 500 0
DWIDTH 16 0
BBX 16 14 0 0
BITMAP
FFFC
FFFC
FFFC
FFFC
F03C
E01C
E01C
F03C
FFFC
FFFC
FFFC
FFFC
0000
0000
ENDCHAR
STARTCHAR U+f709
ENCODING 63241
SWIDTH 500 0
DWIDTH 16 0
BBX 16 13 0 0
BITMAP
0FE0
3838
600C
600C
600C
600C
600C
3838
0FE0
0000
0000
0000
0000
ENDCHAR
STARTCHAR U+f70a
ENCODING 63242
SWIDTH 500 0
DWIDTH 16 0
BBX 16 15 0 0
BITMAP
FFFE
FFFE
F01E
C7C6
9FF2
9FF2
9FF2
9FF2
9FF2
C7C6
F01E
FFFE
FFFE
0000
0000
ENDCHAR
STARTCHAR U+f70b
ENCODING 63243
SWIDTH 500 0
DWIDTH 16 0
BBX 16 15 0 0
BITMAP
003E
000E
001E
0032
1F60
71C0
C060
C060
C060
C060
71C0
1F00
0000
0000
0000
ENDCHAR
STARTCHAR U+f70c
ENCODING 63244
SWIDTH 500 0
DWIDTH 16 0
BBX 16 14 0 0
BITMAP
0FC0
3870
6018
6018
6018
3870
0FC0
0300
7FF8
0300
0300
0000
0000
0000
ENDCHAR
STARTCHAR U+f70d
ENCODING 63245
SWIDTH 500 0
DWIDTH 16 0
BBX 16 15 0 0
BITMAP
0100
0180
01C0
0120
0110
0110
0110
0120
0100
0700
0F00
1E00
1C00
0000
0000
ENDCHAR
STARTCHAR U+f70e
ENCODING 63246
SWIDTH 500 0
DWIDTH 16 0
BBX 16 15 0 0
BITMAP
0700
05C0
0470
0710
05D0
0470
0410
0410
0C10
1C10
3830
3070
00E0
00C0
0000
ENDCHAR
STARTCHAR U+f70f
ENCODING 63247
SWIDTH 500 0
DWIDTH 16 0
BBX 16 14 0 0
BITMAP
0100
2108
17D0
0820
1010
701C
1010
0820
17D0
2108
0100
0000
0000
0000
ENDCHAR
STARTCHAR U+f710
ENCODING 63248
SWIDTH 500 0
DWIDTH 16 0
BBX 16 14 0 0
BITMAP
6000
7800
7E00
7F80
7FE0
7FF8
7FE0
7F80
7E00
7800
6000
0000
0000
0000
ENDCHAR
STARTCHAR U+f711
ENCODING 63249
SWIDTH 500 0
DWIDTH 16 0
BBX 16 14 0 0
BITMAP
0018
0078
01F8
07F8
1FF8
7FF8
1FF8
07F8
01F8
0078
0018
0000
0000
0000
ENDCHAR
STARTCHAR U+f712
ENCODING 63250
SWIDTH 500 0
DWIDTH 16 0
BBX 16 14 0 0
BITMAP
0300
0780
0FC0
0300
0300
0300
0300
0300
0FC0
0780
0300
0000
0000
0000
ENDCHAR
STARTCHAR U+f713
ENCODING 63251
SWIDTH 500 0
DWIDTH 16 0
BBX 16 14 0 0
BITMAP
0E70
0E70
0E70
0E70
0C60
0C60
0C60
0C60
0000
1CE0
1CE0
0000
0000
0000
ENDCHAR
STARTCHAR U+f714
ENCODING 63252
SWIDTH 500 0
DWIDTH 16 0
BBX 16 14 0 0
BITMAP
1FFC
7330
C330
C330
C330
7330
1F30
0330
0330
0330
0330
0000
0000
0000
ENDCHAR
STARTCHAR U+f715
ENCODING 63253
SWIDTH 500 0
DWIDTH 16 0
BBX 16 15 0 0
BITMAP
0F80
18C0
1860
0C00
0F00
19C0
1860
0E60
03C0
00C0
1860
0C60
07C0
0000
0000
ENDCHAR
STARTCHAR U+f716
ENCODING 63254
SWIDTH 500 0
DWIDTH 16 0
BBX 16 8 0 0
BITMAP
7FF8
7FF8
7FF8
0000
0000
0000
0000
0000
ENDCHAR
STARTCHAR U+f717
ENCODING 63255
SWIDTH 500 0
DWIDTH 16 0
BBX 16 15 0 0
BITMAP
0300
0780
0FC0
0300
0300
0300
0300
0300
0FC0
0780
0300
FFFC
0000
0000
0000
ENDCHAR
STARTCHAR U+f718
ENCODING 63256
SWIDTH 500 0
DWIDTH 16 0
BBX 16 14 0 0
BITMAP
0300
0780
0FC0
0300
0300
0300
0300
0300
0300
0300
0300
0000
0000
0000
ENDCHAR
STARTCHAR U+f719
ENCODING 63257
SWIDTH 500 0
DWIDTH 16 0
BBX 16 14 0 0
BITMAP
0300
0300
0300
0300
0300
0300
0300
0300
0FC0
0780
0300
0000
0000
0000
ENDCHAR
STARTCHAR U+f71a
ENCODING 63258
SWIDTH 500 0
DWIDTH 16 0
BBX 16 11 0 0
BITMAP
0018
001C
FFFE
001C
0018
0000
0000
0000
0000
0000
0000
ENDCHAR
STARTCHAR U+f71b
ENCODING 63259
SWIDTH 500 0
DWIDTH 16 0
BBX 16 11 0 0
BITMAP
3000
7000
FFFE
7000
3000
0000
0000
0000
0000
0000
0000
ENDCHAR
STARTCHAR U+f71c
ENCODING 63260
SWIDTH 500 0
DWIDTH 16 0
BBX 16 11 0 0
BITMAP
C000
C000
C000
C000
C000
FFF8
0000
0000
0000
0000
0000
ENDCHAR
STARTCHAR U+f71d
ENCODING 63261
SWIDTH 500 0
DWIDTH 16 0
BBX 16 11 0 0
BITMAP
3018
701C
FFFE
701C
3018
0000
0000
0000
0000
0000
0000
ENDCHAR
STARTCHAR U+f71e
ENCODING 63262
SWIDTH 500 0
DWIDTH 16 0
BBX 16 12 0 0
BITMAP
0100
0380
07C0
0FE0
1FF0
3FF8
7FFC
FFFE
0000
0000
0000
0000
ENDCHAR
STARTCHAR U+f71f
ENCODING 63263
SWIDTH 500 0
DWIDTH 16 0
BBX 16 12 0 0
BITMAP
FFFE
7FFC
3FF8
1FF0
0FE0
07C0
0380
0100
0000
0000
0000
0000
ENDCHAR
STARTCHAR U+f7a0
ENCODING 63392
SWIDTH 500 0
DWIDTH 16 0
BBX 16 13 0 0
BITMAP
01E0
0330
0600
0600
03C0
0E00
1800
3000
3030
18C0
0F80
0000
0000
ENDCHAR
STARTCHAR U+f7a1
ENCODING 63393
SWIDTH 500 0
DWIDTH 16 0
BBX 16 15 0 0
BITMAP
0600
06C0
03F8
0180
0300
0600
0C00
0C00
0E00
03E0
0030
0030
00C0
0000
0000
ENDCHAR
STARTCHAR U+f7a2
ENCODING 63394
SWIDTH 500 0
DWIDTH 16 0
BBX 16 11 0 0
BITMAP
1EF0
3318
0318
0618
0C30
1860
00C0
0180
0100
0000
0000
ENDCHAR
STARTCHAR U+f7a3
ENCODING 63395
SWIDTH 500 0
DWIDTH 16 0
BBX 16 12 0 0
BITMAP
0380
00C0
0060
0060
00E0
01B0
0330
0C18
7006
0000
0000
0000
ENDCHAR
STARTCHAR U+f7a4
ENCODING 63396
SWIDTH 500 0
DWIDTH 16 0
BBX 16 11 0 0
BITMAP
3838
0C18
0C18
0C30
0C60
0DC0
0F00
1800
0000
0000
0000
ENDCHAR
STARTCHAR U+f7a5
ENCODING 63397
SWIDTH 500 0
DWIDTH 16 0
BBX 16 15 0 0
BITMAP
0380
00F8
0180
0180
00F8
0380
0600
0C00
0C00
0600
03E0
0030
0030
00C0
0000
ENDCHAR
STARTCHAR U+f7a6
ENCODING 63398
SWIDTH 500 0
DWIDTH 16 0
BBX 16 12 0 0
BITMAP
01F0
0318
0618
0C18
0C30
1FE0
1800
1800
3000
3000
3000
0000
ENDCHAR
STARTCHAR U+f7a7
ENCODING 63399
SWIDTH 500 0
DWIDTH 16 0
BBX 16 12 0 0
BITMAP
1820
0620
066C
0C66
18C6
18C6
198C
0F18
07F0
0C00
1800
0000
ENDCHAR
STARTCHAR U+f7a8
ENCODING 63400
SWIDTH 500 0
DWIDTH 16 0
BBX 16 14 0 0
BITMAP
1FF0
7FFC
F6DE
F6DE
06C0
1FF0
3838
701C
F83E
FFFE
701C
0000
0000
0000
ENDCHAR
STARTCHAR U+f7a9
ENCODING 63401
SWIDTH 500 0
DWIDTH 16 0
BBX 16 15 0 0
BITMAP
00FE
0082
00BE
00A0
00A0
00A0
00A0
00E0
0000
0000
0000
0000
0000
0000
0000
ENDCHAR
STARTCHAR U+f7aa
ENCODING 63402
SWIDTH 500 0
DWIDTH 8 0
BBX 8 9 0 0
BITMAP
0700
0500
0500
0500
0500
7D00
4100
7F00
0000
ENDCHAR
STARTCHAR U+f7ab
ENCODING 63403
SWIDTH 500 0
DWIDTH 16 0
BBX 16 13 0 0
BITMAP
3000
1800
0C00
3FF8
0300
0180
3FF8
0060
0030
0018
0000
0000
0000
ENDCHAR
STARTCHAR U+f7ac
ENCODING 63404
SWIDTH 500 0
DWIDTH 16 0
BBX 16 12 0 0
BITMAP
0180
0180
0000
0000
0000
0000
1818
1818
0000
0000
0000
0000
ENDCHAR
STARTCHAR U+f7ad
ENCODING 63405
SWIDTH 500 0
DWIDTH 16 0
BBX 16 4 0 0
BITMAP
7FFE
7FFE
0000
0000
ENDCHAR
STARTCHAR U+f7ae
ENCODING 63406
SWIDTH 500 0
DWIDTH 16 0
BBX 16 15 0 0
BITMAP
6300
3180
18C0
0C60
0630
0318
018C
018C
0318
0630
0C60
18C0
3180
6300
0000
ENDCHAR
STARTCHAR U+f7af
ENCODING 63407
SWIDTH 500 0
DWIDTH 16 0
BBX 16 15 0 0
BITMAP
00C6
018C
0318
0630
0C60
18C0
3180
3180
18C0
0C60
0630
0318
018C
00C6
0000
ENDCHAR
STARTCHAR U+f7b0
ENCODING 63408
SWIDTH 500 0
DWIDTH 16 0
BBX 16 16 0 0
BITMAP
DDDD
7777
DDDD
7777
DDDD
7777
DDDD
7777
DDDD
7777
DDDD
7777
DDDD
7777
DDDD
7777
ENDCHAR
STARTCHAR U+f7b1
ENCODING 63409
SWIDTH 500 0
DWIDTH 16 0
BBX 16 16 0 0
BITMAP
CCCC
3333
CCCC
3333
CCCC
3333
CCCC
3333
CCCC
3333
CCCC
3333
CCCC
3333
CCCC
3333
ENDCHAR
STARTCHAR U+f7b2
ENCODING 63410
SWIDTH 500 0
DWIDTH 16 0
BBX 16 16 0 0
BITMAP
AAAA
5555
AAAA
5555
AAAA
5555
AAAA
5555
AAAA
5555
AAAA
5555
AAAA
5555
AAAA
5555
ENDCHAR
STARTCHAR U+f7b3
ENCODING 63411
SWIDTH 500 0
DWIDTH 16 0
BBX 16 16 0 0
BITMAP
0180
0180
0180
0180
0180
0180
0180
0180
0180
0180
0180
0180
0180
0180
0180
0180
ENDCHAR
STARTCHAR U+f7b4
ENCODING 63412
SWIDTH 500 0
DWIDTH 16 0
BBX 16 16 0 0
BITMAP
0180
0180
0180
0180
0180
0180
0180
FF80
FF80
0180
0180
0180
0180
0180
0180
0180
ENDCHAR
STARTCHAR U+f7b5
ENCODING 63413
SWIDTH 500 0
DWIDTH 16 0
BBX 16 16 0 0
BITMAP
0180
0180
0180
0180
0180
0180
FF80
FF80
0180
FF80
FF80
0180
0180
0180
0180
0180
ENDCHAR
STARTCHAR U+f7b6
ENCODING 63414
SWIDTH 500 0
DWIDTH 16 0
BBX 16 16 0 0
BITMAP
0360
0360
0360
0360
0360
0360
0360
FF60
FF60
0360
0360
0360
0360
0360
0360
0360
ENDCHAR
STARTCHAR U+f7b7
ENCODING 63415
SWIDTH 500 0
DWIDTH 16 0
BBX 16 9 0 0
BITMAP
FFE0
FFE0
0360
0360
0360
0360
0360
0360
0360
ENDCHAR
STARTCHAR U+f7b8
ENCODING 63416
SWIDTH 500 0
DWIDTH 16 0
BBX 16 10 0 0
BITMAP
FF80
FF80
0180
FF80
FF80
0180
0180
0180
0180
0180
ENDCHAR
STARTCHAR U+f7b9
ENCODING 63417
SWIDTH 500 0
DWIDTH 16 0
BBX 16 16 0 0
BITMAP
0360
0360
0360
0360
0360
0360
FF60
FF60
0060
FF60
FF60
0360
0360
0360
0360
0360
ENDCHAR
STARTCHAR U+f7ba
ENCODING 63418
SWIDTH 500 0
DWIDTH 16 0
BBX 16 16 0 0
BITMAP
0360
0360
0360
0360
0360
0360
0360
0360
0360
0360
0360
0360
0360
0360
0360
0360
ENDCHAR
STARTCHAR U+f7bb
ENCODING 63419
SWIDTH 500 0
DWIDTH 16 0
BBX 16 10 0 0
BITMAP
FFE0
FFE0
0060
FF60
FF60
0360
0360
0360
0360
0360
ENDCHAR
STARTCHAR U+f7bc
ENCODING 63420
SWIDTH 500 0
DWIDTH 16 0
BBX 16 16 0 0
BITMAP
0360
0360
0360
0360
0360
0360
FF60
FF60
0060
FFE0
FFE0
0000
0000
0000
0000
0000
ENDCHAR
STARTCHAR U+f7bd
ENCODING 63421
SWIDTH 500 0
DWIDTH 16 0
BBX 16 16 0 0
BITMAP
0360
0360
0360
0360
0360
0360
0360
FFE0
FFE0
0000
0000
0000
0000
0000
0000
0000
ENDCHAR
STARTCHAR U+f7be
ENCODING 63422
SWIDTH 500 0
DWIDTH 16 0
BBX 16 16 0 0
BITMAP
0180
0180
0180
0180
0180
0180
FF80
FF80
0180
FF80
FF80
0000
0000
0000
0000
0000
ENDCHAR
STARTCHAR U+f7bf
ENCODING 63423
SWIDTH 500 0
DWIDTH 16 0
BBX 16 9 0 0
BITMAP
FF80
FF80
0180
0180
0180
0180
0180
0180
0180
ENDCHAR
STARTCHAR U+f7c0
ENCODING 63424
SWIDTH 500 0
DWIDTH 16 0
BBX 16 16 0 0
BITMAP
0180
0180
0180
0180
0180
0180
0180
01FF
01FF
0000
0000
0000
0000
0000
0000
0000
ENDCHAR
STARTCHAR U+f7c1
ENCODING 63425
SWIDTH 500 0
DWIDTH 16 0
BBX 16 16 0 0
BITMAP
0180
0180
0180
0180
0180
0180
0180
FFFF
FFFF
0000
0000
0000
0000
0000
0000
0000
ENDCHAR
STARTCHAR U+f7c2
ENCODING 63426
SWIDTH 500 0
DWIDTH 16 0
BBX 16 9 0 0
BITMAP
FFFF
FFFF
0180
0180
0180
0180
0180
0180
0180
ENDCHAR
STARTCHAR U+f7c3
ENCODING 63427
SWIDTH 500 0
DWIDTH 16 0
BBX 16 16 0 0
BITMAP
0180
0180
0180
0180
0180
0180
0180
01FF
01FF
0180
0180
0180
0180
0180
0180
0180
ENDCHAR
STARTCHAR U+f7c4
ENCODING 63428
SWIDTH 500 0
DWIDTH 16 0
BBX 16 9 0 0
BITMAP
FFFF
FFFF
0000
0000
0000
0000
0000
0000
0000
ENDCHAR
STARTCHAR U+f7c5
ENCODING 63429
SWIDTH 500 0
DWIDTH 16 0
BBX 16 16 0 0
BITMAP
0180
0180
0180
0180
0180
0180
0180
FFFF
FFFF
0180
0180
0180
0180
0180
0180
0180
ENDCHAR
STARTCHAR U+f7c6
ENCODING 63430
SWIDTH 500 0
DWIDTH 16 0
BBX 16 16 0 0
BITMAP
0180
0180
0180
0180
0180
0180
01FF
01FF
0180
01FF
01FF
0180
0180
0180
0180
0180
ENDCHAR
STARTCHAR U+f7c7
ENCODING 63431
SWIDTH 500 0
DWIDTH 16 0
BBX 16 16 0 0
BITMAP
0360
0360
0360
0360
0360
0360
0360
037F
037F
0360
0360
0360
0360
0360
0360
0360
ENDCHAR
STARTCHAR U+f7c8
ENCODING 63432
SWIDTH 500 0
DWIDTH 16 0
BBX 16 16 0 0
BITMAP
0360
0360
0360
0360
0360
0360
037F
037F
0300
03FF
03FF
0000
0000
0000
0000
0000
ENDCHAR
STARTCHAR U+f7c9
ENCODING 63433
SWIDTH 500 0
DWIDTH 16 0
BBX 16 10 0 0
BITMAP
03FF
03FF
0300
037F
037F
0360
0360
0360
0360
0360
ENDCHAR
STARTCHAR U+f7ca
ENCODING 63434
SWIDTH 500 0
DWIDTH 16 0
BBX 16 16 0 0
BITMAP
0360
0360
0360
0360
0360
0360
FF7F
FF7F
0000
FEFF
FFFF
0000
0000
0000
0000
0000
ENDCHAR
STARTCHAR U+f7cb
ENCODING 63435
SWIDTH 500 0
DWIDTH 16 0
BBX 16 10 0 0
BITMAP
FFFF
FFFF
0000
FF7F
FF7F
0360
0360
0360
0360
0360
ENDCHAR
STARTCHAR U+f7cc
ENCODING 63436
SWIDTH 500 0
DWIDTH 16 0
BBX 16 16 0 0
BITMAP
0360
0360
0360
0360
0360
0360
037F
037F
0300
037F
037F
0360
0360
0360
0360
0360
ENDCHAR
STARTCHAR U+f7cd
ENCODING 63437
SWIDTH 500 0
DWIDTH 16 0
BBX 16 10 0 0
BITMAP
FFFF
FFFF
0000
FEFF
FFFF
0000
0000
0000
0000
0000
ENDCHAR
STARTCHAR U+f7ce
ENCODING 63438
SWIDTH 500 0
DWIDTH 16 0
BBX 16 16 0 0
BITMAP
0360
0360
0360
0360
0360
0360
FF7F
FF7F
0000
FF7F
FF7F
0360
0360
0360
0360
0360
ENDCHAR
STARTCHAR U+f7cf
ENCODING 63439
SWIDTH 500 0
DWIDTH 16 0
BBX 16 16 0 0
BITMAP
0180
0180
0180
0180
0180
0180
FFFF
FFFF
0000
FEFF
FFFF
0000
0000
0000
0000
0000
ENDCHAR
STARTCHAR U+f7d0
ENCODING 63440
SWIDTH 500 0
DWIDTH 16 0
BBX 16 16 0 0
BITMAP
0360
0360
0360
0360
0360
0360
0360
FFFF
FFFF
0000
0000
0000
0000
0000
0000
0000
ENDCHAR
STARTCHAR U+f7d1
ENCODING 63441
SWIDTH 500 0
DWIDTH 16 0
BBX 16 10 0 0
BITMAP
FFFF
FFFF
0000
FFFF
FFFF
0180
0180
0180
0180
0180
ENDCHAR
STARTCHAR U+f7d2
ENCODING 63442
SWIDTH 500 0
DWIDTH 16 0
BBX 16 9 0 0
BITMAP
FFFF
FFFF
0360
0360
0360
0360
0360
0360
0360
ENDCHAR
STARTCHAR U+f7d3
ENCODING 63443
SWIDTH 500 0
DWIDTH 16 0
BBX 16 16 0 0
BITMAP
0360
0360
0360
0360
0360
0360
0360
03FF
03FF
0000
0000
0000
0000
0000
0000
0000
ENDCHAR
STARTCHAR U+f7d4
ENCODING 63444
SWIDTH 500 0
DWIDTH 16 0
BBX 16 16 0 0
BITMAP
0180
0180
0180
0180
0180
0180
01FF
01FF
0180
01FF
01FF
0000
0000
0000
0000
0000
ENDCHAR
STARTCHAR U+f7d5
ENCODING 63445
SWIDTH 500 0
DWIDTH 16 0
BBX 16 10 0 0
BITMAP
01FF
01FF
0180
01FF
01FF
0180
0180
0180
0180
0180
ENDCHAR
STARTCHAR U+f7d6
ENCODING 63446
SWIDTH 500 0
DWIDTH 16 0
BBX 16 9 0 0
BITMAP
03FF
03FF
0360
0360
0360
0360
0360
0360
0360
ENDCHAR
STARTCHAR U+f7d7
ENCODING 63447
SWIDTH 500 0
DWIDTH 16 0
BBX 16 16 0 0
BITMAP
0360
0360
0360
0360
0360
0360
0360
FFFF
FFFF
0360
0360
0360
0360
0360
0360
0360
ENDCHAR
STARTCHAR U+f7d8
ENCODING 63448
SWIDTH 500 0
DWIDTH 16 0
BBX 16 16 0 0
BITMAP
0180
0180
0180
0180
0180
0180
FFFF
FFFF
0180
FFFF
FFFF
0180
0180
0180
0180
0180
ENDCHAR
STARTCHAR U+f7d9
ENCODING 63449
SWIDTH 500 0
DWIDTH 16 0
BBX 16 16 0 0
BITMAP
0180
0180
0180
0180
0180
0180
0180
FF80
FF80
0000
0000
0000
0000
0000
0000
0000
ENDCHAR
STARTCHAR U+f7da
ENCODING 63450
SWIDTH 500 0
DWIDTH 16 0
BBX 16 9 0 0
BITMAP
01FF
01FF
0180
0180
0180
0180
0180
0180
0180
ENDCHAR
STARTCHAR U+f7db
ENCODING 63451
SWIDTH 500 0
DWIDTH 16 0
BBX 16 16 0 0
BITMAP
FFFF
FFFF
FFFF
FFFF
FFFF
FFFF
FFFF
FFFF
FFFF
FFFF
FFFF
FFFF
FFFF
FFFF
FFFF
FFFF
ENDCHAR
STARTCHAR U+f7dc
ENCODING 63452
SWIDTH 500 0
DWIDTH 16 0
BBX 16 8 0 0
BITMAP
FFFF
FFFF
FFFF
FFFF
FFFF
FFFF
FFFF
FFFF
ENDCHAR
STARTCHAR U+f7dd
ENCODING 63453
SWIDTH 500 0
DWIDTH 8 0
BBX 8 16 0 0
BITMAP
FF00
FF00
FF00
FF00
FF00
FF00
FF00
FF00
FF00
FF00
FF00
FF00
FF00
FF00
FF00
FF00
ENDCHAR
STARTCHAR U+f7de
ENCODING 63454
SWIDTH 500 0
DWIDTH 16 0
BBX 16 16 0 0
BITMAP
01FF
01FF
01FF
01FF
01FF
01FF
01FF
01FF
01FF
01FF
01FF
01FF
01FF
01FF
01FF
01FF
ENDCHAR
STARTCHAR U+f7df
ENCODING 63455
SWIDTH 500 0
DWIDTH 16 0
BBX 16 16 0 0
BITMAP
FFFF
FFFF
FFFF
FFFF
FFFF
FFFF
FFFF
FFFF
0000
0000
0000
0000
0000
0000
0000
0000
ENDCHAR
STARTCHAR U+f7e0
ENCODING 63456
SWIDTH 500 0
DWIDTH 16 0
BBX 16 11 0 0
BITMAP
0398
0CD8
1870
3060
60E0
61A0
3330
1E1C
0000
0000
0000
ENDCHAR
STARTCHAR U+f7e1
ENCODING 63457
SWIDTH 500 0
DWIDTH 16 0
BBX 16 14 0 0
BITMAP
00F0
0198
030C
060C
0C38
0CE0
1830
1818
3818
3330
71E0
6000
E000
E000
ENDCHAR
STARTCHAR U+f7e2
ENCODING 63458
SWIDTH 500 0
DWIDTH 16 0
BBX 16 13 0 0
BITMAP
3C0E
6638
4360
0380
0300
0600
0600
0C00
0C00
1C00
1C00
1C00
0000
ENDCHAR
STARTCHAR U+f7e3
ENCODING 63459
SWIDTH 500 0
DWIDTH 16 0
BBX 16 13 0 0
BITMAP
0002
1FFC
6330
8660
0C60
0CC0
18C0
18D8
38F0
30E0
0000
0000
0000
ENDCHAR
STARTCHAR U+f7e4
ENCODING 63460
SWIDTH 500 0
DWIDTH 16 0
BBX 16 15 0 0
BITMAP
FFFE
7006
3802
1C00
0E00
0700
0380
0700
0E00
1C00
3802
7006
FFFE
0000
0000
ENDCHAR
STARTCHAR U+f7e5
ENCODING 63461
SWIDTH 500 0
DWIDTH 16 0
BBX 16 12 0 0
BITMAP
000C
03F8
0EC0
1860
3060
6060
60C0
3180
1F00
0000
0000
0000
ENDCHAR
STARTCHAR U+f7e6
ENCODING 63462
SWIDTH 500 0
DWIDTH 16 0
BBX 16 11 0 0
BITMAP
1C38
0C18
0C18
0C18
0E18
0F30
19E0
1800
3000
7000
E000
ENDCHAR
STARTCHAR U+f7e7
ENCODING 63463
SWIDTH 500 0
DWIDTH 16 0
BBX 16 13 0 0
BITMAP
0004
0FF8
3180
4180
0300
0300
0600
0610
0660
03C0
0000
0000
0000
ENDCHAR
STARTCHAR U+f7e8
ENCODING 63464
SWIDTH 500 0
DWIDTH 16 0
BBX 16 15 0 0
BITMAP
0FF0
0180
0180
07E0
0DB0
1998
1998
0DB0
07E0
0180
0180
0FF0
0000
0000
0000
ENDCHAR
STARTCHAR U+f7e9
ENCODING 63465
SWIDTH 500 0
DWIDTH 16 0
BBX 16 14 0 0
BITMAP
07C0
0C60
1830
1830
1830
1FF0
1830
1830
1830
0C60
07C0
0000
0000
0000
ENDCHAR
STARTCHAR U+f7ea
ENCODING 63466
SWIDTH 500 0
DWIDTH 16 0
BBX 16 13 0 0
BITMAP
0FC0
3870
6018
6018
6018
3030
1CE0
8CC4
CCCC
FCFC
0000
0000
0000
ENDCHAR
STARTCHAR U+f7eb
ENCODING 63467
SWIDTH 500 0
DWIDTH 16 0
BBX 16 15 0 0
BITMAP
03C0
0670
061C
0300
0180
07C0
0C60
1860
3060
30C0
3180
1F00
0000
0000
0000
ENDCHAR
STARTCHAR U+f7ec
ENCODING 63468
SWIDTH 500 0
DWIDTH 16 0
BBX 16 12 0 0
BITMAP
3C78
66CC
C386
C386
C386
66CC
3C78
0000
0000
0000
0000
0000
ENDCHAR
STARTCHAR U+f7ed
ENCODING 63469
SWIDTH 500 0
DWIDTH 16 0
BBX 16 16 0 0
BITMAP
0060
0060
00C0
00C0
0FF0
3998
618C
630C
3338
1FE0
0600
0600
0C00
0C00
0000
0000
ENDCHAR
STARTCHAR U+f7ee
ENCODING 63470
SWIDTH 500 0
DWIDTH 16 0
BBX 16 13 0 0
BITMAP
07FC
1C00
3000
3000
3FF8
3000
3000
1C00
07FC
0000
0000
0000
0000
ENDCHAR
STARTCHAR U+f7ef
ENCODING 63471
SWIDTH 500 0
DWIDTH 16 0
BBX 16 13 0 0
BITMAP
07E0
1C38
300C
300C
300C
300C
300C
300C
300C
0000
0000
0000
0000
ENDCHAR
STARTCHAR U+f7f0
ENCODING 63472
SWIDTH 500 0
DWIDTH 16 0
BBX 16 12 0 0
BITMAP
3FFC
0000
0000
3FFC
0000
0000
3FFC
0000
0000
0000
0000
0000
ENDCHAR
STARTCHAR U+f7f1
ENCODING 63473
SWIDTH 500 0
DWIDTH 16 0
BBX 16 13 0 0
BITMAP
0180
0180
0180
3FFC
0180
0180
0180
0000
3FFC
0000
0000
0000
0000
ENDCHAR
STARTCHAR U+f7f2
ENCODING 63474
SWIDTH 500 0
DWIDTH 16 0
BBX 16 13 0 0
BITMAP
3C00
0780
00F0
001C
00F0
0780
3C00
0000
3FFC
0000
0000
0000
0000
ENDCHAR
STARTCHAR U+f7f3
ENCODING 63475
SWIDTH 500 0
DWIDTH 16 0
BBX 16 13 0 0
BITMAP
003C
01E0
0F00
3800
0F00
01E0
003C
0000
3FFC
0000
0000
0000
0000
ENDCHAR
STARTCHAR U+f7f4
ENCODING 63476
SWIDTH 500 0
DWIDTH 16 0
BBX 16 14 0 0
BITMAP
03E0
0670
0C30
0C00
0C00
0C00
0600
0600
0300
0300
0380
0180
01C0
01C0
ENDCHAR
STARTCHAR U+f7f5
ENCODING 63477
SWIDTH 500 0
DWIDTH 16 0
BBX 16 16 0 0
BITMAP
01C0
01C0
00C0
00E0
0060
0060
0030
0030
0018
0018
0018
0618
0730
03E0
0000
0000
ENDCHAR
STARTCHAR U+f7f6
ENCODING 63478
SWIDTH 500 0
DWIDTH 16 0
BBX 16 14 0 0
BITMAP
0180
03C0
0180
0000
0000
3FFC
0000
0000
0180
03C0
0180
0000
0000
0000
ENDCHAR
STARTCHAR U+f7f7
ENCODING 63479
SWIDTH 500 0
DWIDTH 16 0
BBX 16 13 0 0
BITMAP
1C00
2200
4104
0088
1C70
2200
4104
0088
0070
0000
0000
0000
0000
ENDCHAR
STARTCHAR U+f7f8
ENCODING 63480
SWIDTH 500 0
DWIDTH 16 0
BBX 16 15 0 0
BITMAP
0700
0880
0880
0700
0000
0000
0000
0000
0000
0000
0000
0000
0000
0000
0000
ENDCHAR
STARTCHAR U+f7f9
ENCODING 63481
SWIDTH 500 0
DWIDTH 16 0
BBX 16 15 0 0
BITMAP
0700
0F80
0F80
0700
0000
0000
0000
0000
0000
0000
0000
0000
0000
0000
0000
ENDCHAR
STARTCHAR U+f7fa
ENCODING 63482
SWIDTH 500 0
DWIDTH 16 0
BBX 16 15 0 0
BITMAP
7FFE
4002
4002
4032
4032
4032
4432
4C32
5FF2
4C02
4402
4002
4002
7FFE
0000
ENDCHAR
STARTCHAR U+f7fb
ENCODING 63483
SWIDTH 500 0
DWIDTH 16 0
BBX 16 14 0 0
BITMAP
07FF
0600
0600
0600
0600
0600
0C00
0C00
0C00
6C00
3C00
1800
0800
0000
ENDCHAR
STARTCHAR U+f7fc
ENCODING 63484
SWIDTH 500 0
DWIDTH 16 0
BBX 16 16 0 0
BITMAP
1BC0
0E60
0C60
0C60
0C60
1EF0
0000
0000
0000
0000
0000
0000
0000
0000
0000
0000
ENDCHAR
STARTCHAR U+f7fd
ENCODING 63485
SWIDTH 500 0
DWIDTH 16 0
BBX 16 16 0 0
BITMAP
0780
0CC0
0180
0300
06C0
0FC0
0000
0000
0000
0000
0000
0000
0000
0000
0000
0000
ENDCHAR
STARTCHAR U+f7fe
ENCODING 63486
SWIDTH 500 0
DWIDTH 16 0
BBX 16 11 0 0
BITMAP
07E0
07E0
07E0
07E0
07E0
07E0
0000
0000
0000
0000
0000
ENDCHAR
STARTCHAR U+f7ff
ENCODING 63487
SWIDTH 500 0
DWIDTH 16 0
BBX 16 15 0 0
BITMAP
07E0
1818
2004
4C02
5802
9801
8001
8001
9801
4802
4402
2004
1818
07E0
0000
ENDCHAR
STARTCHAR U+266b
ENCODING 9835
SWIDTH 500 0
DWIDTH 16 0
BBX 16 15 0 0
BITMAP
0700
05C0
0470
0710
05D0
0470
0410
0410
0C10
1C10
3830
3070
00E0
00C0
0000
ENDCHAR
STARTCHAR U+221f
ENCODING 8735
SWIDTH 500 0
DWIDTH 16 0
BBX 16 11 0 0
BITMAP
C000
C000
C000
C000
C000
FFF8
0000
0000
0000
0000
0000
ENDCHAR
STARTCHAR U+21b5
ENCODING 8629
SWIDTH 500 0
DWIDTH 16 0
BBX 16 15 0 0
BITMAP
7FFE
4002
4002
4032
4032
4032
4432
4C32
5FF2
4C02
4402
4002
4002
7FFE
0000
ENDCHAR
STARTCHAR U+3001
ENCODING 12289
SWIDTH 500 0
DWIDTH 8 0
BBX 8 5 0 0
BITMAP
1000
0C00
0E00
0600
0000
ENDCHAR
STARTCHAR U+3002
ENCODING 12290
SWIDTH 500 0
DWIDTH 8 0
BBX 8 4 0 0
BITMAP
0C00
1200
0C00
0000
ENDCHAR
STARTCHAR U+2025
ENCODING 8229
SWIDTH 500 0
DWIDTH 16 0
BBX 16 9 0 0
BITMAP
0660
0660
0000
0000
0000
0000
0000
0000
0000
ENDCHAR
STARTCHAR U+2026
ENCODING 8230
SWIDTH 500 0
DWIDTH 16 0
BBX 16 9 0 0
BITMAP
1998
1998
0000
0000
0000
0000
0000
0000
0000
ENDCHAR
STARTCHAR U+00a8
ENCODING 168
SWIDTH 500 0
DWIDTH 16 0
BBX 16 14 0 0
BITMAP
0660
0660
0000
0000
0000
0000
0000
0000
0000
0000
0000
0000
0000
0000
ENDCHAR
STARTCHAR U+3003
ENCODING 12291
SWIDTH 500 0
DWIDTH 16 0
BBX 16 10 0 0
BITMAP
0330
0660
0CC0
0000
0000
0000
0000
0000
0000
0000
ENDCHAR
STARTCHAR U+00ad
ENCODING 173
SWIDTH 500 0
DWIDTH 16 0
BBX 16 9 0 0
BITMAP
0FF0
0000
0000
0000
0000
0000
0000
0000
0000
ENDCHAR
STARTCHAR U+2015
ENCODING 8213
SWIDTH 500 0
DWIDTH 16 0
BBX 16 9 0 0
BITMAP
3FFC
0000
0000
0000
0000
0000
0000
0000
0000
ENDCHAR
STARTCHAR U+2225
ENCODING 8741
SWIDTH 500 0
DWIDTH 16 0
BBX 16 14 0 0
BITMAP
0660
0660
0660
0660
0660
0660
0660
0660
0660
0660
0660
0660
0000
0000
ENDCHAR
STARTCHAR U+ff3c
ENCODING 65340
SWIDTH 500 0
DWIDTH 16 0
BBX 16 14 0 0
BITMAP
3000
1800
0C00
0600
0300
0180
00C0
0060
0030
0018
000C
0000
0000
0000
ENDCHAR
STARTCHAR U+223c
ENCODING 8764
SWIDTH 500 0
DWIDTH 16 0
BBX 16 10 0 0
BITMAP
1E00
330C
6198
00F0
0000
0000
0000
0000
0000
0000
ENDCHAR
STARTCHAR U+2018
ENCODING 8216
SWIDTH 500 0
DWIDTH 16 0
BBX 16 14 0 0
BITMAP
0080
0100
0380
0380
0100
0000
0000
0000
0000
0000
0000
0000
0000
0000
ENDCHAR
STARTCHAR U+2019
ENCODING 8217
SWIDTH 500 0
DWIDTH 16 0
BBX 16 14 0 0
BITMAP
0100
0380
0380
0100
0200
0000
0000
0000
0000
0000
0000
0000
0000
0000
ENDCHAR
STARTCHAR U+201c
ENCODING 8220
SWIDTH 500 0
DWIDTH 16 0
BBX 16 14 0 0
BITMAP
0210
0420
0E70
0E70
0420
0000
0000
0000
0000
0000
0000
0000
0000
0000
ENDCHAR
STARTCHAR U+201d
ENCODING 8221
SWIDTH 500 0
DWIDTH 16 0
BBX 16 14 0 0
BITMAP
0420
0E70
0E70
0420
0840
0000
0000
0000
0000
0000
0000
0000
0000
0000
ENDCHAR
STARTCHAR U+3014
ENCODING 12308
SWIDTH 500 0
DWIDTH 16 0
BBX 16 14 0 0
BITMAP
00C0
0300
0300
0300
0300
0300
0300
0300
0300
0300
00C0
0000
0000
0000
ENDCHAR
STARTCHAR U+3015
ENCODING 12309
SWIDTH 500 0
DWIDTH 16 0
BBX 16 14 0 0
BITMAP
0300
00C0
00C0
00C0
00C0
00C0
00C0
00C0
00C0
00C0
0300
0000
0000
0000
ENDCHAR
STARTCHAR U+3008
ENCODING 12296
SWIDTH 500 0
DWIDTH 16 0
BBX 16 14 0 0
BITMAP
00C0
0180
0300
0600
0C00
1800
0C00
0600
0300
0180
00C0
0000
0000
0000
ENDCHAR
STARTCHAR U+3009
ENCODING 12297
SWIDTH 500 0
DWIDTH 16 0
BBX 16 14 0 0
BITMAP
0300
0180
00C0
0060
0030
0018
0030
0060
00C0
0180
0300
0000
0000
0000
ENDCHAR
STARTCHAR U+300a
ENCODING 12298
SWIDTH 500 0
DWIDTH 16 0
BBX 16 14 0 0
BITMAP
0198
0330
0660
0CC0
1980
3300
1980
0CC0
0660
0330
0198
0000
0000
0000
ENDCHAR
STARTCHAR U+300b
ENCODING 12299
SWIDTH 500 0
DWIDTH 16 0
BBX 16 14 0 0
BITMAP
3300
1980
0CC0
0660
0330
0198
0330
0660
0CC0
1980
3300
0000
0000
0000
ENDCHAR
STARTCHAR U+300c
ENCODING 12300
SWIDTH 500 0
DWIDTH 16 0
BBX 16 14 0 0
BITMAP
03F0
0300
0300
0300
0300
0300
0000
0000
0000
0000
0000
0000
0000
0000
ENDCHAR
STARTCHAR U+300d
ENCODING 12301
SWIDTH 500 0
DWIDTH 16 0
BBX 16 9 0 0
BITMAP
00C0
00C0
00C0
00C0
00C0
0FC0
0000
0000
0000
ENDCHAR
STARTCHAR U+300e
ENCODING 12302
SWIDTH 500 0
DWIDTH 16 0
BBX 16 14 0 0
BITMAP
07E0
0420
05E0
0500
0500
0700
0000
0000
0000
0000
0000
0000
0000
0000
ENDCHAR
STARTCHAR U+300f
ENCODING 12303
SWIDTH 500 0
DWIDTH 16 0
BBX 16 9 0 0
BITMAP
00E0
00A0
00A0
07A0
0420
07E0
0000
0000
0000
ENDCHAR
STARTCHAR U+3010
ENCODING 12304
SWIDTH 500 0
DWIDTH 16 0
BBX 16 14 0 0
BITMAP
03F0
03C0
0380
0300
0300
0300
0300
0300
0380
03C0
03F0
0000
0000
0000
ENDCHAR
STARTCHAR U+3011
ENCODING 12305
SWIDTH 500 0
DWIDTH 16 0
BBX 16 14 0 0
BITMAP
0FC0
03C0
01C0
00C0
00C0
00C0
00C0
00C0
01C0
03C0
0FC0
0000
0000
0000
ENDCHAR
STARTCHAR U+00d7
ENCODING 215
SWIDTH 500 0
DWIDTH 16 0
BBX 16 13 0 0
BITMAP
1818
0C30
0660
03C0
0180
03C0
0660
0C30
1818
0000
0000
0000
0000
ENDCHAR
STARTCHAR U+2260
ENCODING 8800
SWIDTH 500 0
DWIDTH 16 0
BBX 16 13 0 0
BITMAP
1000
0800
0400
3FFC
0100
3FFC
0040
0020
0010
0000
0000
0000
0000
ENDCHAR
STARTCHAR U+2234
ENCODING 8756
SWIDTH 500 0
DWIDTH 16 0
BBX 16 11 0 0
BITMAP
0180
0180
0000
0000
0000
1818
1818
0000
0000
0000
0000
ENDCHAR
STARTCHAR U+2032
ENCODING 8242
SWIDTH 500 0
DWIDTH 8 0
BBX 8 13 0 0
BITMAP
0C00
1800
3000
0000
0000
0000
0000
0000
0000
0000
0000
0000
0000
ENDCHAR
STARTCHAR U+2033
ENCODING 8243
SWIDTH 500 0
DWIDTH 16 0
BBX 16 13 0 0
BITMAP
0CC0
1980
3300
0000
0000
0000
0000
0000
0000
0000
0000
0000
0000
ENDCHAR
STARTCHAR U+2103
ENCODING 8451
SWIDTH 500 0
DWIDTH 16 0
BBX 16 15 0 0
BITMAP
3000
49F0
3318
060C
0600
0600
0600
0600
0600
060C
0318
01F0
0000
0000
0000
ENDCHAR
STARTCHAR U+212b
ENCODING 8491
SWIDTH 500 0
DWIDTH 16 0
BBX 16 15 0 0
BITMAP
0380
0440
0380
0100
0380
06C0
0C60
1830
1FF0
1830
1830
1830
0000
0000
0000
ENDCHAR
STARTCHAR U+ffe0
ENCODING 65504
SWIDTH 500 0
DWIDTH 16 0
BBX 16 13 0 0
BITMAP
000C
0018
03F0
0C78
18D8
1980
1B00
1E00
0C18
1BE0
3000
0000
0000
ENDCHAR
STARTCHAR U+ffe1
ENCODING 65505
SWIDTH 500 0
DWIDTH 16 0
BBX 16 14 0 0
BITMAP
01F0
0318
0618
0600
3FE0
0600
0600
3E00
6E02
6DC6
387C
0000
0000
0000
ENDCHAR
STARTCHAR U+ffe5
ENCODING 65509
SWIDTH 500 0
DWIDTH 16 0
BBX 16 14 0 0
BITMAP
3C3C
0C30
0660
03C0
1FF8
0180
1FF8
0180
0180
0180
03C0
0000
0000
0000
ENDCHAR
STARTCHAR U+2220
ENCODING 8736
SWIDTH 500 0
DWIDTH 16 0
BBX 16 12 0 0
BITMAP
0020
0040
0080
0100
0200
0400
0800
1FF8
0000
0000
0000
0000
ENDCHAR
STARTCHAR U+22a5
ENCODING 8869
SWIDTH 500 0
DWIDTH 16 0
BBX 16 12 0 0
BITMAP
0100
0100
0100
0100
0100
0100
0100
3FF8
0000
0000
0000
0000
ENDCHAR
STARTCHAR U+2312
ENCODING 8978
SWIDTH 500 0
DWIDTH 16 0
BBX 16 9 0 0
BITMAP
03C0
0C30
1008
0000
0000
0000
0000
0000
0000
ENDCHAR
STARTCHAR U+2202
ENCODING 8706
SWIDTH 500 0
DWIDTH 16 0
BBX 16 13 0 0
BITMAP
03C0
0460
0830
0030
01F0
0630
0C30
0C30
0C60
0780
0000
0000
0000
ENDCHAR
STARTCHAR U+2207
ENCODING 8711
SWIDTH 500 0
DWIDTH 16 0
BBX 16 11 0 0
BITMAP
3FFE
1004
0808
0410
0220
0140
0080
0000
0000
0000
0000
ENDCHAR
STARTCHAR U+2252
ENCODING 8786
SWIDTH 500 0
DWIDTH 16 0
BBX 16 13 0 0
BITMAP
1800
1800
0000
3FFC
0000
3FFC
0000
0018
0018
0000
0000
0000
0000
ENDCHAR
STARTCHAR U+203b
ENCODING 8251
SWIDTH 500 0
DWIDTH 16 0
BBX 16 13 0 0
BITMAP
1188
0990
0420
0240
1998
1998
0240
0420
0990
1188
0000
0000
0000
ENDCHAR
STARTCHAR U+2606
ENCODING 9734
SWIDTH 500 0
DWIDTH 16 0
BBX 16 15 0 0
BITMAP
0100
0100
0380
0280
0440
FC7E
2008
1830
0820
1390
16D0
3838
2008
0000
0000
ENDCHAR
STARTCHAR U+2605
ENCODING 9733
SWIDTH 500 0
DWIDTH 16 0
BBX 16 15 0 0
BITMAP
0100
0100
0380
0380
07C0
FFFE
3FF8
1FF0
0FE0
1FF0
1EF0
3838
2008
0000
0000
ENDCHAR
STARTCHAR U+25cf
ENCODING 9679
SWIDTH 500 0
DWIDTH 16 0
BBX 16 16 0 0
BITMAP
07C0
1FF0
33F8
67FC
4FFC
CFFE
DFFE
FFFE
CFFE
CFFE
7FFC
7FFC
3FF8
1FF0
07C0
0000
ENDCHAR
STARTCHAR U+25ce
ENCODING 9678
SWIDTH 500 0
DWIDTH 16 0
BBX 16 13 0 0
BITMAP
07C0
1830
2388
4824
5014
5014
4824
2388
1830
07C0
0000
0000
0000
ENDCHAR
STARTCHAR U+25c6
ENCODING 9670
SWIDTH 500 0
DWIDTH 16 0
BBX 16 15 0 0
BITMAP
0100
0380
07C0
0FE0
1FF0
3FF8
7FFC
3FF8
1FF0
0FE0
07C0
0380
0100
0000
0000
ENDCHAR
STARTCHAR U+25a0
ENCODING 9632
SWIDTH 500 0
DWIDTH 16 0
BBX 16 13 0 0
BITMAP
3FFC
3FFC
3FFC
3FFC
3FFC
3FFC
3FFC
3FFC
3FFC
3FFC
0000
0000
0000
ENDCHAR
STARTCHAR U+25b3
ENCODING 9651
SWIDTH 500 0
DWIDTH 16 0
BBX 16 11 0 0
BITMAP
0100
0280
0440
0820
1010
2008
7FFC
0000
0000
0000
0000
ENDCHAR
STARTCHAR U+25bd
ENCODING 9661
SWIDTH 500 0
DWIDTH 16 0
BBX 16 11 0 0
BITMAP
7FFC
2008
1010
0820
0440
0280
0100
0000
0000
0000
0000
ENDCHAR
STARTCHAR U+3013
ENCODING 12307
SWIDTH 500 0
DWIDTH 16 0
BBX 16 10 0 0
BITMAP
1FF8
0000
1FF8
0000
0000
0000
0000
0000
0000
0000
ENDCHAR
STARTCHAR U+226a
ENCODING 8810
SWIDTH 500 0
DWIDTH 16 0
BBX 16 12 0 0
BITMAP
018C
0630
18C0
6300
18C0
0630
018C
0000
0000
0000
0000
0000
ENDCHAR
STARTCHAR U+226b
ENCODING 8811
SWIDTH 500 0
DWIDTH 16 0
BBX 16 12 0 0
BITMAP
6300
18C0
0630
018C
0630
18C0
6300
0000
0000
0000
0000
0000
ENDCHAR
STARTCHAR U+223d
ENCODING 8765
SWIDTH 500 0
DWIDTH 16 0
BBX 16 11 0 0
BITMAP
1870
2088
4104
4104
4104
2208
1C30
0000
0000
0000
0000
ENDCHAR
STARTCHAR U+221d
ENCODING 8733
SWIDTH 500 0
DWIDTH 16 0
BBX 16 11 0 0
BITMAP
1C70
2288
4100
4100
4100
2288
1C70
0000
0000
0000
0000
ENDCHAR
STARTCHAR U+2235
ENCODING 8757
SWIDTH 500 0
DWIDTH 16 0
BBX 16 12 0 0
BITMAP
0C30
0C30
0000
0000
0000
0000
0180
0180
0000
0000
0000
0000
ENDCHAR
STARTCHAR U+222b
ENCODING 8747
SWIDTH 500 0
DWIDTH 16 0
BBX 16 14 0 0
BITMAP
00F0
0198
0198
0180
0180
0180
0180
0180
0180
1980
1980
0F00
0000
0000
ENDCHAR
STARTCHAR U+222c
ENCODING 8748
SWIDTH 500 0
DWIDTH 16 0
BBX 16 14 0 0
BITMAP
03BC
0666
0666
0660
0660
0660
0660
0660
0660
6660
6660
3DC0
0000
0000
ENDCHAR
STARTCHAR U+220b
ENCODING 8715
SWIDTH 500 0
DWIDTH 16 0
BBX 16 11 0 0
BITMAP
1FC0
0030
0008
1FF8
0008
0030
1FC0
0000
0000
0000
0000
ENDCHAR
STARTCHAR U+2286
ENCODING 8838
SWIDTH 500 0
DWIDTH 16 0
BBX 16 12 0 0
BITMAP
03F8
0C00
1000
1000
0C00
03F8
0000
1FF8
0000
0000
0000
0000
ENDCHAR
STARTCHAR U+2287
ENCODING 8839
SWIDTH 500 0
DWIDTH 16 0
BBX 16 12 0 0
BITMAP
1FC0
0030
0008
0008
0030
1FC0
0000
1FF8
0000
0000
0000
0000
ENDCHAR
STARTCHAR U+2282
ENCODING 8834
SWIDTH 500 0
DWIDTH 16 0
BBX 16 12 0 0
BITMAP
03F8
0C00
1000
1000
1000
1000
0C00
03F8
0000
0000
0000
0000
ENDCHAR
STARTCHAR U+2283
ENCODING 8835
SWIDTH 500 0
DWIDTH 16 0
BBX 16 12 0 0
BITMAP
1FC0
0030
0008
0008
0008
0008
0030
1FC0
0000
0000
0000
0000
ENDCHAR
STARTCHAR U+222a
ENCODING 8746
SWIDTH 500 0
DWIDTH 16 0
BBX 16 12 0 0
BITMAP
2008
2008
2008
2008
2008
2008
1830
07C0
0000
0000
0000
0000
ENDCHAR
STARTCHAR U+2227
ENCODING 8743
SWIDTH 500 0
DWIDTH 16 0
BBX 16 11 0 0
BITMAP
0100
0280
0440
0820
1010
2008
4004
0000
0000
0000
0000
ENDCHAR
STARTCHAR U+2228
ENCODING 8744
SWIDTH 500 0
DWIDTH 16 0
BBX 16 11 0 0
BITMAP
2002
1004
0808
0410
0220
0140
0080
0000
0000
0000
0000
ENDCHAR
STARTCHAR U+ffe2
ENCODING 65506
SWIDTH 500 0
DWIDTH 16 0
BBX 16 10 0 0
BITMAP
3FF8
0008
0008
0008
0000
0000
0000
0000
0000
0000
ENDCHAR
STARTCHAR U+21d2
ENCODING 8658
SWIDTH 500 0
DWIDTH 16 0
BBX 16 14 0 0
BITMAP
0080
0040
0020
3FF0
0008
0004
0008
3FF0
0020
0040
0080
0000
0000
0000
ENDCHAR
STARTCHAR U+21d4
ENCODING 8660
SWIDTH 500 0
DWIDTH 16 0
BBX 16 13 0 0
BITMAP
0420
0810
1FF8
2004
4002
2004
1FF8
0810
0420
0000
0000
0000
0000
ENDCHAR
STARTCHAR U+2200
ENCODING 8704
SWIDTH 500 0
DWIDTH 16 0
BBX 16 13 0 0
BITMAP
3C1C
0C08
0C08
07F0
0610
0320
0320
01C0
01C0
0080
0000
0000
0000
ENDCHAR
STARTCHAR U+2203
ENCODING 8707
SWIDTH 500 0
DWIDTH 16 0
BBX 16 13 0 0
BITMAP
1FF0
0030
0030
0030
0FF0
0030
0030
0030
0030
1FF0
0000
0000
0000
ENDCHAR
STARTCHAR U+00b4
ENCODING 180
SWIDTH 500 0
DWIDTH 8 0
BBX 8 13 0 0
BITMAP
0C00
1800
3000
0000
0000
0000
0000
0000
0000
0000
0000
0000
0000
ENDCHAR
STARTCHAR U+ff5e
ENCODING 65374
SWIDTH 500 0
DWIDTH 16 0
BBX 16 14 0 0
BITMAP
1C00
3618
6330
01E0
0000
0000
0000
0000
0000
0000
0000
0000
0000
0000
ENDCHAR
STARTCHAR U+02c7
ENCODING 711
SWIDTH 500 0
DWIDTH 16 0
BBX 16 13 0 0
BITMAP
0880
0500
0200
0000
0000
0000
0000
0000
0000
0000
0000
0000
0000
ENDCHAR
STARTCHAR U+02d8
ENCODING 728
SWIDTH 500 0
DWIDTH 16 0
BBX 16 13 0 0
BITMAP
0880
0700
0000
0000
0000
0000
0000
0000
0000
0000
0000
0000
0000
ENDCHAR
STARTCHAR U+02dd
ENCODING 733
SWIDTH 500 0
DWIDTH 16 0
BBX 16 13 0 0
BITMAP
0CC0
1980
3300
0000
0000
0000
0000
0000
0000
0000
0000
0000
0000
ENDCHAR
STARTCHAR U+02da
ENCODING 730
SWIDTH 500 0
DWIDTH 16 0
BBX 16 14 0 0
BITMAP
0180
0240
0180
0000
0000
0000
0000
0000
0000
0000
0000
0000
0000
0000
ENDCHAR
STARTCHAR U+02d9
ENCODING 729
SWIDTH 500 0
DWIDTH 16 0
BBX 16 14 0 0
BITMAP
0180
03C0
0180
0000
0000
0000
0000
0000
0000
0000
0000
0000
0000
0000
ENDCHAR
STARTCHAR U+00b8
ENCODING 184
SWIDTH 500 0
DWIDTH 16 0
BBX 16 6 0 0
BITMAP
0100
0080
0100
0000
0000
0000
ENDCHAR
STARTCHAR U+02db
ENCODING 731
SWIDTH 500 0
DWIDTH 8 0
BBX 8 6 0 0
BITMAP
0100
0200
0100
0000
0000
0000
ENDCHAR
STARTCHAR U+02d0
ENCODING 720
SWIDTH 500 0
DWIDTH 16 0
BBX 16 12 0 0
BITMAP
07C0
0380
0100
0000
0000
0100
0380
07C0
0000
0000
0000
0000
ENDCHAR
STARTCHAR U+222e
ENCODING 8750
SWIDTH 500 0
DWIDTH 16 0
BBX 16 14 0 0
BITMAP
00F0
0198
0198
0180
07E0
0DB0
0DB0
07E0
0180
1980
1980
0F00
0000
0000
ENDCHAR
STARTCHAR U+2211
ENCODING 8721
SWIDTH 500 0
DWIDTH 16 0
BBX 16 14 0 0
BITMAP
3FF8
1818
0C08
0600
0300
0180
0300
0600
0C08
1818
3FF8
0000
0000
0000
ENDCHAR
STARTCHAR U+220f
ENCODING 8719
SWIDTH 500 0
DWIDTH 16 0
BBX 16 14 0 0
BITMAP
3FFC
0C30
0C30
0C30
0C30
0C30
0C30
0C30
0C30
0C30
1E78
0000
0000
0000
ENDCHAR
STARTCHAR U+00a4
ENCODING 164
SWIDTH 500 0
DWIDTH 16 0
BBX 16 13 0 0
BITMAP
2008
17D0
0820
1010
1010
1010
0820
17D0
2008
0000
0000
0000
0000
ENDCHAR
STARTCHAR U+2109
ENCODING 8457
SWIDTH 500 0
DWIDTH 16 0
BBX 16 15 0 0
BITMAP
3000
4800
3000
0FFC
060C
0600
0620
07E0
0620
0600
0600
0F00
0000
0000
0000
ENDCHAR
STARTCHAR U+2030
ENCODING 8240
SWIDTH 500 0
DWIDTH 16 0
BBX 16 14 0 0
BITMAP
1820
2440
4480
4900
3200
0400
0986
1249
2451
4492
830C
0000
0000
0000
ENDCHAR
STARTCHAR U+25c1
ENCODING 9665
SWIDTH 500 0
DWIDTH 16 0
BBX 16 14 0 0
BITMAP
0008
0038
00C8
0308
0C08
3008
0C08
0308
00C8
0038
0008
0000
0000
0000
ENDCHAR
STARTCHAR U+25b7
ENCODING 9655
SWIDTH 500 0
DWIDTH 16 0
BBX 16 14 0 0
BITMAP
1000
1C00
1300
10C0
1030
100C
1030
10C0
1300
1C00
1000
0000
0000
0000
ENDCHAR
STARTCHAR U+2664
ENCODING 9828
SWIDTH 500 0
DWIDTH 16 0
BBX 16 14 0 0
BITMAP
0100
0280
0440
0820
1010
2008
4004
4384
3D78
0100
0100
0380
0000
0000
ENDCHAR
STARTCHAR U+2661
ENCODING 9825
SWIDTH 500 0
DWIDTH 16 0
BBX 16 14 0 0
BITMAP
1C70
2288
4104
4004
4004
4004
2008
1010
0820
0440
0280
0100
0000
0000
ENDCHAR
STARTCHAR U+2667
ENCODING 9831
SWIDTH 500 0
DWIDTH 16 0
BBX 16 14 0 0
BITMAP
03C0
0420
0420
0240
3DBC
43C2
4182
43C2
3DBC
0180
0180
03C0
0000
0000
ENDCHAR
STARTCHAR U+2299
ENCODING 8857
SWIDTH 500 0
DWIDTH 16 0
BBX 16 13 0 0
BITMAP
03E0
0C18
11C4
23E2
27F2
27F2
23E2
11C4
0C18
03E0
0000
0000
0000
ENDCHAR
STARTCHAR U+25c8
ENCODING 9672
SWIDTH 500 0
DWIDTH 16 0
BBX 16 15 0 0
BITMAP
0100
0280
0440
0920
1390
27C8
4FE4
27C8
1390
0920
0440
0280
0100
0000
0000
ENDCHAR
STARTCHAR U+25a3
ENCODING 9635
SWIDTH 500 0
DWIDTH 16 0
BBX 16 13 0 0
BITMAP
3FFC
2004
27E4
27E4
27E4
27E4
27E4
27E4
2004
3FFC
0000
0000
0000
ENDCHAR
STARTCHAR U+25d0
ENCODING 9680
SWIDTH 500 0
DWIDTH 16 0
BBX 16 13 0 0
BITMAP
03E0
0F98
1F84
3F82
3F82
3F82
3F82
1F84
0F98
03E0
0000
0000
0000
ENDCHAR
STARTCHAR U+25d1
ENCODING 9681
SWIDTH 500 0
DWIDTH 16 0
BBX 16 13 0 0
BITMAP
03E0
0CF8
10FC
20FE
20FE
20FE
20FE
10FC
0CF8
03E0
0000
0000
0000
ENDCHAR
STARTCHAR U+25a4
ENCODING 9636
SWIDTH 500 0
DWIDTH 16 0
BBX 16 15 0 0
BITMAP
FFFF
0000
FFFF
0000
FFFF
0000
FFFF
0000
FFFF
0000
FFFF
0000
FFFF
0000
FFFF
ENDCHAR
STARTCHAR U+25a5
ENCODING 9637
SWIDTH 500 0
DWIDTH 16 0
BBX 16 16 0 0
BITMAP
AAAA
AAAA
AAAA
AAAA
AAAA
AAAA
AAAA
AAAA
AAAA
AAAA
AAAA
AAAA
AAAA
AAAA
AAAA
AAAA
ENDCHAR
STARTCHAR U+25a8
ENCODING 9640
SWIDTH 500 0
DWIDTH 16 0
BBX 16 16 0 0
BITMAP
1111
2222
4444
8888
1111
2222
4444
8888
1111
2222
4444
8888
1111
2222
4444
8888
ENDCHAR
STARTCHAR U+25a7
ENCODING 9639
SWIDTH 500 0
DWIDTH 16 0
BBX 16 16 0 0
BITMAP
8888
4444
2222
1111
8888
4444
2222
1111
8888
4444
2222
1111
8888
4444
2222
1111
ENDCHAR
STARTCHAR U+25a9
ENCODING 9641
SWIDTH 500 0
DWIDTH 16 0
BBX 16 16 0 0
BITMAP
9999
6666
6666
9999
9999
6666
6666
9999
9999
6666
6666
9999
9999
6666
6666
9999
ENDCHAR
STARTCHAR U+2668
ENCODING 9832
SWIDTH 500 0
DWIDTH 16 0
BBX 16 12 0 0
BITMAP
02A0
0540
0540
02A0
22A4
4542
4002
300C
0FF0
0000
0000
0000
ENDCHAR
STARTCHAR U+260f
ENCODING 9743
SWIDTH 500 0
DWIDTH 16 0
BBX 16 14 0 0
BITMAP
1FF0
600C
8C62
FBBE
0820
1830
27C8
4FE4
8542
8FE2
701C
0000
0000
0000
ENDCHAR
STARTCHAR U+260e
ENCODING 9742
SWIDTH 500 0
DWIDTH 16 0
BBX 16 14 0 0
BITMAP
1FF0
7FFC
F45E
F7DE
07C0
1FF0
3838
701C
FABE
FFFE
701C
0000
0000
0000
ENDCHAR
STARTCHAR U+261c
ENCODING 9756
SWIDTH 500 0
DWIDTH 16 0
BBX 16 14 0 0
BITMAP
0007
3FFD
4005
3FC5
0405
03C5
0205
01C5
0105
00FD
0007
0000
0000
0000
ENDCHAR
STARTCHAR U+261e
ENCODING 9758
SWIDTH 500 0
DWIDTH 16 0
BBX 16 14 0 0
BITMAP
E000
BFFC
A002
A3FC
A020
A3C0
A040
A380
A080
BF00
E000
0000
0000
0000
ENDCHAR
STARTCHAR U+2020
ENCODING 8224
SWIDTH 500 0
DWIDTH 16 0
BBX 16 14 0 0
BITMAP
0200
0200
0200
3FE0
0200
0200
0200
0200
0200
0200
0200
0000
0000
0000
ENDCHAR
STARTCHAR U+2021
ENCODING 8225
SWIDTH 500 0
DWIDTH 16 0
BBX 16 14 0 0
BITMAP
0200
0200
1FC0
0200
1FC0
0200
0200
0200
0200
0200
0200
0000
0000
0000
ENDCHAR
STARTCHAR U+2197
ENCODING 8599
SWIDTH 500 0
DWIDTH 16 0
BBX 16 14 0 0
BITMAP
00E0
0060
00A0
0100
0200
0400
0800
1000
2000
4000
8000
0000
0000
0000
ENDCHAR
STARTCHAR U+2199
ENCODING 8601
SWIDTH 500 0
DWIDTH 16 0
BBX 16 14 0 0
BITMAP
0020
0040
0080
0100
0200
0400
0800
1000
A000
C000
E000
0000
0000
0000
ENDCHAR
STARTCHAR U+2196
ENCODING 8598
SWIDTH 500 0
DWIDTH 16 0
BBX 16 14 0 0
BITMAP
E000
C000
A000
1000
0800
0400
0200
0100
0080
0040
0020
0000
0000
0000
ENDCHAR
STARTCHAR U+2198
ENCODING 8600
SWIDTH 500 0
DWIDTH 16 0
BBX 16 14 0 0
BITMAP
8000
4000
2000
1000
0800
0400
0200
0100
00A0
0060
00E0
0000
0000
0000
ENDCHAR
STARTCHAR U+266d
ENCODING 9837
SWIDTH 500 0
DWIDTH 16 0
BBX 16 14 0 0
BITMAP
0400
0400
0400
0400
0470
0588
0608
0410
0460
0580
0600
0000
0000
0000
ENDCHAR
STARTCHAR U+2669
ENCODING 9833
SWIDTH 500 0
DWIDTH 16 0
BBX 16 14 0 0
BITMAP
0080
0080
0080
0080
0080
0080
0080
0180
0780
0F00
0C00
0000
0000
0000
ENDCHAR
STARTCHAR U+327f
ENCODING 12927
SWIDTH 500 0
DWIDTH 16 0
BBX 16 14 0 0
BITMAP
0FF0
300C
6636
4662
C6C3
C780
F78F
06C3
C662
6636
300C
0FF0
0000
0000
ENDCHAR
STARTCHAR U+321c
ENCODING 12828
SWIDTH 500 0
DWIDTH 16 0
BBX 16 14 0 0
BITMAP
300C
67E6
C183
C363
CC33
C003
DFFB
C183
C183
6186
310C
0000
0000
0000
ENDCHAR
STARTCHAR U+2116
ENCODING 8470
SWIDTH 500 0
DWIDTH 16 0
BBX 16 13 0 0
BITMAP
6180
3100
3100
2900
2900
2530
2548
2348
2348
6132
0000
0000
0000
ENDCHAR
STARTCHAR U+33c7
ENCODING 13255
SWIDTH 500 0
DWIDTH 16 0
BBX 16 13 0 0
BITMAP
0E80
1180
2080
2000
2000
2030
2048
2048
1148
0E32
0000
0000
0000
ENDCHAR
STARTCHAR U+2122
ENCODING 8482
SWIDTH 500 0
DWIDTH 16 0
BBX 16 13 0 0
BITMAP
7F44
496C
086C
0854
0854
0844
0844
0844
0844
1C45
0000
0000
0000
ENDCHAR
STARTCHAR U+33c2
ENCODING 13250
SWIDTH 500 0
DWIDTH 16 0
BBX 16 10 0 0
BITMAP
73D8
8924
0924
7924
8924
8924
7B25
0000
0000
0000
ENDCHAR
STARTCHAR U+33d8
ENCODING 13272
SWIDTH 500 0
DWIDTH 16 0
BBX 16 10 0 0
BITMAP
FBD8
8524
8524
F924
8124
8124
8925
0000
0000
0000
ENDCHAR
STARTCHAR U+2121
ENCODING 8481
SWIDTH 500 0
DWIDTH 16 0
BBX 16 13 0 0
BITMAP
FE00
9200
1018
1008
1008
1188
1248
13C8
1208
39DD
0000
0000
0000
ENDCHAR
STARTCHAR U+ff01
ENCODING 65281
SWIDTH 500 0
DWIDTH 16 0
BBX 16 14 0 0
BITMAP
0180
03C0
03C0
03C0
0180
0180
0180
0180
0000
0180
0180
0000
0000
0000
ENDCHAR
STARTCHAR U+ff02
ENCODING 65282
SWIDTH 500 0
DWIDTH 16 0
BBX 16 14 0 0
BITMAP
1CE0
1CE0
0C60
18C0
0000
0000
0000
0000
0000
0000
0000
0000
0000
0000
ENDCHAR
STARTCHAR U+ff03
ENCODING 65283
SWIDTH 500 0
DWIDTH 16 0
BBX 16 14 0 0
BITMAP
0C60
0C60
0C60
3FF8
0C60
0C60
0C60
3FF8
0C60
0C60
0C60
0000
0000
0000
ENDCHAR
STARTCHAR U+ff04
ENCODING 65284
SWIDTH 500 0
DWIDTH 16 0
BBX 16 16 0 0
BITMAP
0180
0180
07E0
0DB0
1998
1980
0D80
07E0
01B0
0198
1998
0DB0
07E0
0180
0180
0000
ENDCHAR
STARTCHAR U+ff05
ENCODING 65285
SWIDTH 500 0
DWIDTH 16 0
BBX 16 13 0 0
BITMAP
1C18
3630
3660
1CC0
0180
0300
0670
0CD8
18D8
3070
0000
0000
0000
ENDCHAR
STARTCHAR U+ff06
ENCODING 65286
SWIDTH 500 0
DWIDTH 16 0
BBX 16 14 0 0
BITMAP
0380
06C0
06C0
06C0
0380
0700
0D98
19B0
18E0
18EC
0FB8
0000
0000
0000
ENDCHAR
STARTCHAR U+ff07
ENCODING 65287
SWIDTH 500 0
DWIDTH 16 0
BBX 16 14 0 0
BITMAP
01C0
01C0
00C0
0180
0000
0000
0000
0000
0000
0000
0000
0000
0000
0000
ENDCHAR
STARTCHAR U+ff08
ENCODING 65288
SWIDTH 500 0
DWIDTH 16 0
BBX 16 14 0 0
BITMAP
00C0
0300
0600
0400
0C00
0C00
0C00
0400
0600
0300
00C0
0000
0000
0000
ENDCHAR
STARTCHAR U+ff09
ENCODING 65289
SWIDTH 500 0
DWIDTH 16 0
BBX 16 14 0 0
BITMAP
0300
00C0
0060
0020
0030
0030
0030
0020
0060
00C0
0300
0000
0000
0000
ENDCHAR
STARTCHAR U+ff0a
ENCODING 65290
SWIDTH 500 0
DWIDTH 16 0
BBX 16 12 0 0
BITMAP
0420
0660
03C0
1FF8
03C0
0660
0420
0000
0000
0000
0000
0000
ENDCHAR
STARTCHAR U+ff0b
ENCODING 65291
SWIDTH 500 0
DWIDTH 16 0
BBX 16 13 0 0
BITMAP
0180
0180
0180
0180
1FF8
0180
0180
0180
0180
0000
0000
0000
0000
ENDCHAR
STARTCHAR U+ff0c
ENCODING 65292
SWIDTH 500 0
DWIDTH 16 0
BBX 16 5 0 0
BITMAP
0380
0380
0180
0300
0000
ENDCHAR
STARTCHAR U+ff0d
ENCODING 65293
SWIDTH 500 0
DWIDTH 16 0
BBX 16 9 0 0
BITMAP
3FFC
0000
0000
0000
0000
0000
0000
0000
0000
ENDCHAR
STARTCHAR U+ff0e
ENCODING 65294
SWIDTH 500 0
DWIDTH 16 0
BBX 16 5 0 0
BITMAP
01C0
01C0
0000
0000
0000
ENDCHAR
STARTCHAR U+ff0f
ENCODING 65295
SWIDTH 500 0
DWIDTH 16 0
BBX 16 14 0 0
BITMAP
000C
0018
0030
0060
00C0
0180
0300
0600
0C00
1800
3000
0000
0000
0000
ENDCHAR
STARTCHAR U+ff10
ENCODING 65296
SWIDTH 500 0
DWIDTH 16 0
BBX 16 15 0 0
BITMAP
03C0
0E70
1838
1068
30CC
30CC
318C
318C
330C
330C
1608
1C18
0E70
03C0
0000
ENDCHAR
STARTCHAR U+ff11
ENCODING 65297
SWIDTH 500 0
DWIDTH 16 0
BBX 16 15 0 0
BITMAP
0180
0380
0780
0180
0180
0180
0180
0180
0180
0180
0180
0180
03C0
07E0
0000
ENDCHAR
STARTCHAR U+ff12
ENCODING 65298
SWIDTH 500 0
DWIDTH 16 0
BBX 16 15 0 0
BITMAP
03C0
0E70
0818
1818
1818
0018
0030
00C0
0180
0300
0600
0C08
1818
1FF8
0000
ENDCHAR
STARTCHAR U+ff13
ENCODING 65299
SWIDTH 500 0
DWIDTH 16 0
BBX 16 15 0 0
BITMAP
03E0
0E30
1818
1818
0018
0070
01E0
0018
000C
000C
180C
1808
0E38
03E0
0000
ENDCHAR
STARTCHAR U+ff14
ENCODING 65300
SWIDTH 500 0
DWIDTH 16 0
BBX 16 15 0 0
BITMAP
0020
0060
00E0
01E0
0360
0660
0C60
1860
3060
6060
7FFC
0060
0060
01F8
0000
ENDCHAR
STARTCHAR U+ff15
ENCODING 65301
SWIDTH 500 0
DWIDTH 16 0
BBX 16 15 0 0
BITMAP
0FF8
0C18
0C08
0C00
0C00
0FE0
0E38
080C
000C
000C
180C
180C
0E38
03E0
0000
ENDCHAR
STARTCHAR U+ff16
ENCODING 65302
SWIDTH 500 0
DWIDTH 16 0
BBX 16 15 0 0
BITMAP
01E0
0638
0C18
0800
1800
1800
1BF0
1C18
180C
180C
180C
0C0C
0E18
03E0
0000
ENDCHAR
STARTCHAR U+ff17
ENCODING 65303
SWIDTH 500 0
DWIDTH 16 0
BBX 16 15 0 0
BITMAP
1FFC
180C
1018
0018
0030
0060
0060
00C0
00C0
0180
0180
0180
0180
0180
0000
ENDCHAR
STARTCHAR U+ff18
ENCODING 65304
SWIDTH 500 0
DWIDTH 16 0
BBX 16 15 0 0
BITMAP
03C0
0C30
1818
1818
1818
0C30
07E0
0C30
1818
300C
300C
300C
1818
07E0
0000
ENDCHAR
STARTCHAR U+ff19
ENCODING 65305
SWIDTH 500 0
DWIDTH 16 0
BBX 16 15 0 0
BITMAP
03E0
0C30
1818
180C
180C
180C
181C
0C3C
03CC
000C
1818
1818
0E70
03C0
0000
ENDCHAR
STARTCHAR U+ff1a
ENCODING 65306
SWIDTH 500 0
DWIDTH 16 0
BBX 16 12 0 0
BITMAP
0380
0380
0000
0000
0000
0380
0380
0000
0000
0000
0000
0000
ENDCHAR
STARTCHAR U+ff1b
ENCODING 65307
SWIDTH 500 0
DWIDTH 16 0
BBX 16 12 0 0
BITMAP
0380
0380
0000
0000
0000
0380
0380
0180
0300
0000
0000
0000
ENDCHAR
STARTCHAR U+ff1c
ENCODING 65308
SWIDTH 500 0
DWIDTH 16 0
BBX 16 14 0 0
BITMAP
00C0
0180
0300
0600
0C00
1800
0C00
0600
0300
0180
00C0
0000
0000
0000
ENDCHAR
STARTCHAR U+ff1d
ENCODING 65309
SWIDTH 500 0
DWIDTH 16 0
BBX 16 11 0 0
BITMAP
1FF0
0000
0000
0000
1FF0
0000
0000
0000
0000
0000
0000
ENDCHAR
STARTCHAR U+ff1e
ENCODING 65310
SWIDTH 500 0
DWIDTH 16 0
BBX 16 14 0 0
BITMAP
0300
0180
00C0
0060
0030
0018
0030
0060
00C0
0180
0300
0000
0000
0000
ENDCHAR
STARTCHAR U+ff1f
ENCODING 65311
SWIDTH 500 0
DWIDTH 16 0
BBX 16 14 0 0
BITMAP
07C0
0C60
1830
1830
0060
00C0
0180
0180
0000
0180
0180
0000
0000
0000
ENDCHAR
STARTCHAR U+ff20
ENCODING 65312
SWIDTH 500 0
DWIDTH 16 0
BBX 16 14 0 0
BITMAP
1FE0
3030
6018
6798
6CD8
6CD8
6CD8
6CF8
67B0
6000
3000
1FF0
0000
0000
ENDCHAR
STARTCHAR U+ff21
ENCODING 65313
SWIDTH 500 0
DWIDTH 16 0
BBX 16 15 0 0
BITMAP
0180
0180
03C0
03C0
0660
0660
0C30
0C30
1FF8
1818
300C
300C
781E
0000
0000
ENDCHAR
STARTCHAR U+ff22
ENCODING 65314
SWIDTH 500 0
DWIDTH 16 0
BBX 16 15 0 0
BITMAP
3FE0
0C30
0C18
0C18
0C18
0C30
0FF0
0C18
0C0C
0C0C
0C0C
0C18
3FF0
0000
0000
ENDCHAR
STARTCHAR U+ff23
ENCODING 65315
SWIDTH 500 0
DWIDTH 16 0
BBX 16 15 0 0
BITMAP
03E4
0E34
181C
180C
3004
3000
3000
3000
3004
1804
180C
0E38
03E0
0000
0000
ENDCHAR
STARTCHAR U+ff24
ENCODING 65316
SWIDTH 500 0
DWIDTH 16 0
BBX 16 15 0 0
BITMAP
3FC0
1870
1818
1818
180C
180C
180C
180C
180C
1818
1818
1870
3FC0
0000
0000
ENDCHAR
STARTCHAR U+ff25
ENCODING 65317
SWIDTH 500 0
DWIDTH 16 0
BBX 16 15 0 0
BITMAP
3FFC
0C0C
0C04
0C00
0C20
0C20
0FE0
0C20
0C20
0C00
0C04
0C0C
3FFC
0000
0000
ENDCHAR
STARTCHAR U+ff26
ENCODING 65318
SWIDTH 500 0
DWIDTH 16 0
BBX 16 15 0 0
BITMAP
3FFC
0C0C
0C04
0C00
0C20
0C20
0FE0
0C20
0C20
0C00
0C00
0C00
3F00
0000
0000
ENDCHAR
STARTCHAR U+ff27
ENCODING 65319
SWIDTH 500 0
DWIDTH 16 0
BBX 16 15 0 0
BITMAP
03E4
0E3C
180C
1804
3004
3000
3000
303E
300C
180C
181C
0E3C
03EC
0000
0000
ENDCHAR
STARTCHAR U+ff28
ENCODING 65320
SWIDTH 500 0
DWIDTH 16 0
BBX 16 15 0 0
BITMAP
3C3C
1818
1818
1818
1818
1818
1FF8
1818
1818
1818
1818
1818
3C3C
0000
0000
ENDCHAR
STARTCHAR U+ff29
ENCODING 65321
SWIDTH 500 0
DWIDTH 16 0
BBX 16 15 0 0
BITMAP
07E0
0180
0180
0180
0180
0180
0180
0180
0180
0180
0180
0180
07E0
0000
0000
ENDCHAR
STARTCHAR U+ff2a
ENCODING 65322
SWIDTH 500 0
DWIDTH 16 0
BBX 16 15 0 0
BITMAP
01F8
0060
0060
0060
0060
0060
0060
0060
0060
1860
1860
18C0
0780
0000
0000
ENDCHAR
STARTCHAR U+ff2b
ENCODING 65323
SWIDTH 500 0
DWIDTH 16 0
BBX 16 15 0 0
BITMAP
3C7C
1830
1860
18C0
1980
1B00
1F00
1D80
18C0
1860
1830
1818
3C3E
0000
0000
ENDCHAR
STARTCHAR U+ff2c
ENCODING 65324
SWIDTH 500 0
DWIDTH 16 0
BBX 16 15 0 0
BITMAP
1E00
0C00
0C00
0C00
0C00
0C00
0C00
0C00
0C00
0C00
0C04
0C0C
1FFC
0000
0000
ENDCHAR
STARTCHAR U+ff2d
ENCODING 65325
SWIDTH 500 0
DWIDTH 16 0
BBX 16 15 0 0
BITMAP
F01E
701C
783C
783C
6C6C
6C6C
66CC
66CC
638C
638C
610C
600C
F03E
0000
0000
ENDCHAR
STARTCHAR U+ff2e
ENCODING 65326
SWIDTH 500 0
DWIDTH 16 0
BBX 16 15 0 0
BITMAP
701E
300C
380C
3C0C
360C
330C
318C
30CC
306C
303C
301C
300C
780C
0000
0000
ENDCHAR
STARTCHAR U+ff2f
ENCODING 65327
SWIDTH 500 0
DWIDTH 16 0
BBX 16 15 0 0
BITMAP
07E0
1C38
1818
300C
300C
300C
300C
300C
300C
300C
1818
1C38
07E0
0000
0000
ENDCHAR
STARTCHAR U+ff30
ENCODING 65328
SWIDTH 500 0
DWIDTH 16 0
BBX 16 15 0 0
BITMAP
1FE0
0C38
0C0C
0C0C
0C0C
0C0C
0C38
0FE0
0C00
0C00
0C00
0C00
1E00
0000
0000
ENDCHAR
STARTCHAR U+ff31
ENCODING 65329
SWIDTH 500 0
DWIDTH 16 0
BBX 16 15 0 0
BITMAP
07E0
1C38
1818
300C
300C
300C
300C
300C
300C
33CC
1878
0E30
03FB
001E
0000
ENDCHAR
STARTCHAR U+ff32
ENCODING 65330
SWIDTH 500 0
DWIDTH 16 0
BBX 16 15 0 0
BITMAP
3FE0
1830
1818
1818
1818
1818
1870
1FC0
1860
1830
1830
1832
3C1C
0000
0000
ENDCHAR
STARTCHAR U+ff33
ENCODING 65331
SWIDTH 500 0
DWIDTH 16 0
BBX 16 15 0 0
BITMAP
03C8
0C38
1818
1808
1800
0F00
01E0
0038
100C
180C
1C0C
1618
03F0
0000
0000
ENDCHAR
STARTCHAR U+ff34
ENCODING 65332
SWIDTH 500 0
DWIDTH 16 0
BBX 16 15 0 0
BITMAP
3FFC
318C
2184
0180
0180
0180
0180
0180
0180
0180
0180
0180
03C0
0000
0000
ENDCHAR
STARTCHAR U+ff35
ENCODING 65333
SWIDTH 500 0
DWIDTH 16 0
BBX 16 15 0 0
BITMAP
3C3C
1818
1818
1818
1818
1818
1818
1818
1818
1818
0810
0C30
07E0
0000
0000
ENDCHAR
STARTCHAR U+ff36
ENCODING 65334
SWIDTH 500 0
DWIDTH 16 0
BBX 16 15 0 0
BITMAP
781E
300C
300C
1818
1818
0C30
0C30
0660
0660
03C0
03C0
0180
0180
0000
0000
ENDCHAR
STARTCHAR U+ff37
ENCODING 65335
SWIDTH 500 0
DWIDTH 16 0
BBX 16 15 0 0
BITMAP
F39E
610C
610C
638C
3298
3298
36D8
36D8
1450
1C70
0820
0820
0820
0000
0000
ENDCHAR
STARTCHAR U+ff38
ENCODING 65336
SWIDTH 500 0
DWIDTH 16 0
BBX 16 15 0 0
BITMAP
F81F
300C
1818
0C30
0660
03C0
0180
03C0
0660
0C30
1818
300C
F81F
0000
0000
ENDCHAR
STARTCHAR U+ff39
ENCODING 65337
SWIDTH 500 0
DWIDTH 16 0
BBX 16 15 0 0
BITMAP
781E
300C
1818
0C30
0660
03C0
0180
0180
0180
0180
0180
0180
03C0
0000
0000
ENDCHAR
STARTCHAR U+ff3a
ENCODING 65338
SWIDTH 500 0
DWIDTH 16 0
BBX 16 15 0 0
BITMAP
3FFC
300C
2018
0030
0060
00C0
0180
0300
0600
0C00
1804
300C
3FFC
0000
0000
ENDCHAR
STARTCHAR U+ff3b
ENCODING 65339
SWIDTH 500 0
DWIDTH 16 0
BBX 16 15 0 0
BITMAP
07E0
0600
0600
0600
0600
0600
0600
0600
0600
0600
0600
0600
07E0
0000
0000
ENDCHAR
STARTCHAR U+ffe6
ENCODING 65510
SWIDTH 500 0
DWIDTH 16 0
BBX 16 14 0 0
BITMAP
3000
1800
0C00
0600
0300
0180
00C0
0060
0030
0018
000C
0000
0000
0000
ENDCHAR
STARTCHAR U+ff3d
ENCODING 65341
SWIDTH 500 0
DWIDTH 16 0
BBX 16 15 0 0
BITMAP
07E0
0060
0060
0060
0060
0060
0060
0060
0060
0060
0060
0060
07E0
0000
0000
ENDCHAR
STARTCHAR U+ff3e
ENCODING 65342
SWIDTH 500 0
DWIDTH 16 0
BBX 16 15 0 0
BITMAP
0100
0380
06C0
0C60
0000
0000
0000
0000
0000
0000
0000
0000
0000
0000
0000
ENDCHAR
STARTCHAR U+ff3f
ENCODING 65343
SWIDTH 500 0
DWIDTH 16 0
BBX 16 3 0 0
BITMAP
3FFC
0000
0000
ENDCHAR
STARTCHAR U+ff40
ENCODING 65344
SWIDTH 500 0
DWIDTH 16 0
BBX 16 14 0 0
BITMAP
0380
0380
0300
0180
0000
0000
0000
0000
0000
0000
0000
0000
0000
0000
ENDCHAR
STARTCHAR U+ff41
ENCODING 65345
SWIDTH 500 0
DWIDTH 16 0
BBX 16 10 0 0
BITMAP
07E0
0C30
0030
03F0
0C30
1830
1870
0FDC
0000
0000
ENDCHAR
STARTCHAR U+ff42
ENCODING 65346
SWIDTH 500 0
DWIDTH 16 0
BBX 16 14 0 0
BITMAP
1C00
0C00
0C00
0C00
0DF0
0E18
0C0C
0C0C
0C0C
0C0C
0E18
1DF0
0000
0000
ENDCHAR
STARTCHAR U+ff43
ENCODING 65347
SWIDTH 500 0
DWIDTH 16 0
BBX 16 10 0 0
BITMAP
03E0
0C18
1818
1800
1800
1800
0C18
03E0
0000
0000
ENDCHAR
STARTCHAR U+ff44
ENCODING 65348
SWIDTH 500 0
DWIDTH 16 0
BBX 16 15 0 0
BITMAP
0038
0018
0018
0018
0018
07D8
0C38
1818
1818
1818
1818
0C38
07D8
0000
0000
ENDCHAR
STARTCHAR U+ff45
ENCODING 65349
SWIDTH 500 0
DWIDTH 16 0
BBX 16 10 0 0
BITMAP
07E0
0C30
1818
1FF8
1800
1800
0C18
07F0
0000
0000
ENDCHAR
STARTCHAR U+ff46
ENCODING 65350
SWIDTH 500 0
DWIDTH 16 0
BBX 16 15 0 0
BITMAP
01F0
0318
0318
0300
0300
1FF0
0300
0300
0300
0300
0300
0300
0FC0
0000
0000
ENDCHAR
STARTCHAR U+ff47
ENCODING 65351
SWIDTH 500 0
DWIDTH 16 0
BBX 16 11 0 0
BITMAP
07EC
0C38
0C30
0C30
07E0
0300
0FE0
1C18
1808
1C18
0FF0
ENDCHAR
STARTCHAR U+ff48
ENCODING 65352
SWIDTH 500 0
DWIDTH 16 0
BBX 16 15 0 0
BITMAP
1C00
0C00
0C00
0C00
0C00
0DE0
0F30
0E18
0C18
0C18
0C18
0C18
1E3C
0000
0000
ENDCHAR
STARTCHAR U+ff49
ENCODING 65353
SWIDTH 500 0
DWIDTH 16 0
BBX 16 14 0 0
BITMAP
0180
0180
0000
0000
0380
0180
0180
0180
0180
0180
0180
03C0
0000
0000
ENDCHAR
STARTCHAR U+ff4a
ENCODING 65354
SWIDTH 500 0
DWIDTH 16 0
BBX 16 14 0 0
BITMAP
00C0
00C0
0000
0000
01C0
00C0
00C0
00C0
00C0
00C0
00C0
0CC0
0CC0
0780
ENDCHAR
STARTCHAR U+ff4b
ENCODING 65355
SWIDTH 500 0
DWIDTH 16 0
BBX 16 15 0 0
BITMAP
1C00
0C00
0C00
0C00
0C00
0CF8
0C60
0CC0
0D80
0FC0
0E60
0C30
1E7C
0000
0000
ENDCHAR
STARTCHAR U+ff4c
ENCODING 65356
SWIDTH 500 0
DWIDTH 16 0
BBX 16 15 0 0
BITMAP
0380
0180
0180
0180
0180
0180
0180
0180
0180
0180
0180
0180
03C0
0000
0000
ENDCHAR
STARTCHAR U+ff4d
ENCODING 65357
SWIDTH 500 0
DWIDTH 16 0
BBX 16 10 0 0
BITMAP
6F78
39CC
318C
318C
318C
318C
318C
79CE
0000
0000
ENDCHAR
STARTCHAR U+ff4e
ENCODING 65358
SWIDTH 500 0
DWIDTH 16 0
BBX 16 10 0 0
BITMAP
1BE0
0E30
0C18
0C18
0C18
0C18
0C18
1E3C
0000
0000
ENDCHAR
STARTCHAR U+ff4f
ENCODING 65359
SWIDTH 500 0
DWIDTH 16 0
BBX 16 10 0 0
BITMAP
07E0
0C30
1818
1818
1818
1818
0C30
07E0
0000
0000
ENDCHAR
STARTCHAR U+ff50
ENCODING 65360
SWIDTH 500 0
DWIDTH 16 0
BBX 16 10 0 0
BITMAP
1BE0
0E30
0C18
0C18
0C18
0E30
0FE0
0C00
0C00
1E00
ENDCHAR
STARTCHAR U+ff51
ENCODING 65361
SWIDTH 500 0
DWIDTH 16 0
BBX 16 10 0 0
BITMAP
07B0
0CF0
1830
1830
1830
0C70
07F0
0030
0030
0078
ENDCHAR
STARTCHAR U+ff52
ENCODING 65362
SWIDTH 500 0
DWIDTH 16 0
BBX 16 10 0 0
BITMAP
0DF0
0738
0618
0600
0600
0600
0600
0F00
0000
0000
ENDCHAR
STARTCHAR U+ff53
ENCODING 65363
SWIDTH 500 0
DWIDTH 16 0
BBX 16 10 0 0
BITMAP
07F0
0C18
0C18
07C0
00F0
0C18
0C18
07F0
0000
0000
ENDCHAR
STARTCHAR U+ff54
ENCODING 65364
SWIDTH 500 0
DWIDTH 16 0
BBX 16 13 0 0
BITMAP
0300
0300
0300
0FE0
0300
0300
0300
0300
0310
0330
01E0
0000
0000
ENDCHAR
STARTCHAR U+ff55
ENCODING 65365
SWIDTH 500 0
DWIDTH 16 0
BBX 16 10 0 0
BITMAP
1C70
0C30
0C30
0C30
0C30
0C30
0C70
07DC
0000
0000
ENDCHAR
STARTCHAR U+ff56
ENCODING 65366
SWIDTH 500 0
DWIDTH 16 0
BBX 16 10 0 0
BITMAP
1E3C
0C18
0630
0630
0360
0360
01C0
01C0
0000
0000
ENDCHAR
STARTCHAR U+ff57
ENCODING 65367
SWIDTH 500 0
DWIDTH 16 0
BBX 16 10 0 0
BITMAP
F7DE
638C
638C
36D8
36D8
36D8
1C70
1C70
0000
0000
ENDCHAR
STARTCHAR U+ff58
ENCODING 65368
SWIDTH 500 0
DWIDTH 16 0
BBX 16 10 0 0
BITMAP
3E7C
0C30
0660
03C0
03C0
0660
0C30
3E7C
0000
0000
ENDCHAR
STARTCHAR U+ff59
ENCODING 65369
SWIDTH 500 0
DWIDTH 16 0
BBX 16 10 0 0
BITMAP
3C3C
1818
0C30
0630
0360
01E0
00C0
1980
1B00
0E00
ENDCHAR
STARTCHAR U+ff5a
ENCODING 65370
SWIDTH 500 0
DWIDTH 16 0
BBX 16 10 0 0
BITMAP
1FF8
1830
1060
00C0
0180
0308
0618
1FF8
0000
0000
ENDCHAR
STARTCHAR U+ff5b
ENCODING 65371
SWIDTH 500 0
DWIDTH 16 0
BBX 16 14 0 0
BITMAP
01C0
0300
0300
0300
0300
0600
0300
0300
0300
0300
0300
01C0
0000
0000
ENDCHAR
STARTCHAR U+ff5c
ENCODING 65372
SWIDTH 500 0
DWIDTH 16 0
BBX 16 14 0 0
BITMAP
0180
0180
0180
0180
0180
0000
0180
0180
0180
0180
0180
0000
0000
0000
ENDCHAR
STARTCHAR U+ff5d
ENCODING 65373
SWIDTH 500 0
DWIDTH 16 0
BBX 16 14 0 0
BITMAP
0380
00C0
00C0
00C0
00C0
0060
00C0
00C0
00C0
00C0
00C0
0380
0000
0000
ENDCHAR
STARTCHAR U+ffe3
ENCODING 65507
SWIDTH 500 0
DWIDTH 16 0
BBX 16 14 0 0
BITMAP
1E00
330C
6198
00F0
0000
0000
0000
0000
0000
0000
0000
0000
0000
0000
ENDCHAR
STARTCHAR U+ffa1
ENCODING 65441
SWIDTH 500 0
DWIDTH 16 0
BBX 16 12 0 0
BITMAP
1FF8
0C18
0018
0018
0018
0018
0018
0010
0000
0000
0000
0000
ENDCHAR
STARTCHAR U+ffa2
ENCODING 65442
SWIDTH 500 0
DWIDTH 16 0
BBX 16 12 0 0
BITMAP
3FF8
0318
0318
0318
0318
0218
0210
0420
0000
0000
0000
0000
ENDCHAR
STARTCHAR U+ffa3
ENCODING 65443
SWIDTH 500 0
DWIDTH 16 0
BBX 16 12 0 0
BITMAP
FC30
0C30
0C30
0C38
0C6C
0CCE
0D86
0A00
0000
0000
0000
0000
ENDCHAR
STARTCHAR U+ffa4
ENCODING 65444
SWIDTH 500 0
DWIDTH 16 0
BBX 16 12 0 0
BITMAP
3000
1800
1800
1800
1800
1808
1C70
0FC0
0000
0000
0000
0000
ENDCHAR
STARTCHAR U+ffa5
ENCODING 65445
SWIDTH 500 0
DWIDTH 16 0
BBX 16 12 0 0
BITMAP
607E
3006
300C
3018
303C
3066
31C3
1E81
0000
0000
0000
0000
ENDCHAR
STARTCHAR U+ffa6
ENCODING 65446
SWIDTH 500 0
DWIDTH 16 0
BBX 16 12 0 0
BITMAP
6030
3018
30FE
3038
30EE
30C6
33EE
1E38
0000
0000
0000
0000
ENDCHAR
STARTCHAR U+ffa7
ENCODING 65447
SWIDTH 500 0
DWIDTH 16 0
BBX 16 12 0 0
BITMAP
3FE0
1800
1800
1800
1800
1808
1C70
0FC0
0000
0000
0000
0000
ENDCHAR
STARTCHAR U+ffa8
ENCODING 65448
SWIDTH 500 0
DWIDTH 16 0
BBX 16 12 0 0
BITMAP
3FF0
1980
1980
1980
1980
1988
1FF0
0CE0
0000
0000
0000
0000
ENDCHAR
STARTCHAR U+ffa9
ENCODING 65449
SWIDTH 500 0
DWIDTH 16 0
BBX 16 12 0 0
BITMAP
1FF0
0C30
0030
0060
1FF0
0C00
0C08
0E30
07E0
0000
0000
0000
ENDCHAR
STARTCHAR U+ffaa
ENCODING 65450
SWIDTH 500 0
DWIDTH 16 0
BBX 16 12 0 0
BITMAP
7F7E
3306
0206
7F06
3006
3006
3306
1F84
0000
0000
0000
0000
ENDCHAR
STARTCHAR U+ffab
ENCODING 65451
SWIDTH 500 0
DWIDTH 16 0
BBX 16 12 0 0
BITMAP
7FFE
3366
0266
7F66
3066
3064
3364
1FFE
0000
0000
0000
0000
ENDCHAR
STARTCHAR U+ffac
ENCODING 65452
SWIDTH 500 0
DWIDTH 16 0
BBX 16 13 0 0
BITMAP
000C
7EC6
3666
0666
7C7E
3066
3066
3366
1FFE
0000
0000
0000
0000
ENDCHAR
STARTCHAR U+ffad
ENCODING 65453
SWIDTH 500 0
DWIDTH 16 0
BBX 16 12 0 0
BITMAP
7E30
3618
0618
7C18
3030
306C
36C6
1F86
0000
0000
0000
0000
ENDCHAR
STARTCHAR U+ffae
ENCODING 65454
SWIDTH 500 0
DWIDTH 16 0
BBX 16 12 0 0
BITMAP
7EFC
3660
0660
7C7C
3060
3060
3364
1FBE
0000
0000
0000
0000
ENDCHAR
STARTCHAR U+ffaf
ENCODING 65455
SWIDTH 500 0
DWIDTH 16 0
BBX 16 12 0 0
BITMAP
7EFE
366C
066C
7C6C
306C
306C
3628
1FFE
0000
0000
0000
0000
ENDCHAR
STARTCHAR U+ffb0
ENCODING 65456
SWIDTH 500 0
DWIDTH 16 0
BBX 16 13 0 0
BITMAP
0030
7E18
36FF
0640
7C3C
3066
3066
3666
1F3C
0000
0000
0000
0000
ENDCHAR
STARTCHAR U+ffb1
ENCODING 65457
SWIDTH 500 0
DWIDTH 16 0
BBX 16 11 0 0
BITMAP
3FF0
1830
1830
1830
1830
1820
1FF0
1000
0000
0000
0000
ENDCHAR
STARTCHAR U+ffb2
ENCODING 65458
SWIDTH 500 0
DWIDTH 16 0
BBX 16 12 0 0
BITMAP
0060
3030
1830
1830
1FF0
1830
1830
1FF0
0000
0000
0000
0000
ENDCHAR
STARTCHAR U+ffb3
ENCODING 65459
SWIDTH 500 0
DWIDTH 16 0
BBX 16 12 0 0
BITMAP
0030
0D98
66D8
36D8
3EF8
36D8
36D8
3EF8
0000
0000
0000
0000
ENDCHAR
STARTCHAR U+ffb4
ENCODING 65460
SWIDTH 500 0
DWIDTH 16 0
BBX 16 12 0 0
BITMAP
0C18
C60C
660C
6618
7E38
666E
66C7
7F83
0000
0000
0000
0000
ENDCHAR
STARTCHAR U+ffb5
ENCODING 65461
SWIDTH 500 0
DWIDTH 16 0
BBX 16 12 0 0
BITMAP
00C0
0060
0060
00C0
0180
0340
0630
0C18
1018
0000
0000
0000
ENDCHAR
STARTCHAR U+ffb6
ENCODING 65462
SWIDTH 500 0
DWIDTH 16 0
BBX 16 12 0 0
BITMAP
00C0
0C60
0CC0
1980
3780
66E0
8C38
1018
0000
0000
0000
0000
ENDCHAR
STARTCHAR U+ffb7
ENCODING 65463
SWIDTH 500 0
DWIDTH 16 0
BBX 16 11 0 0
BITMAP
07C0
0C60
1830
1830
1830
0C60
0380
0000
0000
0000
0000
ENDCHAR
STARTCHAR U+ffb8
ENCODING 65464
SWIDTH 500 0
DWIDTH 16 0
BBX 16 12 0 0
BITMAP
07F8
0330
0060
00C0
01C0
0330
061C
0C0C
1000
0000
0000
0000
ENDCHAR
STARTCHAR U+ffb9
ENCODING 65465
SWIDTH 500 0
DWIDTH 16 0
BBX 16 12 0 0
BITMAP
7FF0
3330
0660
0CC0
1D80
3760
6638
8818
0000
0000
0000
0000
ENDCHAR
STARTCHAR U+ffba
ENCODING 65466
SWIDTH 500 0
DWIDTH 16 0
BBX 16 13 0 0
BITMAP
0E00
0700
3FE0
19C0
0380
0780
0CC0
1860
3060
4000
0000
0000
0000
ENDCHAR
STARTCHAR U+ffbb
ENCODING 65467
SWIDTH 500 0
DWIDTH 16 0
BBX 16 12 0 0
BITMAP
0FF0
0630
0030
0FE0
00C0
0180
0300
0C00
0000
0000
0000
0000
ENDCHAR
STARTCHAR U+ffbc
ENCODING 65468
SWIDTH 500 0
DWIDTH 16 0
BBX 16 12 0 0
BITMAP
1FF0
0C00
0C00
0FF0
0C00
0C00
0C30
07F8
0000
0000
0000
0000
ENDCHAR
STARTCHAR U+ffbd
ENCODING 65469
SWIDTH 500 0
DWIDTH 16 0
BBX 16 12 0 0
BITMAP
0FF0
0000
0660
0660
0640
0240
0248
1FFC
0C00
0000
0000
0000
ENDCHAR
STARTCHAR U+ffbe
ENCODING 65470
SWIDTH 500 0
DWIDTH 16 0
BBX 16 13 0 0
BITMAP
0300
0180
3FF8
1800
03C0
0660
0C30
0660
03C0
0000
0000
0000
0000
ENDCHAR
STARTCHAR U+ffc2
ENCODING 65474
SWIDTH 500 0
DWIDTH 16 0
BBX 16 15 0 0
BITMAP
0030
0018
0018
0018
0018
0018
001F
0018
0018
0018
0018
0018
0018
0010
0000
ENDCHAR
STARTCHAR U+ffc3
ENCODING 65475
SWIDTH 500 0
DWIDTH 16 0
BBX 16 15 0 0
BITMAP
0018
00CC
006C
006C
006C
006C
007C
006C
006C
006C
006C
004C
000C
0008
0000
ENDCHAR
STARTCHAR U+ffc4
ENCODING 65476
SWIDTH 500 0
DWIDTH 16 0
BBX 16 15 0 0
BITMAP
0030
0018
0018
0018
0018
001F
0018
0018
001F
0018
0018
0018
0018
0010
0000
ENDCHAR
STARTCHAR U+ffc5
ENCODING 65477
SWIDTH 500 0
DWIDTH 16 0
BBX 16 16 0 0
BITMAP
0018
00CC
006C
006C
006C
007C
006C
006C
007C
006C
006C
006C
004C
000C
0008
0000
ENDCHAR
STARTCHAR U+ffc6
ENCODING 65478
SWIDTH 500 0
DWIDTH 16 0
BBX 16 16 0 0
BITMAP
0030
0018
0018
0018
0018
0018
0018
01F8
0018
0018
0018
0018
0018
0018
0010
0000
ENDCHAR
STARTCHAR U+ffc7
ENCODING 65479
SWIDTH 500 0
DWIDTH 16 0
BBX 16 16 0 0
BITMAP
0018
00CC
006C
006C
006C
006C
006C
07EC
006C
006C
006C
006C
004C
000C
0008
0000
ENDCHAR
STARTCHAR U+ffca
ENCODING 65482
SWIDTH 500 0
DWIDTH 16 0
BBX 16 16 0 0
BITMAP
0030
0018
0018
0018
0018
01F8
0018
0018
01F8
0018
0018
0018
0018
0018
0010
0000
ENDCHAR
STARTCHAR U+ffcb
ENCODING 65483
SWIDTH 500 0
DWIDTH 16 0
BBX 16 16 0 0
BITMAP
0018
00CC
006C
006C
006C
07EC
006C
006C
07EC
006C
006C
006C
004C
000C
0008
0000
ENDCHAR
STARTCHAR U+ffcc
ENCODING 65484
SWIDTH 500 0
DWIDTH 16 0
BBX 16 8 0 0
BITMAP
0300
0180
0180
0186
7FFF
3000
0000
0000
ENDCHAR
STARTCHAR U+ffcd
ENCODING 65485
SWIDTH 500 0
DWIDTH 16 0
BBX 16 16 0 0
BITMAP
0030
0018
0018
0018
0018
0018
0018
0018
1818
0C1E
0C78
7F98
3018
0018
0010
0000
ENDCHAR
STARTCHAR U+ffce
ENCODING 65486
SWIDTH 500 0
DWIDTH 16 0
BBX 16 16 0 0
BITMAP
000C
0066
0036
0036
0036
0036
0036
0036
183E
0C36
0CF6
FF36
6026
0006
0004
0000
ENDCHAR
STARTCHAR U+ffcf
ENCODING 65487
SWIDTH 500 0
DWIDTH 16 0
BBX 16 16 0 0
BITMAP
0018
000C
000C
000C
000C
000C
000C
000C
0C0C
060C
063C
7FCC
300C
000C
0008
0000
ENDCHAR
STARTCHAR U+ffd2
ENCODING 65490
SWIDTH 500 0
DWIDTH 16 0
BBX 16 8 0 0
BITMAP
00C0
0C60
0660
0660
7FFE
3000
0000
0000
ENDCHAR
STARTCHAR U+ffd3
ENCODING 65491
SWIDTH 500 0
DWIDTH 16 0
BBX 16 10 0 0
BITMAP
000C
7FFE
3180
0180
0180
0180
0180
0180
0100
0000
ENDCHAR
STARTCHAR U+ffd4
ENCODING 65492
SWIDTH 500 0
DWIDTH 16 0
BBX 16 16 0 0
BITMAP
0030
0018
0018
0018
0018
0018
0018
0078
7F98
2C18
0CF8
0C18
0C18
0818
0010
0000
ENDCHAR
STARTCHAR U+ffd5
ENCODING 65493
SWIDTH 500 0
DWIDTH 16 0
BBX 16 16 0 0
BITMAP
0018
00CC
006C
006C
006C
006C
006C
01EC
FE6C
586C
1BEC
186C
186C
104C
0008
0000
ENDCHAR
STARTCHAR U+ffd6
ENCODING 65494
SWIDTH 500 0
DWIDTH 16 0
BBX 16 16 0 0
BITMAP
0018
000C
000C
000C
000C
000C
000C
003C
7FCC
260C
060C
060C
060C
040C
0008
0000
ENDCHAR
STARTCHAR U+ffd7
ENCODING 65495
SWIDTH 500 0
DWIDTH 16 0
BBX 16 10 0 0
BITMAP
0004
7FFE
2660
0660
0660
0660
0460
0060
0040
0000
ENDCHAR
STARTCHAR U+ffda
ENCODING 65498
SWIDTH 500 0
DWIDTH 16 0
BBX 16 5 0 0
BITMAP
000C
7FFE
3000
0000
0000
ENDCHAR
STARTCHAR U+ffdb
ENCODING 65499
SWIDTH 500 0
DWIDTH 16 0
BBX 16 16 0 0
BITMAP
0018
000C
000C
000C
000C
000C
000C
000C
000C
003C
7FCC
300C
000C
000C
0008
0000
ENDCHAR
STARTCHAR U+ffdc
ENCODING 65500
SWIDTH 500 0
DWIDTH 16 0
BBX 16 16 0 0
BITMAP
0030
0018
0018
0018
0018
0018
0018
0018
0018
0018
0018
0018
0018
0018
0010
0000
ENDCHAR
STARTCHAR U+3164
ENCODING 12644
SWIDTH 500 0
DWIDTH 8 0
BBX 8 0 0 0
BITMAP

ENDCHAR
STARTCHAR U+3165
ENCODING 12645
SWIDTH 500 0
DWIDTH 16 0
BBX 16 12 0 0
BITMAP
C0C0
6060
6060
6060
6060
6163
7E7E
3838
0000
0000
0000
0000
ENDCHAR
STARTCHAR U+3166
ENCODING 12646
SWIDTH 500 0
DWIDTH 16 0
BBX 16 12 0 0
BITMAP
C0FE
6060
6060
6060
6060
6060
7363
3C3C
0000
0000
0000
0000
ENDCHAR
STARTCHAR U+3167
ENCODING 12647
SWIDTH 500 0
DWIDTH 16 0
BBX 16 12 0 0
BITMAP
C030
6018
6018
6030
6068
60CC
6D86
3A06
0000
0000
0000
0000
ENDCHAR
STARTCHAR U+3168
ENCODING 12648
SWIDTH 500 0
DWIDTH 16 0
BBX 16 12 0 0
BITMAP
C010
6038
606C
606C
60C6
60C6
7783
3DFF
0000
0000
0000
0000
ENDCHAR
STARTCHAR U+3169
ENCODING 12649
SWIDTH 500 0
DWIDTH 16 0
BBX 16 12 0 0
BITMAP
FFDC
18CC
18CC
F8CC
C0DE
C0DB
CCB3
70A3
0000
0000
0000
0000
ENDCHAR
STARTCHAR U+316a
ENCODING 12650
SWIDTH 500 0
DWIDTH 16 0
BBX 16 12 0 0
BITMAP
FEFE
6660
0660
FC60
6060
6060
6661
3F3E
0000
0000
0000
0000
ENDCHAR
STARTCHAR U+316b
ENCODING 12651
SWIDTH 500 0
DWIDTH 16 0
BBX 16 12 0 0
BITMAP
FC8C
1ECC
1ECC
F7CC
C6CE
C6DA
CEF3
77E3
0000
0000
0000
0000
ENDCHAR
STARTCHAR U+316c
ENCODING 12652
SWIDTH 500 0
DWIDTH 16 0
BBX 16 12 0 0
BITMAP
FC20
6C70
0CD8
F8D8
C18C
C18C
C706
7BFE
0000
0000
0000
0000
ENDCHAR
STARTCHAR U+316d
ENCODING 12653
SWIDTH 500 0
DWIDTH 16 0
BBX 16 12 0 0
BITMAP
FEFE
6600
0638
7C6C
60C6
60C6
66EE
387C
0000
0000
0000
0000
ENDCHAR
STARTCHAR U+316e
ENCODING 12654
SWIDTH 500 0
DWIDTH 16 0
BBX 16 13 0 0
BITMAP
000C
FEC6
6666
6666
667E
6666
6666
6466
7E7E
0000
0000
0000
0000
ENDCHAR
STARTCHAR U+316f
ENCODING 12655
SWIDTH 500 0
DWIDTH 16 0
BBX 16 12 0 0
BITMAP
FE18
660C
660C
660C
6618
6634
6463
7E83
0000
0000
0000
0000
ENDCHAR
STARTCHAR U+3170
ENCODING 12656
SWIDTH 500 0
DWIDTH 16 0
BBX 16 12 0 0
BITMAP
FE10
C618
C62C
C66C
C6C6
C6C6
C783
FFFF
0000
0000
0000
0000
ENDCHAR
STARTCHAR U+3171
ENCODING 12657
SWIDTH 500 0
DWIDTH 16 0
BBX 16 12 0 0
BITMAP
3FF8
1818
1810
1FF8
0000
07E0
0C30
0C30
07E0
0000
0000
0000
ENDCHAR
STARTCHAR U+3172
ENCODING 12658
SWIDTH 500 0
DWIDTH 16 0
BBX 16 12 0 0
BITMAP
06FE
C366
6306
6306
7F06
6306
6306
7F06
4204
0000
0000
0000
ENDCHAR
STARTCHAR U+3173
ENCODING 12659
SWIDTH 500 0
DWIDTH 16 0
BBX 16 13 0 0
BITMAP
0600
C3FF
6360
6360
7F60
6360
6361
637E
7F38
0000
0000
0000
0000
ENDCHAR
STARTCHAR U+3174
ENCODING 12660
SWIDTH 500 0
DWIDTH 16 0
BBX 16 12 0 0
BITMAP
CDBF
CCDB
CCC3
FCC3
CCC3
CDA3
CF33
FE1A
0000
0000
0000
0000
ENDCHAR
STARTCHAR U+3175
ENCODING 12661
SWIDTH 500 0
DWIDTH 16 0
BBX 16 12 0 0
BITMAP
DB3F
D998
D998
F998
D998
DB58
DE79
FC3E
0000
0000
0000
0000
ENDCHAR
STARTCHAR U+3176
ENCODING 12662
SWIDTH 500 0
DWIDTH 16 0
BBX 16 12 0 0
BITMAP
0C7E
C60C
660C
7E18
6638
6666
66C3
7F03
0000
0000
0000
0000
ENDCHAR
STARTCHAR U+3177
ENCODING 12663
SWIDTH 500 0
DWIDTH 16 0
BBX 16 13 0 0
BITMAP
0600
C2FE
6360
6360
7F7E
6360
6360
6366
7F3F
0000
0000
0000
0000
ENDCHAR
STARTCHAR U+3178
ENCODING 12664
SWIDTH 500 0
DWIDTH 16 0
BBX 16 14 0 0
BITMAP
0030
3018
1818
1FF8
1818
1818
1FF8
0000
07E0
0C30
0C30
07E0
0000
0000
ENDCHAR
STARTCHAR U+3179
ENCODING 12665
SWIDTH 500 0
DWIDTH 16 0
BBX 16 14 0 0
BITMAP
0018
198C
0CCC
0FFC
0CCC
0CCC
0FFC
0000
03F0
0618
0618
03F0
0000
0000
ENDCHAR
STARTCHAR U+317a
ENCODING 12666
SWIDTH 500 0
DWIDTH 16 0
BBX 16 12 0 0
BITMAP
0CFE
0666
0606
0606
0E06
1B06
3186
4184
0000
0000
0000
0000
ENDCHAR
STARTCHAR U+317b
ENCODING 12667
SWIDTH 500 0
DWIDTH 16 0
BBX 16 12 0 0
BITMAP
0C60
0630
0630
0630
0E30
1930
31B3
40DE
0000
0000
0000
0000
ENDCHAR
STARTCHAR U+317c
ENCODING 12668
SWIDTH 500 0
DWIDTH 16 0
BBX 16 12 0 0
BITMAP
18FE
0C60
0C60
0C60
1C60
3660
6361
81BE
0000
0000
0000
0000
ENDCHAR
STARTCHAR U+317d
ENCODING 12669
SWIDTH 500 0
DWIDTH 16 0
BBX 16 12 0 0
BITMAP
18CC
0C66
0C66
0C7E
1C66
3266
6366
81FE
0000
0000
0000
0000
ENDCHAR
STARTCHAR U+317e
ENCODING 12670
SWIDTH 500 0
DWIDTH 16 0
BBX 16 12 0 0
BITMAP
187E
0C06
0C0C
0C18
1C30
376C
63C7
8103
0000
0000
0000
0000
ENDCHAR
STARTCHAR U+317f
ENCODING 12671
SWIDTH 500 0
DWIDTH 16 0
BBX 16 11 0 0
BITMAP
0180
03C0
0660
0C30
1818
300C
7FFE
0000
0000
0000
0000
ENDCHAR
STARTCHAR U+3180
ENCODING 12672
SWIDTH 500 0
DWIDTH 16 0
BBX 16 13 0 0
BITMAP
1818
1818
3E3E
6363
6363
6363
6363
3E3E
0000
0000
0000
0000
0000
ENDCHAR
STARTCHAR U+3181
ENCODING 12673
SWIDTH 500 0
DWIDTH 16 0
BBX 16 13 0 0
BITMAP
0180
0180
0180
07E0
0C30
1818
1818
0C30
07E0
0000
0000
0000
0000
ENDCHAR
STARTCHAR U+3182
ENCODING 12674
SWIDTH 500 0
DWIDTH 16 0
BBX 16 12 0 0
BITMAP
0C18
0C0C
0C0C
1E0C
331C
3336
3363
1E83
0000
0000
0000
0000
ENDCHAR
STARTCHAR U+3183
ENCODING 12675
SWIDTH 500 0
DWIDTH 16 0
BBX 16 12 0 0
BITMAP
1818
1818
3C3C
663C
C366
C366
66C3
3CFF
0000
0000
0000
0000
ENDCHAR
STARTCHAR U+3184
ENCODING 12676
SWIDTH 500 0
DWIDTH 16 0
BBX 16 12 0 0
BITMAP
1FF8
0660
0660
1FF8
0000
07E0
0C30
0C30
07E0
0000
0000
0000
ENDCHAR
STARTCHAR U+3185
ENCODING 12677
SWIDTH 500 0
DWIDTH 16 0
BBX 16 12 0 0
BITMAP
381C
1C0E
7F7F
0000
3E3E
6363
6363
6363
3E3E
0000
0000
0000
ENDCHAR
STARTCHAR U+3186
ENCODING 12678
SWIDTH 500 0
DWIDTH 16 0
BBX 16 12 0 0
BITMAP
1FF8
0000
0000
07E0
0E70
0C30
0C30
0E70
07E0
0000
0000
0000
ENDCHAR
STARTCHAR U+3187
ENCODING 12679
SWIDTH 500 0
DWIDTH 16 0
BBX 16 15 0 0
BITMAP
0018
000C
000C
000C
000C
000F
060C
330C
1B0F
1B3C
7FCC
300C
000C
0008
0000
ENDCHAR
STARTCHAR U+3188
ENCODING 12680
SWIDTH 500 0
DWIDTH 16 0
BBX 16 15 0 0
BITMAP
0006
0033
001B
001B
001B
001F
061B
331B
1B1F
1B7B
7F9B
301B
0013
0002
0000
ENDCHAR
STARTCHAR U+3189
ENCODING 12681
SWIDTH 500 0
DWIDTH 16 0
BBX 16 15 0 0
BITMAP
000C
0006
0006
0006
0006
0006
0006
0306
1986
0D86
0D9E
3FE6
1806
0004
0000
ENDCHAR
STARTCHAR U+318a
ENCODING 12682
SWIDTH 500 0
DWIDTH 16 0
BBX 16 15 0 0
BITMAP
000C
0006
0006
0006
0006
0066
FF86
363E
3606
363E
3606
2606
0406
0004
0000
ENDCHAR
STARTCHAR U+318b
ENCODING 12683
SWIDTH 500 0
DWIDTH 16 0
BBX 16 15 0 0
BITMAP
0006
0033
001B
001B
001B
00DB
FF1B
36FB
361B
36FB
361B
241B
0013
0002
0000
ENDCHAR
STARTCHAR U+318c
ENCODING 12684
SWIDTH 500 0
DWIDTH 16 0
BBX 16 15 0 0
BITMAP
000C
0006
0006
0006
0006
0036
7FC6
1B06
1B06
1B06
1B06
1206
0006
0004
0000
ENDCHAR
STARTCHAR U+318d
ENCODING 12685
SWIDTH 500 0
DWIDTH 16 0
BBX 16 9 0 0
BITMAP
0180
0180
0000
0000
0000
0000
0000
0000
0000
ENDCHAR
STARTCHAR U+318e
ENCODING 12686
SWIDTH 500 0
DWIDTH 16 0
BBX 16 15 0 0
BITMAP
000C
0006
0006
0006
0006
0006
0006
0006
0606
0606
0006
0006
0006
0004
0000
ENDCHAR
STARTCHAR U+2170
ENCODING 8560
SWIDTH 500 0
DWIDTH 16 0
BBX 16 15 0 0
BITMAP
0100
0100
0000
0000
0100
0300
0100
0100
0100
0100
0100
0100
0100
0380
0000
ENDCHAR
STARTCHAR U+2171
ENCODING 8561
SWIDTH 500 0
DWIDTH 16 0
BBX 16 15 0 0
BITMAP
0840
0840
0000
0000
0840
18C0
0840
0840
0840
0840
0840
0840
0840
1CE0
0000
ENDCHAR
STARTCHAR U+2172
ENCODING 8562
SWIDTH 500 0
DWIDTH 16 0
BBX 16 15 0 0
BITMAP
1110
1110
0000
0000
1110
3330
1110
1110
1110
1110
1110
1110
1110
3BB8
0000
ENDCHAR
STARTCHAR U+2173
ENCODING 8563
SWIDTH 500 0
DWIDTH 16 0
BBX 16 15 0 0
BITMAP
2000
2000
0000
0000
271C
6208
2208
2110
2110
2110
20A0
20A0
2040
7040
0000
ENDCHAR
STARTCHAR U+2174
ENCODING 8564
SWIDTH 500 0
DWIDTH 16 0
BBX 16 11 0 0
BITMAP
3838
1010
1010
0820
0820
0440
0440
0280
0100
0100
0000
ENDCHAR
STARTCHAR U+2175
ENCODING 8565
SWIDTH 500 0
DWIDTH 16 0
BBX 16 15 0 0
BITMAP
0008
0008
0000
0000
71C8
2098
2088
1108
1108
1108
0A08
0A08
0408
041C
0000
ENDCHAR
STARTCHAR U+2176
ENCODING 8566
SWIDTH 500 0
DWIDTH 16 0
BBX 16 15 0 0
BITMAP
0044
0044
0000
0000
EE44
44CC
4444
4444
4444
2844
2844
2844
1044
10EE
0000
ENDCHAR
STARTCHAR U+2177
ENCODING 8567
SWIDTH 500 0
DWIDTH 16 0
BBX 16 15 0 0
BITMAP
0092
0092
0000
0000
EE92
45B6
4492
4492
4492
2892
2892
2892
1092
11FF
0000
ENDCHAR
STARTCHAR U+2178
ENCODING 8568
SWIDTH 500 0
DWIDTH 16 0
BBX 16 15 0 0
BITMAP
2000
2000
0000
0000
238E
6104
2088
2050
2020
2020
2050
2088
2104
738E
0000
ENDCHAR
STARTCHAR U+2179
ENCODING 8569
SWIDTH 500 0
DWIDTH 16 0
BBX 16 11 0 0
BITMAP
1C70
0820
0440
0280
0100
0100
0280
0440
0820
1C70
0000
ENDCHAR
STARTCHAR U+2160
ENCODING 8544
SWIDTH 500 0
DWIDTH 16 0
BBX 16 14 0 0
BITMAP
07C0
0100
0100
0100
0100
0100
0100
0100
0100
0100
0100
0100
07C0
0000
ENDCHAR
STARTCHAR U+2161
ENCODING 8545
SWIDTH 500 0
DWIDTH 16 0
BBX 16 14 0 0
BITMAP
1FF0
0440
0440
0440
0440
0440
0440
0440
0440
0440
0440
0440
1FF0
0000
ENDCHAR
STARTCHAR U+2162
ENCODING 8546
SWIDTH 500 0
DWIDTH 16 0
BBX 16 14 0 0
BITMAP
3FF8
0920
0920
0920
0920
0920
0920
0920
0920
0920
0920
0920
3FF8
0000
ENDCHAR
STARTCHAR U+2163
ENCODING 8547
SWIDTH 500 0
DWIDTH 16 0
BBX 16 14 0 0
BITMAP
FF0E
2404
2404
2208
2208
2208
2110
2110
2110
20A0
20A0
2040
F840
0000
ENDCHAR
STARTCHAR U+2164
ENCODING 8548
SWIDTH 500 0
DWIDTH 16 0
BBX 16 14 0 0
BITMAP
F83E
2008
2008
1010
1010
0820
0820
0440
0440
0280
0280
0100
0100
0000
ENDCHAR
STARTCHAR U+2165
ENCODING 8549
SWIDTH 500 0
DWIDTH 16 0
BBX 16 14 0 0
BITMAP
E1FE
4048
4048
2088
2088
2088
1108
1108
1108
0A08
0A08
0408
043E
0000
ENDCHAR
STARTCHAR U+2166
ENCODING 8550
SWIDTH 500 0
DWIDTH 16 0
BBX 16 14 0 0
BITMAP
E3FE
4124
4124
4124
2224
2224
2224
2224
1424
1424
1424
0824
087E
0000
ENDCHAR
STARTCHAR U+2167
ENCODING 8551
SWIDTH 500 0
DWIDTH 16 0
BBX 16 14 0 0
BITMAP
E3FE
4154
4154
4154
2254
2254
2254
2254
1454
1454
1454
0854
08FE
0000
ENDCHAR
STARTCHAR U+2168
ENCODING 8552
SWIDTH 500 0
DWIDTH 16 0
BBX 16 14 0 0
BITMAP
FF1E
2404
2208
2110
2110
20A0
2040
20A0
2110
2110
2208
2404
FF1E
0000
ENDCHAR
STARTCHAR U+2169
ENCODING 8553
SWIDTH 500 0
DWIDTH 16 0
BBX 16 14 0 0
BITMAP
7C7C
1010
0820
0440
0440
0280
0100
0280
0440
0440
0820
1010
7C7C
0000
ENDCHAR
STARTCHAR U+0391
ENCODING 913
SWIDTH 500 0
DWIDTH 16 0
BBX 16 14 0 0
BITMAP
0008
0018
0038
0058
0098
0118
03F8
0418
0818
1018
783C
0000
0000
0000
ENDCHAR
STARTCHAR U+0392
ENCODING 914
SWIDTH 500 0
DWIDTH 16 0
BBX 16 14 0 0
BITMAP
3FE0
1830
1818
1818
1830
1FE0
1830
1818
1818
1830
3FE0
0000
0000
0000
ENDCHAR
STARTCHAR U+0394
ENCODING 916
SWIDTH 500 0
DWIDTH 16 0
BBX 16 14 0 0
BITMAP
0008
0018
0038
0058
0098
0118
0218
0418
0818
1018
3FFC
0000
0000
0000
ENDCHAR
STARTCHAR U+0395
ENCODING 917
SWIDTH 500 0
DWIDTH 16 0
BBX 16 14 0 0
BITMAP
3FF8
1818
1818
1800
1880
1F80
1880
1800
1818
1818
3FF8
0000
0000
0000
ENDCHAR
STARTCHAR U+0396
ENCODING 918
SWIDTH 500 0
DWIDTH 16 0
BBX 16 14 0 0
BITMAP
1FFC
1818
1830
0060
00C0
0180
0300
0600
0C18
1818
3FF8
0000
0000
0000
ENDCHAR
STARTCHAR U+0397
ENCODING 919
SWIDTH 500 0
DWIDTH 16 0
BBX 16 14 0 0
BITMAP
3C3C
1818
1818
1818
1818
1FF8
1818
1818
1818
1818
3C3C
0000
0000
0000
ENDCHAR
STARTCHAR U+0399
ENCODING 921
SWIDTH 500 0
DWIDTH 16 0
BBX 16 14 0 0
BITMAP
07E0
03C0
0180
0180
0180
0180
0180
0180
0180
03C0
07E0
0000
0000
0000
ENDCHAR
STARTCHAR U+039a
ENCODING 922
SWIDTH 500 0
DWIDTH 16 0
BBX 16 14 0 0
BITMAP
3C1C
1810
1820
1840
1880
1F00
1980
18C0
1860
1830
3C3C
0000
0000
0000
ENDCHAR
STARTCHAR U+039b
ENCODING 923
SWIDTH 500 0
DWIDTH 16 0
BBX 16 14 0 0
BITMAP
0008
0018
0038
0058
0098
0118
0218
0418
0818
1018
703C
0000
0000
0000
ENDCHAR
STARTCHAR U+039c
ENCODING 924
SWIDTH 500 0
DWIDTH 16 0
BBX 16 14 0 0
BITMAP
701C
3038
3858
2C98
2718
2218
2018
2018
2018
2018
703C
0000
0000
0000
ENDCHAR
STARTCHAR U+039d
ENCODING 925
SWIDTH 500 0
DWIDTH 16 0
BBX 16 14 0 0
BITMAP
701C
3008
3808
2C08
2608
2308
2188
20C8
2068
2038
703C
0000
0000
0000
ENDCHAR
STARTCHAR U+039e
ENCODING 926
SWIDTH 500 0
DWIDTH 16 0
BBX 16 14 0 0
BITMAP
3FFC
3FFC
2004
0000
0810
0FF0
0810
0000
2004
3FFC
3FFC
0000
0000
0000
ENDCHAR
STARTCHAR U+039f
ENCODING 927
SWIDTH 500 0
DWIDTH 16 0
BBX 16 14 0 0
BITMAP
0EE0
1830
3018
3018
3018
3018
3018
3018
3018
1830
0EE0
0000
0000
0000
ENDCHAR
STARTCHAR U+03a0
ENCODING 928
SWIDTH 500 0
DWIDTH 16 0
BBX 16 14 0 0
BITMAP
3FFC
0C30
0C30
0C30
0C30
0C30
0C30
0C30
0C30
0C30
1E78
0000
0000
0000
ENDCHAR
STARTCHAR U+03a1
ENCODING 929
SWIDTH 500 0
DWIDTH 16 0
BBX 16 14 0 0
BITMAP
3FF0
1818
180C
1818
1FF0
1800
1800
1800
1800
1800
3C00
0000
0000
0000
ENDCHAR
STARTCHAR U+03a4
ENCODING 932
SWIDTH 500 0
DWIDTH 16 0
BBX 16 14 0 0
BITMAP
3FFC
318C
2184
0180
0180
0180
0180
0180
0180
0180
03C0
0000
0000
0000
ENDCHAR
STARTCHAR U+03a5
ENCODING 933
SWIDTH 500 0
DWIDTH 16 0
BBX 16 14 0 0
BITMAP
1CF0
2798
0318
0300
0300
0300
0300
0300
0300
0300
0780
0000
0000
0000
ENDCHAR
STARTCHAR U+03a7
ENCODING 935
SWIDTH 500 0
DWIDTH 16 0
BBX 16 14 0 0
BITMAP
781C
1810
0C20
0640
0380
0180
02C0
0460
0830
1018
701E
0000
0000
0000
ENDCHAR
STARTCHAR U+03a8
ENCODING 936
SWIDTH 500 0
DWIDTH 16 0
BBX 16 14 0 0
BITMAP
73CE
318C
318C
318C
318C
318C
1998
0FF0
0180
0180
03C0
0000
0000
0000
ENDCHAR
STARTCHAR U+03b2
ENCODING 946
SWIDTH 500 0
DWIDTH 16 0
BBX 16 12 0 0
BITMAP
03E0
0C30
1830
19C0
1860
1830
1830
1860
1B80
1800
1800
0000
ENDCHAR
STARTCHAR U+03b3
ENCODING 947
SWIDTH 500 0
DWIDTH 16 0
BBX 16 11 0 0
BITMAP
1838
0C44
0680
0700
0600
0600
0600
0600
0600
0000
0000
ENDCHAR
STARTCHAR U+03b5
ENCODING 949
SWIDTH 500 0
DWIDTH 16 0
BBX 16 11 0 0
BITMAP
07F0
1800
3000
3FC0
3000
3000
3000
0FE0
0000
0000
0000
ENDCHAR
STARTCHAR U+03b6
ENCODING 950
SWIDTH 500 0
DWIDTH 16 0
BBX 16 15 0 0
BITMAP
0400
03E0
00C0
0180
0300
0600
0C00
0C00
0C00
03C0
0030
0030
00C0
0000
0000
ENDCHAR
STARTCHAR U+03b7
ENCODING 951
SWIDTH 500 0
DWIDTH 16 0
BBX 16 11 0 0
BITMAP
39E0
0E18
0C18
0C18
0C18
0C18
0C18
0C18
0018
0018
0000
ENDCHAR
STARTCHAR U+03b8
ENCODING 952
SWIDTH 500 0
DWIDTH 16 0
BBX 16 12 0 0
BITMAP
0380
0C60
1830
1830
1FF0
1830
1830
0C60
0380
0000
0000
0000
ENDCHAR
STARTCHAR U+03b9
ENCODING 953
SWIDTH 500 0
DWIDTH 16 0
BBX 16 11 0 0
BITMAP
0100
0300
0700
0300
0300
0300
0320
01C0
0000
0000
0000
ENDCHAR
STARTCHAR U+03ba
ENCODING 954
SWIDTH 500 0
DWIDTH 16 0
BBX 16 12 0 0
BITMAP
001C
0C60
0C80
0D00
0F00
0CC0
0C30
0C30
0C1C
0000
0000
0000
ENDCHAR
STARTCHAR U+03bb
ENCODING 955
SWIDTH 500 0
DWIDTH 16 0
BBX 16 12 0 0
BITMAP
0780
00C0
0060
0060
00E0
0160
0230
0C18
3006
0000
0000
0000
ENDCHAR
STARTCHAR U+03bc
ENCODING 956
SWIDTH 500 0
DWIDTH 16 0
BBX 16 11 0 0
BITMAP
3830
1830
1830
1830
1830
1830
1830
17D8
1000
1000
0000
ENDCHAR
STARTCHAR U+03bd
ENCODING 957
SWIDTH 500 0
DWIDTH 16 0
BBX 16 11 0 0
BITMAP
3838
1818
1818
1810
1820
18C0
1B00
1800
0000
0000
0000
ENDCHAR
STARTCHAR U+03be
ENCODING 958
SWIDTH 500 0
DWIDTH 16 0
BBX 16 15 0 0
BITMAP
0100
00F8
0300
0300
00F0
0300
0600
0C00
0C00
0600
03C0
0030
0030
00C0
0000
ENDCHAR
STARTCHAR U+03bf
ENCODING 959
SWIDTH 500 0
DWIDTH 16 0
BBX 16 11 0 0
BITMAP
03C0
0C30
1818
1818
1818
1818
0C30
03C0
0000
0000
0000
ENDCHAR
STARTCHAR U+03c1
ENCODING 961
SWIDTH 500 0
DWIDTH 16 0
BBX 16 11 0 0
BITMAP
07E0
0C18
1818
1818
1818
1818
1C30
19C0
1800
1800
0000
ENDCHAR
STARTCHAR U+03c5
ENCODING 965
SWIDTH 500 0
DWIDTH 16 0
BBX 16 11 0 0
BITMAP
7030
1808
1808
1808
1808
1810
0C60
0780
0000
0000
0000
ENDCHAR
STARTCHAR U+03c6
ENCODING 966
SWIDTH 500 0
DWIDTH 16 0
BBX 16 11 0 0
BITMAP
00C0
1930
3118
3118
3118
3118
1930
07C0
0100
0200
0000
ENDCHAR
STARTCHAR U+03c7
ENCODING 967
SWIDTH 500 0
DWIDTH 16 0
BBX 16 11 0 0
BITMAP
1818
0620
0340
0180
0180
02C0
0460
1818
0000
0000
0000
ENDCHAR
STARTCHAR U+03c8
ENCODING 968
SWIDTH 500 0
DWIDTH 16 0
BBX 16 12 0 0
BITMAP
0100
610C
3118
3118
3118
3118
3118
1930
07C0
0100
0100
0000
ENDCHAR
STARTCHAR U+03c9
ENCODING 969
SWIDTH 500 0
DWIDTH 16 0
BBX 16 11 0 0
BITMAP
0C30
1818
300C
318C
318C
318C
1BD8
0E70
0000
0000
0000
ENDCHAR
STARTCHAR U+2501
ENCODING 9473
SWIDTH 500 0
DWIDTH 16 0
BBX 16 10 0 0
BITMAP
FFFF
FFFF
FFFF
FFFF
0000
0000
0000
0000
0000
0000
ENDCHAR
STARTCHAR U+2503
ENCODING 9475
SWIDTH 500 0
DWIDTH 16 0
BBX 16 16 0 0
BITMAP
03C0
03C0
03C0
03C0
03C0
03C0
03C0
03C0
03C0
03C0
03C0
03C0
03C0
03C0
03C0
03C0
ENDCHAR
STARTCHAR U+250f
ENCODING 9487
SWIDTH 500 0
DWIDTH 16 0
BBX 16 10 0 0
BITMAP
03FF
03FF
03FF
03FF
03C0
03C0
03C0
03C0
03C0
03C0
ENDCHAR
STARTCHAR U+2513
ENCODING 9491
SWIDTH 500 0
DWIDTH 16 0
BBX 16 10 0 0
BITMAP
FFC0
FFC0
FFC0
FFC0
03C0
03C0
03C0
03C0
03C0
03C0
ENDCHAR
STARTCHAR U+251b
ENCODING 9499
SWIDTH 500 0
DWIDTH 16 0
BBX 16 16 0 0
BITMAP
03C0
03C0
03C0
03C0
03C0
03C0
FFC0
FFC0
FFC0
FFC0
0000
0000
0000
0000
0000
0000
ENDCHAR
STARTCHAR U+2517
ENCODING 9495
SWIDTH 500 0
DWIDTH 16 0
BBX 16 16 0 0
BITMAP
03C0
03C0
03C0
03C0
03C0
03C0
03FF
03FF
03FF
03FF
0000
0000
0000
0000
0000
0000
ENDCHAR
STARTCHAR U+2523
ENCODING 9507
SWIDTH 500 0
DWIDTH 16 0
BBX 16 16 0 0
BITMAP
03C0
03C0
03C0
03C0
03C0
03C0
03FF
03FF
03FF
03FF
03C0
03C0
03C0
03C0
03C0
03C0
ENDCHAR
STARTCHAR U+2533
ENCODING 9523
SWIDTH 500 0
DWIDTH 16 0
BBX 16 10 0 0
BITMAP
FFFF
FFFF
FFFF
FFFF
03C0
03C0
03C0
03C0
03C0
03C0
ENDCHAR
STARTCHAR U+252b
ENCODING 9515
SWIDTH 500 0
DWIDTH 16 0
BBX 16 16 0 0
BITMAP
03C0
03C0
03C0
03C0
03C0
03C0
FFC0
FFC0
FFC0
FFC0
03C0
03C0
03C0
03C0
03C0
03C0
ENDCHAR
STARTCHAR U+253b
ENCODING 9531
SWIDTH 500 0
DWIDTH 16 0
BBX 16 16 0 0
BITMAP
03C0
03C0
03C0
03C0
03C0
03C0
FFFF
FFFF
FFFF
FFFF
0000
0000
0000
0000
0000
0000
ENDCHAR
STARTCHAR U+254b
ENCODING 9547
SWIDTH 500 0
DWIDTH 16 0
BBX 16 16 0 0
BITMAP
03C0
03C0
03C0
03C0
03C0
03C0
FFFF
FFFF
FFFF
FFFF
03C0
03C0
03C0
03C0
03C0
03C0
ENDCHAR
STARTCHAR U+2520
ENCODING 9504
SWIDTH 500 0
DWIDTH 16 0
BBX 16 16 0 0
BITMAP
03C0
03C0
03C0
03C0
03C0
03C0
03C0
03FF
03FF
03C0
03C0
03C0
03C0
03C0
03C0
03C0
ENDCHAR
STARTCHAR U+252f
ENCODING 9519
SWIDTH 500 0
DWIDTH 16 0
BBX 16 10 0 0
BITMAP
FFFF
FFFF
FFFF
FFFF
0180
0180
0180
0180
0180
0180
ENDCHAR
STARTCHAR U+2528
ENCODING 9512
SWIDTH 500 0
DWIDTH 16 0
BBX 16 16 0 0
BITMAP
03C0
03C0
03C0
03C0
03C0
03C0
03C0
FFC0
FFC0
03C0
03C0
03C0
03C0
03C0
03C0
03C0
ENDCHAR
STARTCHAR U+2537
ENCODING 9527
SWIDTH 500 0
DWIDTH 16 0
BBX 16 16 0 0
BITMAP
0180
0180
0180
0180
0180
0180
FFFF
FFFF
FFFF
FFFF
0000
0000
0000
0000
0000
0000
ENDCHAR
STARTCHAR U+253f
ENCODING 9535
SWIDTH 500 0
DWIDTH 16 0
BBX 16 16 0 0
BITMAP
0180
0180
0180
0180
0180
0180
FFFF
FFFF
FFFF
FFFF
0180
0180
0180
0180
0180
0180
ENDCHAR
STARTCHAR U+251d
ENCODING 9501
SWIDTH 500 0
DWIDTH 16 0
BBX 16 16 0 0
BITMAP
0180
0180
0180
0180
0180
0180
01FF
01FF
01FF
01FF
0180
0180
0180
0180
0180
0180
ENDCHAR
STARTCHAR U+2530
ENCODING 9520
SWIDTH 500 0
DWIDTH 16 0
BBX 16 9 0 0
BITMAP
FFFF
FFFF
03C0
03C0
03C0
03C0
03C0
03C0
03C0
ENDCHAR
STARTCHAR U+2525
ENCODING 9509
SWIDTH 500 0
DWIDTH 16 0
BBX 16 16 0 0
BITMAP
0180
0180
0180
0180
0180
0180
FF80
FF80
FF80
FF80
0180
0180
0180
0180
0180
0180
ENDCHAR
STARTCHAR U+2538
ENCODING 9528
SWIDTH 500 0
DWIDTH 16 0
BBX 16 16 0 0
BITMAP
03C0
03C0
03C0
03C0
03C0
03C0
03C0
FFFF
FFFF
0000
0000
0000
0000
0000
0000
0000
ENDCHAR
STARTCHAR U+2542
ENCODING 9538
SWIDTH 500 0
DWIDTH 16 0
BBX 16 16 0 0
BITMAP
03C0
03C0
03C0
03C0
03C0
03C0
03C0
FFFF
FFFF
03C0
03C0
03C0
03C0
03C0
03C0
03C0
ENDCHAR
STARTCHAR U+2512
ENCODING 9490
SWIDTH 500 0
DWIDTH 16 0
BBX 16 9 0 0
BITMAP
FFC0
FFC0
03C0
03C0
03C0
03C0
03C0
03C0
03C0
ENDCHAR
STARTCHAR U+2511
ENCODING 9489
SWIDTH 500 0
DWIDTH 16 0
BBX 16 10 0 0
BITMAP
FF80
FF80
FF80
FF80
0180
0180
0180
0180
0180
0180
ENDCHAR
STARTCHAR U+251a
ENCODING 9498
SWIDTH 500 0
DWIDTH 16 0
BBX 16 16 0 0
BITMAP
03C0
03C0
03C0
03C0
03C0
03C0
03C0
FFC0
FFC0
0000
0000
0000
0000
0000
0000
0000
ENDCHAR
STARTCHAR U+2519
ENCODING 9497
SWIDTH 500 0
DWIDTH 16 0
BBX 16 16 0 0
BITMAP
0180
0180
0180
0180
0180
0180
FF80
FF80
FF80
FF80
0000
0000
0000
0000
0000
0000
ENDCHAR
STARTCHAR U+2516
ENCODING 9494
SWIDTH 500 0
DWIDTH 16 0
BBX 16 16 0 0
BITMAP
03C0
03C0
03C0
03C0
03C0
03C0
03C0
03FF
03FF
0000
0000
0000
0000
0000
0000
0000
ENDCHAR
STARTCHAR U+2515
ENCODING 9493
SWIDTH 500 0
DWIDTH 16 0
BBX 16 16 0 0
BITMAP
0180
0180
0180
0180
0180
0180
01FF
01FF
01FF
01FF
0000
0000
0000
0000
0000
0000
ENDCHAR
STARTCHAR U+250e
ENCODING 9486
SWIDTH 500 0
DWIDTH 16 0
BBX 16 9 0 0
BITMAP
03FF
03FF
03C0
03C0
03C0
03C0
03C0
03C0
03C0
ENDCHAR
STARTCHAR U+250d
ENCODING 9485
SWIDTH 500 0
DWIDTH 16 0
BBX 16 10 0 0
BITMAP
01FF
01FF
01FF
01FF
0180
0180
0180
0180
0180
0180
ENDCHAR
STARTCHAR U+251e
ENCODING 9502
SWIDTH 500 0
DWIDTH 16 0
BBX 16 16 0 0
BITMAP
03C0
03C0
03C0
03C0
03C0
03C0
03C0
01FF
01FF
0180
0180
0180
0180
0180
0180
0180
ENDCHAR
STARTCHAR U+251f
ENCODING 9503
SWIDTH 500 0
DWIDTH 16 0
BBX 16 16 0 0
BITMAP
0180
0180
0180
0180
0180
0180
0180
01FF
01FF
03C0
03C0
03C0
03C0
03C0
03C0
03C0
ENDCHAR
STARTCHAR U+2521
ENCODING 9505
SWIDTH 500 0
DWIDTH 16 0
BBX 16 16 0 0
BITMAP
03C0
03C0
03C0
03C0
03C0
03C0
03FF
03FF
03FF
03FF
0180
0180
0180
0180
0180
0180
ENDCHAR
STARTCHAR U+2522
ENCODING 9506
SWIDTH 500 0
DWIDTH 16 0
BBX 16 16 0 0
BITMAP
0180
0180
0180
0180
0180
0180
03FF
03FF
03FF
03FF
03C0
03C0
03C0
03C0
03C0
03C0
ENDCHAR
STARTCHAR U+2526
ENCODING 9510
SWIDTH 500 0
DWIDTH 16 0
BBX 16 16 0 0
BITMAP
03C0
03C0
03C0
03C0
03C0
03C0
03C0
FF80
FF80
0180
0180
0180
0180
0180
0180
0180
ENDCHAR
STARTCHAR U+2527
ENCODING 9511
SWIDTH 500 0
DWIDTH 16 0
BBX 16 16 0 0
BITMAP
0180
0180
0180
0180
0180
0180
0180
FF80
FF80
03C0
03C0
03C0
03C0
03C0
03C0
03C0
ENDCHAR
STARTCHAR U+2529
ENCODING 9513
SWIDTH 500 0
DWIDTH 16 0
BBX 16 16 0 0
BITMAP
03C0
03C0
03C0
03C0
03C0
03C0
FFC0
FFC0
FFC0
FFC0
0180
0180
0180
0180
0180
0180
ENDCHAR
STARTCHAR U+252a
ENCODING 9514
SWIDTH 500 0
DWIDTH 16 0
BBX 16 16 0 0
BITMAP
0180
0180
0180
0180
0180
0180
FFC0
FFC0
FFC0
FFC0
03C0
03C0
03C0
03C0
03C0
03C0
ENDCHAR
STARTCHAR U+252d
ENCODING 9517
SWIDTH 500 0
DWIDTH 16 0
BBX 16 10 0 0
BITMAP
FE00
FFFF
FFFF
FF80
0180
0180
0180
0180
0180
0180
ENDCHAR
STARTCHAR U+252e
ENCODING 9518
SWIDTH 500 0
DWIDTH 16 0
BBX 16 10 0 0
BITMAP
007F
FFFF
FFFF
01FF
0180
0180
0180
0180
0180
0180
ENDCHAR
STARTCHAR U+2531
ENCODING 9521
SWIDTH 500 0
DWIDTH 16 0
BBX 16 10 0 0
BITMAP
FFC0
FFFF
FFFF
FFC0
03C0
03C0
03C0
03C0
03C0
03C0
ENDCHAR
STARTCHAR U+2532
ENCODING 9522
SWIDTH 500 0
DWIDTH 16 0
BBX 16 10 0 0
BITMAP
03FF
FFFF
FFFF
03FF
03C0
03C0
03C0
03C0
03C0
03C0
ENDCHAR
STARTCHAR U+2535
ENCODING 9525
SWIDTH 500 0
DWIDTH 16 0
BBX 16 16 0 0
BITMAP
0180
0180
0180
0180
0180
0180
FF80
FFFF
FFFF
FE00
0000
0000
0000
0000
0000
0000
ENDCHAR
STARTCHAR U+2536
ENCODING 9526
SWIDTH 500 0
DWIDTH 16 0
BBX 16 16 0 0
BITMAP
0180
0180
0180
0180
0180
0180
01FF
FFFF
FFFF
007F
0000
0000
0000
0000
0000
0000
ENDCHAR
STARTCHAR U+2539
ENCODING 9529
SWIDTH 500 0
DWIDTH 16 0
BBX 16 16 0 0
BITMAP
03C0
03C0
03C0
03C0
03C0
03C0
FFC0
FFFF
FFFF
FFC0
0000
0000
0000
0000
0000
0000
ENDCHAR
STARTCHAR U+253a
ENCODING 9530
SWIDTH 500 0
DWIDTH 16 0
BBX 16 16 0 0
BITMAP
03C0
03C0
03C0
03C0
03C0
03C0
03FF
FFFF
FFFF
03FF
0000
0000
0000
0000
0000
0000
ENDCHAR
STARTCHAR U+253d
ENCODING 9533
SWIDTH 500 0
DWIDTH 16 0
BBX 16 16 0 0
BITMAP
0180
0180
0180
0180
0180
0180
FF80
FFFF
FFFF
FF80
0180
0180
0180
0180
0180
0180
ENDCHAR
STARTCHAR U+253e
ENCODING 9534
SWIDTH 500 0
DWIDTH 16 0
BBX 16 16 0 0
BITMAP
0180
0180
0180
0180
0180
0180
01FF
FFFF
FFFF
01FF
0180
0180
0180
0180
0180
0180
ENDCHAR
STARTCHAR U+2540
ENCODING 9536
SWIDTH 500 0
DWIDTH 16 0
BBX 16 16 0 0
BITMAP
03C0
03C0
03C0
03C0
03C0
03C0
03C0
FFFF
FFFF
0180
0180
0180
0180
0180
0180
0180
ENDCHAR
STARTCHAR U+2541
ENCODING 9537
SWIDTH 500 0
DWIDTH 16 0
BBX 16 16 0 0
BITMAP
0180
0180
0180
0180
0180
0180
0180
FFFF
FFFF
03C0
03C0
03C0
03C0
03C0
03C0
03C0
ENDCHAR
STARTCHAR U+2543
ENCODING 9539
SWIDTH 500 0
DWIDTH 16 0
BBX 16 16 0 0
BITMAP
03C0
03C0
03C0
03C0
03C0
03C0
FFC0
FFFF
FFFF
FFC0
0180
0180
0180
0180
0180
0180
ENDCHAR
STARTCHAR U+2544
ENCODING 9540
SWIDTH 500 0
DWIDTH 16 0
BBX 16 16 0 0
BITMAP
03C0
03C0
03C0
03C0
03C0
03C0
03FF
FFFF
FFFF
03FF
0180
0180
0180
0180
0180
0180
ENDCHAR
STARTCHAR U+2545
ENCODING 9541
SWIDTH 500 0
DWIDTH 16 0
BBX 16 16 0 0
BITMAP
0180
0180
0180
0180
0180
0180
FFC0
FFFF
FFFF
FFC0
03C0
03C0
03C0
03C0
03C0
03C0
ENDCHAR
STARTCHAR U+2546
ENCODING 9542
SWIDTH 500 0
DWIDTH 16 0
BBX 16 16 0 0
BITMAP
0180
0180
0180
0180
0180
0180
03FF
FFFF
FFFF
03FF
03C0
03C0
03C0
03C0
03C0
03C0
ENDCHAR
STARTCHAR U+2547
ENCODING 9543
SWIDTH 500 0
DWIDTH 16 0
BBX 16 16 0 0
BITMAP
03C0
03C0
03C0
03C0
03C0
03C0
FFFF
FFFF
FFFF
FFFF
0180
0180
0180
0180
0180
0180
ENDCHAR
STARTCHAR U+2548
ENCODING 9544
SWIDTH 500 0
DWIDTH 16 0
BBX 16 16 0 0
BITMAP
0180
0180
0180
0180
0180
0180
FFFF
FFFF
FFFF
FFFF
03C0
03C0
03C0
03C0
03C0
03C0
ENDCHAR
STARTCHAR U+2549
ENCODING 9545
SWIDTH 500 0
DWIDTH 16 0
BBX 16 16 0 0
BITMAP
03C0
03C0
03C0
03C0
03C0
03C0
FFC0
FFFF
FFFF
FFC0
03C0
03C0
03C0
03C0
03C0
03C0
ENDCHAR
STARTCHAR U+254a
ENCODING 9546
SWIDTH 500 0
DWIDTH 16 0
BBX 16 16 0 0
BITMAP
03C0
03C0
03C0
03C0
03C0
03C0
03FF
FFFF
FFFF
03FF
03C0
03C0
03C0
03C0
03C0
03C0
ENDCHAR
STARTCHAR U+3395
ENCODING 13205
SWIDTH 500 0
DWIDTH 16 0
BBX 16 12 0 0
BITMAP
000C
0852
1092
1092
2112
2114
6218
5DEC
8000
8000
0000
0000
ENDCHAR
STARTCHAR U+3396
ENCODING 13206
SWIDTH 500 0
DWIDTH 16 0
BBX 16 12 0 0
BITMAP
000C
0012
7B12
2492
2492
2494
2498
64E6
0000
0000
0000
0000
ENDCHAR
STARTCHAR U+3397
ENCODING 13207
SWIDTH 500 0
DWIDTH 16 0
BBX 16 13 0 0
BITMAP
0200
0218
0224
0224
3E24
4224
4228
4230
3ECC
0000
0000
0000
0000
ENDCHAR
STARTCHAR U+2113
ENCODING 8467
SWIDTH 500 0
DWIDTH 16 0
BBX 16 13 0 0
BITMAP
0180
0240
0240
0240
0240
0240
0280
0320
0DC0
0000
0000
0000
0000
ENDCHAR
STARTCHAR U+3398
ENCODING 13208
SWIDTH 500 0
DWIDTH 16 0
BBX 16 13 0 0
BITMAP
6000
2018
2224
2424
2824
3024
2828
2430
734C
0000
0000
0000
0000
ENDCHAR
STARTCHAR U+33c4
ENCODING 13252
SWIDTH 500 0
DWIDTH 16 0
BBX 16 9 0 0
BITMAP
1E78
268C
2080
2184
1E78
0000
0000
0000
0000
ENDCHAR
STARTCHAR U+33a3
ENCODING 13219
SWIDTH 500 0
DWIDTH 16 0
BBX 16 16 0 0
BITMAP
0006
0009
0002
0009
0006
0000
7CF8
2A54
2A54
2A54
2A54
2BD6
0000
0000
0000
0000
ENDCHAR
STARTCHAR U+33a4
ENCODING 13220
SWIDTH 500 0
DWIDTH 16 0
BBX 16 16 0 0
BITMAP
0006
0009
0002
0009
0006
0000
3CF8
4254
4054
4054
4254
3C56
0000
0000
0000
0000
ENDCHAR
STARTCHAR U+33a5
ENCODING 13221
SWIDTH 500 0
DWIDTH 16 0
BBX 16 16 0 0
BITMAP
0006
0009
0002
0009
0006
1F60
0490
0490
0490
0490
0490
0C98
0000
0000
0000
0000
ENDCHAR
STARTCHAR U+33a6
ENCODING 13222
SWIDTH 500 0
DWIDTH 16 0
BBX 16 16 0 0
BITMAP
0006
0009
0002
6009
2006
2200
2400
28F8
3054
2854
2454
7356
0000
0000
0000
0000
ENDCHAR
STARTCHAR U+3399
ENCODING 13209
SWIDTH 500 0
DWIDTH 16 0
BBX 16 14 0 0
BITMAP
0600
0900
0800
0800
3E00
08F8
0854
0854
0854
1C56
0000
0000
0000
0000
ENDCHAR
STARTCHAR U+339a
ENCODING 13210
SWIDTH 500 0
DWIDTH 16 0
BBX 16 9 0 0
BITMAP
5CF8
2254
2254
2254
2356
0000
0000
0000
0000
ENDCHAR
STARTCHAR U+339b
ENCODING 13211
SWIDTH 500 0
DWIDTH 16 0
BBX 16 11 0 0
BITMAP
0880
11F8
1154
2254
2254
6454
5BD6
8000
8000
0000
0000
ENDCHAR
STARTCHAR U+339c
ENCODING 13212
SWIDTH 500 0
DWIDTH 16 0
BBX 16 10 0 0
BITMAP
7CF8
2A54
2A54
2A54
2A54
2BD6
0000
0000
0000
0000
ENDCHAR
STARTCHAR U+339d
ENCODING 13213
SWIDTH 500 0
DWIDTH 16 0
BBX 16 10 0 0
BITMAP
3CF8
4254
4054
4054
4254
3C56
0000
0000
0000
0000
ENDCHAR
STARTCHAR U+339e
ENCODING 13214
SWIDTH 500 0
DWIDTH 16 0
BBX 16 13 0 0
BITMAP
6000
2000
2200
2400
28F8
3054
2854
2454
7356
0000
0000
0000
0000
ENDCHAR
STARTCHAR U+339f
ENCODING 13215
SWIDTH 500 0
DWIDTH 16 0
BBX 16 15 0 0
BITMAP
0007
0009
0002
000F
0000
7CF8
2A54
2A54
2A54
2A54
2BD6
0000
0000
0000
0000
ENDCHAR
STARTCHAR U+33a0
ENCODING 13216
SWIDTH 500 0
DWIDTH 16 0
BBX 16 15 0 0
BITMAP
0007
0009
0002
000F
0000
3CF8
4254
4054
4054
4254
3C56
0000
0000
0000
0000
ENDCHAR
STARTCHAR U+33a1
ENCODING 13217
SWIDTH 500 0
DWIDTH 16 0
BBX 16 15 0 0
BITMAP
000E
0012
0004
001E
1F60
0490
0490
0490
0490
0490
0C98
0000
0000
0000
0000
ENDCHAR
STARTCHAR U+33a2
ENCODING 13218
SWIDTH 500 0
DWIDTH 16 0
BBX 16 15 0 0
BITMAP
0007
0009
6002
200F
2200
2400
28F8
3054
2854
2454
7356
0000
0000
0000
0000
ENDCHAR
STARTCHAR U+33ca
ENCODING 13258
SWIDTH 500 0
DWIDTH 16 0
BBX 16 13 0 0
BITMAP
3000
1000
1000
1638
1904
113C
1144
1144
31BE
0000
0000
0000
0000
ENDCHAR
STARTCHAR U+338d
ENCODING 13197
SWIDTH 500 0
DWIDTH 16 0
BBX 16 13 0 0
BITMAP
0008
001C
0862
10A2
109C
2120
213C
6342
5D42
80BC
8000
0000
0000
ENDCHAR
STARTCHAR U+338e
ENCODING 13198
SWIDTH 500 0
DWIDTH 16 0
BBX 16 13 0 0
BITMAP
0008
001C
7C62
2A22
2A1C
2A20
2A3C
2A42
2B42
00BC
0000
0000
0000
ENDCHAR
STARTCHAR U+338f
ENCODING 13199
SWIDTH 500 0
DWIDTH 16 0
BBX 16 13 0 0
BITMAP
6008
201C
2262
2422
281C
3020
283C
2442
7342
00BC
0000
0000
0000
ENDCHAR
STARTCHAR U+33cf
ENCODING 13263
SWIDTH 500 0
DWIDTH 16 0
BBX 16 13 0 0
BITMAP
6020
2020
2220
24F8
2820
3020
2820
2424
7318
0000
0000
0000
0000
ENDCHAR
STARTCHAR U+3388
ENCODING 13192
SWIDTH 500 0
DWIDTH 16 0
BBX 16 13 0 0
BITMAP
000C
0004
0004
39C4
4424
41E4
4224
4624
39EE
0000
0000
0000
0000
ENDCHAR
STARTCHAR U+3389
ENCODING 13193
SWIDTH 500 0
DWIDTH 16 0
BBX 16 13 0 0
BITMAP
4006
4002
4002
4002
4B32
548A
643A
544A
4BBE
0000
0000
0000
0000
ENDCHAR
STARTCHAR U+33c8
ENCODING 13256
SWIDTH 500 0
DWIDTH 16 0
BBX 16 12 0 0
BITMAP
06F8
0284
0284
1EF8
2284
4284
4284
3EF8
0000
0000
0000
0000
ENDCHAR
STARTCHAR U+33a7
ENCODING 13223
SWIDTH 500 0
DWIDTH 16 0
BBX 16 13 0 0
BITMAP
7C08
2A10
2A20
2A40
0080
0118
0220
0418
0804
1024
0058
0000
0000
ENDCHAR
STARTCHAR U+33a8
ENCODING 13224
SWIDTH 500 0
DWIDTH 16 0
BBX 16 14 0 0
BITMAP
0008
7C16
2A29
2A42
2A8F
0100
0218
0420
0818
1004
2024
0058
0000
0000
ENDCHAR
STARTCHAR U+33b0
ENCODING 13232
SWIDTH 500 0
DWIDTH 16 0
BBX 16 11 0 0
BITMAP
7E3C
2142
2140
213C
3E02
2042
20BC
2000
2000
0000
0000
ENDCHAR
STARTCHAR U+33b1
ENCODING 13233
SWIDTH 500 0
DWIDTH 16 0
BBX 16 11 0 0
BITMAP
5C3C
2242
2240
223C
2202
2242
23BC
0000
0000
0000
0000
ENDCHAR
STARTCHAR U+33b2
ENCODING 13234
SWIDTH 500 0
DWIDTH 16 0
BBX 16 11 0 0
BITMAP
085C
10A2
10A0
211C
2102
6242
5DBC
8000
8000
0000
0000
ENDCHAR
STARTCHAR U+33b3
ENCODING 13235
SWIDTH 500 0
DWIDTH 16 0
BBX 16 11 0 0
BITMAP
7C3C
2A42
2A40
2A3C
2A02
2A42
2BBC
0000
0000
0000
0000
ENDCHAR
STARTCHAR U+33b4
ENCODING 13236
SWIDTH 500 0
DWIDTH 16 0
BBX 16 13 0 0
BITMAP
0306
0104
FD04
4288
4288
4250
7C50
4020
4020
4000
4000
0000
0000
ENDCHAR
STARTCHAR U+33b5
ENCODING 13237
SWIDTH 500 0
DWIDTH 16 0
BBX 16 13 0 0
BITMAP
0306
0104
B904
4488
4488
4450
4450
4420
4720
0000
0000
0000
0000
ENDCHAR
STARTCHAR U+33b6
ENCODING 13238
SWIDTH 500 0
DWIDTH 16 0
BBX 16 13 0 0
BITMAP
0183
0082
0882
1044
10C4
2128
2128
6210
5D90
8000
8000
0000
0000
ENDCHAR
STARTCHAR U+33b7
ENCODING 13239
SWIDTH 500 0
DWIDTH 16 0
BBX 16 13 0 0
BITMAP
0183
0082
7C82
2A44
2A44
2A28
2A28
2A10
2B90
0000
0000
0000
0000
ENDCHAR
STARTCHAR U+33b8
ENCODING 13240
SWIDTH 500 0
DWIDTH 16 0
BBX 16 13 0 0
BITMAP
6183
2082
2282
2444
2844
3028
2828
2410
7310
0000
0000
0000
0000
ENDCHAR
STARTCHAR U+33b9
ENCODING 13241
SWIDTH 500 0
DWIDTH 16 0
BBX 16 13 0 0
BITMAP
6383
3682
3682
2A44
2A44
2A28
2228
2210
7710
0000
0000
0000
0000
ENDCHAR
STARTCHAR U+3380
ENCODING 13184
SWIDTH 500 0
DWIDTH 16 0
BBX 16 13 0 0
BITMAP
0010
0010
7E28
2128
2144
217C
3E82
2082
2183
2000
2000
0000
0000
ENDCHAR
STARTCHAR U+3381
ENCODING 13185
SWIDTH 500 0
DWIDTH 16 0
BBX 16 13 0 0
BITMAP
0010
0010
5C28
2228
2244
227C
2282
2282
2383
0000
0000
0000
0000
ENDCHAR
STARTCHAR U+3382
ENCODING 13186
SWIDTH 500 0
DWIDTH 16 0
BBX 16 13 0 0
BITMAP
0010
0010
0868
10A8
10C4
217C
2182
6282
5D83
8000
8000
0000
0000
ENDCHAR
STARTCHAR U+3383
ENCODING 13187
SWIDTH 500 0
DWIDTH 16 0
BBX 16 13 0 0
BITMAP
0010
0010
7C28
2A28
2A44
2A7C
2A82
2A82
2B83
0000
0000
0000
0000
ENDCHAR
STARTCHAR U+3384
ENCODING 13188
SWIDTH 500 0
DWIDTH 16 0
BBX 16 13 0 0
BITMAP
6010
2010
2228
2428
2844
307C
2882
2482
7383
0000
0000
0000
0000
ENDCHAR
STARTCHAR U+33ba
ENCODING 13242
SWIDTH 500 0
DWIDTH 16 0
BBX 16 11 0 0
BITMAP
7E92
2192
2192
2192
3E92
2092
206C
2000
2000
0000
0000
ENDCHAR
STARTCHAR U+33bb
ENCODING 13243
SWIDTH 500 0
DWIDTH 16 0
BBX 16 11 0 0
BITMAP
5C92
2292
2292
2292
2292
2292
236C
0000
0000
0000
0000
ENDCHAR
STARTCHAR U+33bc
ENCODING 13244
SWIDTH 500 0
DWIDTH 16 0
BBX 16 11 0 0
BITMAP
0882
1092
1092
2192
2192
6292
5E6C
8300
8000
0000
0000
ENDCHAR
STARTCHAR U+33bd
ENCODING 13245
SWIDTH 500 0
DWIDTH 16 0
BBX 16 11 0 0
BITMAP
7C82
2A92
2A92
2A92
2A92
2A92
2B6C
0000
0000
0000
0000
ENDCHAR
STARTCHAR U+33be
ENCODING 13246
SWIDTH 500 0
DWIDTH 16 0
BBX 16 13 0 0
BITMAP
6000
2000
2282
2492
2892
3092
2892
2492
736C
0000
0000
0000
0000
ENDCHAR
STARTCHAR U+33bf
ENCODING 13247
SWIDTH 500 0
DWIDTH 16 0
BBX 16 13 0 0
BITMAP
6300
3600
3682
2A92
2A92
2A92
2292
2292
776C
0000
0000
0000
0000
ENDCHAR
STARTCHAR U+3390
ENCODING 13200
SWIDTH 500 0
DWIDTH 16 0
BBX 16 13 0 0
BITMAP
7700
2200
2200
2200
3E7C
2248
2210
2224
777C
0000
0000
0000
0000
ENDCHAR
STARTCHAR U+3391
ENCODING 13201
SWIDTH 500 0
DWIDTH 16 0
BBX 16 13 0 0
BITMAP
C240
4240
4240
4240
4FDF
5252
6244
5249
CE5F
0000
0000
0000
0000
ENDCHAR
STARTCHAR U+3392
ENCODING 13202
SWIDTH 500 0
DWIDTH 16 0
BBX 16 13 0 0
BITMAP
8A40
DA40
AA40
AA40
8BDF
8A52
8A44
8A49
8A7F
0000
0000
0000
0000
ENDCHAR
STARTCHAR U+3393
ENCODING 13203
SWIDTH 500 0
DWIDTH 16 0
BBX 16 13 0 0
BITMAP
7240
8A40
8240
8240
83DF
BA52
8A44
9A49
6A5F
0000
0000
0000
0000
ENDCHAR
STARTCHAR U+3394
ENCODING 13204
SWIDTH 500 0
DWIDTH 16 0
BBX 16 13 0 0
BITMAP
FA40
AA40
2240
2240
23DF
2252
2244
2249
725F
0000
0000
0000
0000
ENDCHAR
STARTCHAR U+2126
ENCODING 8486
SWIDTH 500 0
DWIDTH 16 0
BBX 16 13 0 0
BITMAP
07C0
0820
1010
1010
1010
0820
0440
2288
3EF8
0000
0000
0000
0000
ENDCHAR
STARTCHAR U+33c0
ENCODING 13248
SWIDTH 500 0
DWIDTH 16 0
BBX 16 13 0 0
BITMAP
4070
4088
4104
4504
4904
5088
6050
5252
4BDE
0000
0000
0000
0000
ENDCHAR
STARTCHAR U+33c1
ENCODING 13249
SWIDTH 500 0
DWIDTH 16 0
BBX 16 13 0 0
BITMAP
4470
6C88
5504
5504
4504
4488
4450
4652
47DE
0000
0000
0000
0000
ENDCHAR
STARTCHAR U+338a
ENCODING 13194
SWIDTH 500 0
DWIDTH 16 0
BBX 16 13 0 0
BITMAP
00FC
0080
FC80
4280
42F8
4280
7C80
4080
4080
4000
4000
0000
0000
ENDCHAR
STARTCHAR U+338b
ENCODING 13195
SWIDTH 500 0
DWIDTH 16 0
BBX 16 13 0 0
BITMAP
007E
0040
5C40
2240
227C
2240
2240
2240
2340
0000
0000
0000
0000
ENDCHAR
STARTCHAR U+338c
ENCODING 13196
SWIDTH 500 0
DWIDTH 16 0
BBX 16 13 0 0
BITMAP
007E
0040
0840
1040
10FC
2140
2140
6240
5DC0
8000
8000
0000
0000
ENDCHAR
STARTCHAR U+33d6
ENCODING 13270
SWIDTH 500 0
DWIDTH 16 0
BBX 16 14 0 0
BITMAP
000C
0004
0004
0004
0004
F8E4
5514
5514
5514
54EE
0000
0000
0000
0000
ENDCHAR
STARTCHAR U+33c5
ENCODING 13253
SWIDTH 500 0
DWIDTH 16 0
BBX 16 13 0 0
BITMAP
0008
0008
0008
0008
1C38
2248
2088
2288
1C78
0000
0000
0000
0000
ENDCHAR
STARTCHAR U+33ad
ENCODING 13229
SWIDTH 500 0
DWIDTH 16 0
BBX 16 13 0 0
BITMAP
0002
0002
0002
0002
5982
224E
21D2
2262
23BE
0000
0000
0000
0000
ENDCHAR
STARTCHAR U+33ae
ENCODING 13230
SWIDTH 500 0
DWIDTH 16 0
BBX 16 16 0 0
BITMAP
0010
0010
B610
4974
4798
4990
4EF0
0040
008C
0110
020C
0422
085C
0000
0000
0000
ENDCHAR
STARTCHAR U+33af
ENCODING 13231
SWIDTH 500 0
DWIDTH 16 0
BBX 16 16 0 0
BITMAP
0020
0020
AC20
52E8
4F36
5329
5DE2
008F
0100
0218
0420
0818
1044
00B8
0000
0000
ENDCHAR
STARTCHAR U+33db
ENCODING 13275
SWIDTH 500 0
DWIDTH 16 0
BBX 16 10 0 0
BITMAP
0E4C
1032
0E20
0120
2120
5E20
0000
0000
0000
0000
ENDCHAR
STARTCHAR U+33a9
ENCODING 13225
SWIDTH 500 0
DWIDTH 16 0
BBX 16 13 0 0
BITMAP
3E00
2100
2100
2170
3E08
2078
2088
2088
207C
0000
0000
0000
0000
ENDCHAR
STARTCHAR U+33aa
ENCODING 13226
SWIDTH 500 0
DWIDTH 16 0
BBX 16 13 0 0
BITMAP
43C0
4220
4220
423C
4BC2
521E
6222
5222
4A1F
0000
0000
0000
0000
ENDCHAR
STARTCHAR U+33ab
ENCODING 13227
SWIDTH 500 0
DWIDTH 16 0
BBX 16 13 0 0
BITMAP
8BC0
DA20
AA20
AA3C
ABC2
8A1E
8A22
8A22
8A1F
0000
0000
0000
0000
ENDCHAR
STARTCHAR U+33ac
ENCODING 13228
SWIDTH 500 0
DWIDTH 16 0
BBX 16 13 0 0
BITMAP
73C0
8A20
8A20
823C
83C2
BA1E
8A22
9A22
6A1F
0000
0000
0000
0000
ENDCHAR
STARTCHAR U+33dd
ENCODING 13277
SWIDTH 500 0
DWIDTH 16 0
BBX 16 13 0 0
BITMAP
31C0
1140
1140
1140
1540
1578
1544
0A44
0A78
0000
0000
0000
0000
ENDCHAR
STARTCHAR U+33d0
ENCODING 13264
SWIDTH 500 0
DWIDTH 16 0
BBX 16 13 0 0
BITMAP
1800
0800
0800
09E0
0950
0950
0950
0950
1D58
0000
0000
0000
0000
ENDCHAR
STARTCHAR U+33d3
ENCODING 13267
SWIDTH 500 0
DWIDTH 16 0
BBX 16 13 0 0
BITMAP
1800
0800
0800
0998
0890
0860
0860
0890
1D98
0000
0000
0000
0000
ENDCHAR
STARTCHAR U+33c3
ENCODING 13251
SWIDTH 500 0
DWIDTH 16 0
BBX 16 13 0 0
BITMAP
1F00
1080
1080
1080
1F1E
10A2
10A2
10A2
1F1E
0002
0002
0000
0000
ENDCHAR
STARTCHAR U+33c9
ENCODING 13257
SWIDTH 500 0
DWIDTH 16 0
BBX 16 13 0 0
BITMAP
1E00
2100
4100
4000
4000
4742
4122
2314
1D08
0010
0060
0000
0000
ENDCHAR
STARTCHAR U+33dc
ENCODING 13276
SWIDTH 500 0
DWIDTH 16 0
BBX 16 13 0 0
BITMAP
1E00
2100
2000
2000
1E44
0144
0144
2128
5E10
0000
0000
0000
0000
ENDCHAR
STARTCHAR U+33c6
ENCODING 13254
SWIDTH 500 0
DWIDTH 16 0
BBX 16 15 0 0
BITMAP
1C00
2200
2010
2120
1E40
0080
0100
0280
0490
08A6
10C9
20A9
0097
0001
000E
ENDCHAR
STARTCHAR U+00d0
ENCODING 208
SWIDTH 500 0
DWIDTH 16 0
BBX 16 14 0 0
BITMAP
3F80
18E0
1830
1818
7F18
1818
1818
1818
1830
18E0
3F80
0000
0000
0000
ENDCHAR
STARTCHAR U+0126
ENCODING 294
SWIDTH 500 0
DWIDTH 16 0
BBX 16 14 0 0
BITMAP
3C3C
1818
7FFE
1818
1818
1FF8
1818
1818
1818
1818
3C3C
0000
0000
0000
ENDCHAR
STARTCHAR U+0132
ENCODING 306
SWIDTH 500 0
DWIDTH 16 0
BBX 16 14 0 0
BITMAP
3C3C
1818
1818
1818
1818
1818
1818
1818
1998
1998
3CF0
0000
0000
0000
ENDCHAR
STARTCHAR U+013f
ENCODING 319
SWIDTH 500 0
DWIDTH 16 0
BBX 16 14 0 0
BITMAP
1E00
0C00
0C00
0C18
0C18
0C00
0C00
0C00
0C08
0C18
1FF8
0000
0000
0000
ENDCHAR
STARTCHAR U+0141
ENCODING 321
SWIDTH 500 0
DWIDTH 16 0
BBX 16 14 0 0
BITMAP
1E00
0C00
0C00
0C00
0F00
3C00
0C00
0C00
0C08
0C18
1FF8
0000
0000
0000
ENDCHAR
STARTCHAR U+0152
ENCODING 338
SWIDTH 500 0
DWIDTH 16 0
BBX 16 14 0 0
BITMAP
0FFC
18C0
30C0
30C0
30C0
30F8
30C0
30C0
30C0
19C0
0EFC
0000
0000
0000
ENDCHAR
STARTCHAR U+00de
ENCODING 222
SWIDTH 500 0
DWIDTH 16 0
BBX 16 14 0 0
BITMAP
1E00
0C00
0FF0
0C18
0C0C
0C0C
0C0C
0C18
0FF0
0C00
1E00
0000
0000
0000
ENDCHAR
STARTCHAR U+0166
ENCODING 358
SWIDTH 500 0
DWIDTH 16 0
BBX 16 14 0 0
BITMAP
3FFC
318C
2184
0180
0FF0
0180
0180
0180
0180
0180
03C0
0000
0000
0000
ENDCHAR
STARTCHAR U+014a
ENCODING 330
SWIDTH 500 0
DWIDTH 16 0
BBX 16 14 0 0
BITMAP
3FF0
1818
180C
180C
180C
1818
1870
1800
1800
1800
3C00
0000
0000
0000
ENDCHAR
STARTCHAR U+3260
ENCODING 12896
SWIDTH 500 0
DWIDTH 16 0
BBX 16 14 0 0
BITMAP
07E0
1818
2004
4FF2
4412
4012
4012
4022
4042
2084
1818
07E0
0000
0000
ENDCHAR
STARTCHAR U+3261
ENCODING 12897
SWIDTH 500 0
DWIDTH 16 0
BBX 16 14 0 0
BITMAP
07E0
1818
2004
2804
4402
4402
4402
440A
2474
23C4
1818
07E0
0000
0000
ENDCHAR
STARTCHAR U+3262
ENCODING 12898
SWIDTH 500 0
DWIDTH 16 0
BBX 16 14 0 0
BITMAP
07E0
1818
2044
2FE4
4402
4402
4402
4422
23F4
2004
1818
07E0
0000
0000
ENDCHAR
STARTCHAR U+3263
ENCODING 12899
SWIDTH 500 0
DWIDTH 16 0
BBX 16 14 0 0
BITMAP
07E0
1818
2004
2FE4
4422
4022
4FE2
4402
2424
23F4
1818
07E0
0000
0000
ENDCHAR
STARTCHAR U+3264
ENCODING 12900
SWIDTH 500 0
DWIDTH 16 0
BBX 16 14 0 0
BITMAP
07E0
1818
2004
2FE4
4422
4422
4422
4422
27E4
2004
1818
07E0
0000
0000
ENDCHAR
STARTCHAR U+3265
ENCODING 12901
SWIDTH 500 0
DWIDTH 16 0
BBX 16 14 0 0
BITMAP
07E0
1818
2044
4822
4422
47E2
4422
4422
47E2
2004
1818
07E0
0000
0000
ENDCHAR
STARTCHAR U+3266
ENCODING 12902
SWIDTH 500 0
DWIDTH 16 0
BBX 16 14 0 0
BITMAP
07E0
1818
2104
4102
4102
4182
4242
4422
4822
2004
1818
07E0
0000
0000
ENDCHAR
STARTCHAR U+3267
ENCODING 12903
SWIDTH 500 0
DWIDTH 16 0
BBX 16 14 0 0
BITMAP
07E0
1818
2004
23C4
4422
4812
4812
4422
23C4
2004
1818
07E0
0000
0000
ENDCHAR
STARTCHAR U+3268
ENCODING 12904
SWIDTH 500 0
DWIDTH 16 0
BBX 16 14 0 0
BITMAP
07E0
1818
2004
27E4
4082
4102
4282
4462
2824
2004
1818
07E0
0000
0000
ENDCHAR
STARTCHAR U+3269
ENCODING 12905
SWIDTH 500 0
DWIDTH 16 0
BBX 16 14 0 0
BITMAP
07E0
1918
2084
2FF4
4042
4082
41C2
4232
2414
3004
1818
07E0
0000
0000
ENDCHAR
STARTCHAR U+326a
ENCODING 12906
SWIDTH 500 0
DWIDTH 16 0
BBX 16 14 0 0
BITMAP
07E0
1818
2004
47E2
4022
47E2
4022
4042
4042
2084
1818
07E0
0000
0000
ENDCHAR
STARTCHAR U+326b
ENCODING 12907
SWIDTH 500 0
DWIDTH 16 0
BBX 16 14 0 0
BITMAP
07E0
1818
2004
2FE4
4402
4402
47E2
4402
2424
23F4
1818
07E0
0000
0000
ENDCHAR
STARTCHAR U+326c
ENCODING 12908
SWIDTH 500 0
DWIDTH 16 0
BBX 16 14 0 0
BITMAP
07E0
1818
2004
2FF4
4242
4242
4242
4242
2FF4
2004
1818
07E0
0000
0000
ENDCHAR
STARTCHAR U+326d
ENCODING 12909
SWIDTH 500 0
DWIDTH 16 0
BBX 16 14 0 0
BITMAP
07E0
1818
2304
2084
4FF2
4002
43C2
4422
2424
23C4
1818
07E0
0000
0000
ENDCHAR
STARTCHAR U+326e
ENCODING 12910
SWIDTH 500 0
DWIDTH 16 0
BBX 16 14 0 0
BITMAP
07E0
1818
2024
2FA4
40A2
40A2
413A
4222
2C24
2024
1818
07E0
0000
0000
ENDCHAR
STARTCHAR U+326f
ENCODING 12911
SWIDTH 500 0
DWIDTH 16 0
BBX 16 14 0 0
BITMAP
07E0
1838
2024
2824
4822
4822
483A
48A2
2724
2024
1838
07E0
0000
0000
ENDCHAR
STARTCHAR U+3270
ENCODING 12912
SWIDTH 500 0
DWIDTH 16 0
BBX 16 14 0 0
BITMAP
07E0
1818
2024
2FA4
4822
4822
483A
48A2
2724
2024
1838
07E0
0000
0000
ENDCHAR
STARTCHAR U+3271
ENCODING 12913
SWIDTH 500 0
DWIDTH 16 0
BBX 16 14 0 0
BITMAP
07E0
1818
2024
2FA4
40A2
4FA2
483A
48A2
2F24
2024
1818
07E0
0000
0000
ENDCHAR
STARTCHAR U+3272
ENCODING 12914
SWIDTH 500 0
DWIDTH 16 0
BBX 16 14 0 0
BITMAP
07E0
1818
2024
2024
4FA2
48A2
48BA
4FA2
2024
2024
1818
07E0
0000
0000
ENDCHAR
STARTCHAR U+3273
ENCODING 12915
SWIDTH 500 0
DWIDTH 16 0
BBX 16 14 0 0
BITMAP
07E0
1818
2024
3124
48A2
4FA2
48BA
48A2
2FA4
2024
1838
07E0
0000
0000
ENDCHAR
STARTCHAR U+3274
ENCODING 12916
SWIDTH 500 0
DWIDTH 16 0
BBX 16 14 0 0
BITMAP
07E0
1818
2024
2224
4222
4622
493A
50A2
2024
2024
1838
07E0
0000
0000
ENDCHAR
STARTCHAR U+3275
ENCODING 12917
SWIDTH 500 0
DWIDTH 16 0
BBX 16 14 0 0
BITMAP
07E0
1818
2024
2724
48A2
48A2
48BA
4722
2024
2024
1818
07E0
0000
0000
ENDCHAR
STARTCHAR U+3276
ENCODING 12918
SWIDTH 500 0
DWIDTH 16 0
BBX 16 14 0 0
BITMAP
07E0
1818
2024
2FA4
4122
4222
453A
58A2
2024
2024
1818
07E0
0000
0000
ENDCHAR
STARTCHAR U+3277
ENCODING 12919
SWIDTH 500 0
DWIDTH 16 0
BBX 16 14 0 0
BITMAP
07E0
1818
2224
2324
4FA2
4122
433A
44A2
28A4
2024
1818
07E0
0000
0000
ENDCHAR
STARTCHAR U+3278
ENCODING 12920
SWIDTH 500 0
DWIDTH 16 0
BBX 16 14 0 0
BITMAP
07E0
1818
2024
2FA4
40A2
4FA2
413A
4222
2C24
2024
1818
07E0
0000
0000
ENDCHAR
STARTCHAR U+3279
ENCODING 12921
SWIDTH 500 0
DWIDTH 16 0
BBX 16 14 0 0
BITMAP
07E0
1818
2024
2FA4
4822
4F22
483A
48A2
2F24
2024
1818
07E0
0000
0000
ENDCHAR
STARTCHAR U+327a
ENCODING 12922
SWIDTH 500 0
DWIDTH 16 0
BBX 16 14 0 0
BITMAP
07E0
1818
2024
2FA4
4522
4522
453A
4522
2FA4
2024
1818
07E0
0000
0000
ENDCHAR
STARTCHAR U+327b
ENCODING 12923
SWIDTH 500 0
DWIDTH 16 0
BBX 16 14 0 0
BITMAP
07E0
1818
2224
2FA4
4022
4722
48BA
48A2
2724
2024
1818
07E0
0000
0000
ENDCHAR
STARTCHAR U+24d0
ENCODING 9424
SWIDTH 500 0
DWIDTH 16 0
BBX 16 14 0 0
BITMAP
07E0
1818
2004
2004
43C2
4422
43E2
4422
2424
23D4
1818
07E0
0000
0000
ENDCHAR
STARTCHAR U+24d1
ENCODING 9425
SWIDTH 500 0
DWIDTH 16 0
BBX 16 14 0 0
BITMAP
07E0
1818
2404
2404
4402
47C2
4422
4422
2424
27C4
1818
07E0
0000
0000
ENDCHAR
STARTCHAR U+24d2
ENCODING 9426
SWIDTH 500 0
DWIDTH 16 0
BBX 16 14 0 0
BITMAP
07E0
1818
2004
2004
43C2
4422
4402
4402
2424
23C4
1818
07E0
0000
0000
ENDCHAR
STARTCHAR U+24d3
ENCODING 9427
SWIDTH 500 0
DWIDTH 16 0
BBX 16 14 0 0
BITMAP
07E0
1818
2024
2024
4022
43E2
4422
4422
2424
23E4
1818
07E0
0000
0000
ENDCHAR
STARTCHAR U+24d4
ENCODING 9428
SWIDTH 500 0
DWIDTH 16 0
BBX 16 14 0 0
BITMAP
07E0
1818
2004
2004
43C2
4422
47E2
4402
2424
23C4
1818
07E0
0000
0000
ENDCHAR
STARTCHAR U+24d5
ENCODING 9429
SWIDTH 500 0
DWIDTH 16 0
BBX 16 14 0 0
BITMAP
07E0
1818
20C4
2104
4102
47C2
4102
4102
2104
2104
1818
07E0
0000
0000
ENDCHAR
STARTCHAR U+24d6
ENCODING 9430
SWIDTH 500 0
DWIDTH 16 0
BBX 16 14 0 0
BITMAP
07E0
1818
2004
23C4
4422
4422
43E2
4022
2424
23C4
1818
07E0
0000
0000
ENDCHAR
STARTCHAR U+24d7
ENCODING 9431
SWIDTH 500 0
DWIDTH 16 0
BBX 16 14 0 0
BITMAP
07E0
1818
2404
2404
4402
45C2
4622
4422
2424
2424
1818
07E0
0000
0000
ENDCHAR
STARTCHAR U+24d8
ENCODING 9432
SWIDTH 500 0
DWIDTH 16 0
BBX 16 14 0 0
BITMAP
07E0
1818
2004
2184
4002
4182
4082
4082
2084
21C4
1818
07E0
0000
0000
ENDCHAR
STARTCHAR U+24d9
ENCODING 9433
SWIDTH 500 0
DWIDTH 16 0
BBX 16 14 0 0
BITMAP
07E0
1818
2004
20C4
4002
40C2
4042
4042
2444
2384
1818
07E0
0000
0000
ENDCHAR
STARTCHAR U+24da
ENCODING 9434
SWIDTH 500 0
DWIDTH 16 0
BBX 16 14 0 0
BITMAP
07E0
1818
2004
2404
4402
4442
4482
4702
2484
2464
1818
07E0
0000
0000
ENDCHAR
STARTCHAR U+24db
ENCODING 9435
SWIDTH 500 0
DWIDTH 16 0
BBX 16 14 0 0
BITMAP
07E0
1818
2004
2304
4102
4102
4102
4102
2104
2384
1818
07E0
0000
0000
ENDCHAR
STARTCHAR U+24dc
ENCODING 9436
SWIDTH 500 0
DWIDTH 16 0
BBX 16 14 0 0
BITMAP
07E0
1818
2004
2004
4F62
4492
4492
4492
2494
2004
1C18
07E0
0000
0000
ENDCHAR
STARTCHAR U+24dd
ENCODING 9437
SWIDTH 500 0
DWIDTH 16 0
BBX 16 14 0 0
BITMAP
07E0
1818
2004
2004
4DC2
4622
4422
4422
2424
2004
1818
07E0
0000
0000
ENDCHAR
STARTCHAR U+24de
ENCODING 9438
SWIDTH 500 0
DWIDTH 16 0
BBX 16 14 0 0
BITMAP
07E0
1818
2004
2004
43C2
4422
4812
4812
2424
23C4
1818
07E0
0000
0000
ENDCHAR
STARTCHAR U+24df
ENCODING 9439
SWIDTH 500 0
DWIDTH 16 0
BBX 16 14 0 0
BITMAP
07E0
1818
2004
2004
47E2
4412
4412
47E2
2404
2404
1C18
07E0
0000
0000
ENDCHAR
STARTCHAR U+24e0
ENCODING 9440
SWIDTH 500 0
DWIDTH 16 0
BBX 16 14 0 0
BITMAP
07E0
1818
2004
2004
47E2
4822
4822
47E2
2024
2024
1838
07E0
0000
0000
ENDCHAR
STARTCHAR U+24e1
ENCODING 9441
SWIDTH 500 0
DWIDTH 16 0
BBX 16 14 0 0
BITMAP
07E0
1818
2004
2004
42E2
4312
4202
4202
2204
2204
1818
07E0
0000
0000
ENDCHAR
STARTCHAR U+24e2
ENCODING 9442
SWIDTH 500 0
DWIDTH 16 0
BBX 16 14 0 0
BITMAP
07E0
1818
2004
23C4
4422
4402
43C2
4022
2424
23C4
1818
07E0
0000
0000
ENDCHAR
STARTCHAR U+24e3
ENCODING 9443
SWIDTH 500 0
DWIDTH 16 0
BBX 16 14 0 0
BITMAP
07E0
1818
2204
2204
4FC2
4202
4202
4202
2224
21C4
1818
07E0
0000
0000
ENDCHAR
STARTCHAR U+24e4
ENCODING 9444
SWIDTH 500 0
DWIDTH 16 0
BBX 16 14 0 0
BITMAP
07E0
1818
2004
2004
4422
4422
4422
4422
2424
23E4
1818
07E0
0000
0000
ENDCHAR
STARTCHAR U+24e5
ENCODING 9445
SWIDTH 500 0
DWIDTH 16 0
BBX 16 14 0 0
BITMAP
07E0
1818
2004
2004
4002
4422
4422
4242
2244
2184
1818
07E0
0000
0000
ENDCHAR
STARTCHAR U+24e6
ENCODING 9446
SWIDTH 500 0
DWIDTH 16 0
BBX 16 14 0 0
BITMAP
07E0
1818
2004
2004
4812
4812
4992
4992
2664
2424
1818
07E0
0000
0000
ENDCHAR
STARTCHAR U+24e7
ENCODING 9447
SWIDTH 500 0
DWIDTH 16 0
BBX 16 14 0 0
BITMAP
07E0
1818
2004
2004
4422
4242
4182
4242
2424
2004
1818
07E0
0000
0000
ENDCHAR
STARTCHAR U+24e8
ENCODING 9448
SWIDTH 500 0
DWIDTH 16 0
BBX 16 14 0 0
BITMAP
07E0
1818
2004
2004
4412
4412
4222
4142
2084
2104
1E18
07E0
0000
0000
ENDCHAR
STARTCHAR U+24e9
ENCODING 9449
SWIDTH 500 0
DWIDTH 16 0
BBX 16 14 0 0
BITMAP
07E0
1818
2004
2004
47E2
4042
4082
4102
2204
27E4
1818
07E0
0000
0000
ENDCHAR
STARTCHAR U+2460
ENCODING 9312
SWIDTH 500 0
DWIDTH 16 0
BBX 16 14 0 0
BITMAP
07E0
1818
2084
2184
4082
4082
4082
4082
2084
21C4
1818
07E0
0000
0000
ENDCHAR
STARTCHAR U+2461
ENCODING 9313
SWIDTH 500 0
DWIDTH 16 0
BBX 16 14 0 0
BITMAP
07E0
1818
23C4
2424
4422
4042
4182
4202
2404
27E4
1818
07E0
0000
0000
ENDCHAR
STARTCHAR U+2462
ENCODING 9314
SWIDTH 500 0
DWIDTH 16 0
BBX 16 14 0 0
BITMAP
07E0
1818
23C4
2424
4022
41C2
4022
4022
2424
23C4
1818
07E0
0000
0000
ENDCHAR
STARTCHAR U+2463
ENCODING 9315
SWIDTH 500 0
DWIDTH 16 0
BBX 16 14 0 0
BITMAP
07E0
1818
2044
20C4
4142
4242
4442
4FF2
2044
2044
1818
07E0
0000
0000
ENDCHAR
STARTCHAR U+2464
ENCODING 9316
SWIDTH 500 0
DWIDTH 16 0
BBX 16 14 0 0
BITMAP
07E0
1818
27E4
2404
4402
47C2
4022
4012
2424
23C4
1818
07E0
0000
0000
ENDCHAR
STARTCHAR U+2465
ENCODING 9317
SWIDTH 500 0
DWIDTH 16 0
BBX 16 14 0 0
BITMAP
07E0
1818
23C4
2424
4402
45C2
4622
4422
2424
23C4
1818
07E0
0000
0000
ENDCHAR
STARTCHAR U+2466
ENCODING 9318
SWIDTH 500 0
DWIDTH 16 0
BBX 16 14 0 0
BITMAP
07E0
1818
27E4
2424
4042
4042
4082
4082
2084
2084
1818
07E0
0000
0000
ENDCHAR
STARTCHAR U+2467
ENCODING 9319
SWIDTH 500 0
DWIDTH 16 0
BBX 16 14 0 0
BITMAP
07E0
1818
23C4
2424
4422
43C2
4422
4422
2424
23C4
1818
07E0
0000
0000
ENDCHAR
STARTCHAR U+2468
ENCODING 9320
SWIDTH 500 0
DWIDTH 16 0
BBX 16 14 0 0
BITMAP
07E0
1818
23C4
2424
4422
4462
43A2
4022
2424
23C4
1818
07E0
0000
0000
ENDCHAR
STARTCHAR U+2469
ENCODING 9321
SWIDTH 500 0
DWIDTH 16 0
BBX 16 14 0 0
BITMAP
07E0
1818
24E4
2514
4512
4512
4512
4512
2514
24E4
1818
07E0
0000
0000
ENDCHAR
STARTCHAR U+246a
ENCODING 9322
SWIDTH 500 0
DWIDTH 16 0
BBX 16 14 0 0
BITMAP
07E0
1818
2444
2444
4442
4442
4442
4442
2444
2444
1818
07E0
0000
0000
ENDCHAR
STARTCHAR U+246b
ENCODING 9323
SWIDTH 500 0
DWIDTH 16 0
BBX 16 14 0 0
BITMAP
07E0
1818
24E4
2514
4512
4432
4442
4482
2504
25F4
1818
07E0
0000
0000
ENDCHAR
STARTCHAR U+246c
ENCODING 9324
SWIDTH 500 0
DWIDTH 16 0
BBX 16 14 0 0
BITMAP
07E0
1818
24E4
2514
4412
4462
4412
4412
2514
24E4
1818
07E0
0000
0000
ENDCHAR
STARTCHAR U+246d
ENCODING 9325
SWIDTH 500 0
DWIDTH 16 0
BBX 16 14 0 0
BITMAP
07E0
1818
2464
24A4
44A2
4522
45F2
4422
2424
2424
1818
07E0
0000
0000
ENDCHAR
STARTCHAR U+246e
ENCODING 9326
SWIDTH 500 0
DWIDTH 16 0
BBX 16 14 0 0
BITMAP
07E0
1818
25F4
2504
4502
45E2
4412
4412
2514
24E4
1818
07E0
0000
0000
ENDCHAR
STARTCHAR U+2153
ENCODING 8531
SWIDTH 500 0
DWIDTH 16 0
BBX 16 15 0 0
BITMAP
0400
0C02
0404
0408
0410
0420
045E
0EA1
0101
020E
0401
0801
1021
201E
0000
ENDCHAR
STARTCHAR U+2154
ENCODING 8532
SWIDTH 500 0
DWIDTH 16 0
BBX 16 15 0 0
BITMAP
3C00
4202
0204
0408
0810
1020
205E
7EA1
0101
020E
0401
0801
1021
201E
0000
ENDCHAR
STARTCHAR U+00be
ENCODING 190
SWIDTH 500 0
DWIDTH 16 0
BBX 16 15 0 0
BITMAP
3C00
4202
0204
1C08
0210
0220
4244
3C8C
0114
0224
0444
08FF
1004
2004
0000
ENDCHAR
STARTCHAR U+215b
ENCODING 8539
SWIDTH 500 0
DWIDTH 16 0
BBX 16 15 0 0
BITMAP
0400
0C02
0404
0408
0410
0420
0440
0EBE
0141
0241
043E
0841
1041
203E
0000
ENDCHAR
STARTCHAR U+215c
ENCODING 8540
SWIDTH 500 0
DWIDTH 16 0
BBX 16 15 0 0
BITMAP
1E00
2102
0104
1E08
0110
2120
1E40
00BE
0141
0241
043E
0841
1041
203E
0000
ENDCHAR
STARTCHAR U+215d
ENCODING 8541
SWIDTH 500 0
DWIDTH 16 0
BBX 16 15 0 0
BITMAP
3F00
2002
3E04
0108
0090
2120
1E40
00BE
0141
0241
043E
0841
1041
203E
0000
ENDCHAR
STARTCHAR U+215e
ENCODING 8542
SWIDTH 500 0
DWIDTH 16 0
BBX 16 15 0 0
BITMAP
3F80
2082
0084
0108
0210
0420
0440
04BE
0141
0241
043E
0841
1041
203E
0000
ENDCHAR
STARTCHAR U+0111
ENCODING 273
SWIDTH 500 0
DWIDTH 16 0
BBX 16 14 0 0
BITMAP
0038
0018
01FE
0018
07D8
0C38
1818
1818
1818
0C38
07D8
0000
0000
0000
ENDCHAR
STARTCHAR U+00f0
ENCODING 240
SWIDTH 500 0
DWIDTH 16 0
BBX 16 13 0 0
BITMAP
0060
00C0
07E0
0DB0
1B18
0018
1FF8
1818
0C30
07E0
0000
0000
0000
ENDCHAR
STARTCHAR U+0127
ENCODING 295
SWIDTH 500 0
DWIDTH 16 0
BBX 16 14 0 0
BITMAP
1C00
0C00
3FC0
0C00
0DE0
0F30
0E18
0C18
0C18
0C18
1E3C
0000
0000
0000
ENDCHAR
STARTCHAR U+0131
ENCODING 305
SWIDTH 500 0
DWIDTH 16 0
BBX 16 14 0 0
BITMAP
0380
0180
0180
0180
0180
0180
0180
0180
0180
0180
03C0
0000
0000
0000
ENDCHAR
STARTCHAR U+0133
ENCODING 307
SWIDTH 500 0
DWIDTH 16 0
BBX 16 14 0 0
BITMAP
1818
1818
0000
1818
1818
1818
1818
1818
1818
1818
3D98
0198
00F0
0000
ENDCHAR
STARTCHAR U+0138
ENCODING 312
SWIDTH 500 0
DWIDTH 16 0
BBX 16 11 0 0
BITMAP
3CF0
18C0
1980
1B00
1F00
1D80
18C0
3CF0
0000
0000
0000
ENDCHAR
STARTCHAR U+0140
ENCODING 320
SWIDTH 500 0
DWIDTH 16 0
BBX 16 14 0 0
BITMAP
0380
0180
0180
0198
0198
0180
0180
0180
0180
0180
03C0
0000
0000
0000
ENDCHAR
STARTCHAR U+0142
ENCODING 322
SWIDTH 500 0
DWIDTH 16 0
BBX 16 14 0 0
BITMAP
0380
0180
0180
0180
01E0
0780
0180
0180
0180
0180
03C0
0000
0000
0000
ENDCHAR
STARTCHAR U+0153
ENCODING 339
SWIDTH 500 0
DWIDTH 16 0
BBX 16 10 0 0
BITMAP
3E7C
63C6
C183
C1FF
C180
63C3
3E7E
0000
0000
0000
ENDCHAR
STARTCHAR U+00fe
ENCODING 254
SWIDTH 500 0
DWIDTH 16 0
BBX 16 11 0 0
BITMAP
1C00
0DE0
0E30
0C18
0C18
0C18
0E30
0FE0
1C00
0000
0000
ENDCHAR
STARTCHAR U+0167
ENCODING 359
SWIDTH 500 0
DWIDTH 16 0
BBX 16 13 0 0
BITMAP
0300
03C0
0F00
0300
0FE0
0300
0300
0310
0330
01E0
0000
0000
0000
ENDCHAR
STARTCHAR U+014b
ENCODING 331
SWIDTH 500 0
DWIDTH 16 0
BBX 16 11 0 0
BITMAP
77C0
1C60
1830
1830
3E30
0030
0030
1860
0FC0
0000
0000
ENDCHAR
STARTCHAR U+0149
ENCODING 329
SWIDTH 500 0
DWIDTH 16 0
BBX 16 13 0 0
BITMAP
1800
3000
6000
1BE0
0E30
0C18
0C18
0C18
0C18
1E3C
0000
0000
0000
ENDCHAR
STARTCHAR U+3200
ENCODING 12800
SWIDTH 500 0
DWIDTH 16 0
BBX 16 13 0 0
BITMAP
1008
2004
2FF4
4012
4012
4012
4022
2044
2084
1208
0000
0000
0000
ENDCHAR
STARTCHAR U+3201
ENCODING 12801
SWIDTH 500 0
DWIDTH 16 0
BBX 16 13 0 0
BITMAP
1008
2004
2804
4802
4802
4802
4802
2814
27E4
1008
0000
0000
0000
ENDCHAR
STARTCHAR U+3202
ENCODING 12802
SWIDTH 500 0
DWIDTH 16 0
BBX 16 13 0 0
BITMAP
1008
2004
2FF4
4802
4802
4802
4802
2814
27E4
1008
0000
0000
0000
ENDCHAR
STARTCHAR U+3203
ENCODING 12803
SWIDTH 500 0
DWIDTH 16 0
BBX 16 13 0 0
BITMAP
1008
2004
2FF4
4012
4012
4FF2
4802
2814
27E4
1008
0000
0000
0000
ENDCHAR
STARTCHAR U+3204
ENCODING 12804
SWIDTH 500 0
DWIDTH 16 0
BBX 16 13 0 0
BITMAP
1008
2004
2FF4
4412
4412
4412
4412
2424
27F4
1008
0000
0000
0000
ENDCHAR
STARTCHAR U+3205
ENCODING 12805
SWIDTH 500 0
DWIDTH 16 0
BBX 16 13 0 0
BITMAP
1008
2024
2814
4412
4412
47F2
4412
2414
27F4
1008
0000
0000
0000
ENDCHAR
STARTCHAR U+3206
ENCODING 12806
SWIDTH 500 0
DWIDTH 16 0
BBX 16 13 0 0
BITMAP
1008
2184
2084
4082
4182
4242
4432
2814
2004
1008
0000
0000
0000
ENDCHAR
STARTCHAR U+3207
ENCODING 12807
SWIDTH 500 0
DWIDTH 16 0
BBX 16 13 0 0
BITMAP
1008
2004
23C4
4422
4812
4812
4812
2424
23C4
1008
0000
0000
0000
ENDCHAR
STARTCHAR U+3208
ENCODING 12808
SWIDTH 500 0
DWIDTH 16 0
BBX 16 13 0 0
BITMAP
1008
2004
27E4
4022
4042
4082
4142
2224
2414
1008
0000
0000
0000
ENDCHAR
STARTCHAR U+3209
ENCODING 12809
SWIDTH 500 0
DWIDTH 16 0
BBX 16 13 0 0
BITMAP
1108
2084
27F4
4022
4042
40C2
4122
2214
2414
1008
0000
0000
0000
ENDCHAR
STARTCHAR U+320a
ENCODING 12810
SWIDTH 500 0
DWIDTH 16 0
BBX 16 13 0 0
BITMAP
1008
2004
27F4
4012
4012
47F2
4022
2044
2184
1208
0000
0000
0000
ENDCHAR
STARTCHAR U+320b
ENCODING 12811
SWIDTH 500 0
DWIDTH 16 0
BBX 16 13 0 0
BITMAP
1008
2004
2FF4
4802
4802
4FE2
4802
2814
27E4
1008
0000
0000
0000
ENDCHAR
STARTCHAR U+320c
ENCODING 12812
SWIDTH 500 0
DWIDTH 16 0
BBX 16 13 0 0
BITMAP
1008
2004
2FF4
4442
4222
4222
4242
2244
2FF4
1008
0000
0000
0000
ENDCHAR
STARTCHAR U+320d
ENCODING 12813
SWIDTH 500 0
DWIDTH 16 0
BBX 16 13 0 0
BITMAP
1308
2084
2FF4
4002
43C2
4422
4422
2424
23C4
1008
0000
0000
0000
ENDCHAR
STARTCHAR U+320e
ENCODING 12814
SWIDTH 500 0
DWIDTH 16 0
BBX 16 13 0 0
BITMAP
1048
2024
2FA4
40A2
4122
413A
4222
2424
2824
1028
0000
0000
0000
ENDCHAR
STARTCHAR U+320f
ENCODING 12815
SWIDTH 500 0
DWIDTH 16 0
BBX 16 13 0 0
BITMAP
1048
2024
2824
4822
4822
483A
48A2
2724
2024
1028
0000
0000
0000
ENDCHAR
STARTCHAR U+3210
ENCODING 12816
SWIDTH 500 0
DWIDTH 16 0
BBX 16 13 0 0
BITMAP
1048
2024
2FA4
4822
4822
483A
48A2
2F24
2024
1028
0000
0000
0000
ENDCHAR
STARTCHAR U+3211
ENCODING 12817
SWIDTH 500 0
DWIDTH 16 0
BBX 16 13 0 0
BITMAP
1048
2024
2FA4
40A2
4FA2
483A
48A2
2724
2024
1028
0000
0000
0000
ENDCHAR
STARTCHAR U+3212
ENCODING 12818
SWIDTH 500 0
DWIDTH 16 0
BBX 16 13 0 0
BITMAP
1048
2024
2FA4
48A2
48A2
48BA
4922
2FA4
2024
1028
0000
0000
0000
ENDCHAR
STARTCHAR U+3213
ENCODING 12819
SWIDTH 500 0
DWIDTH 16 0
BBX 16 13 0 0
BITMAP
1048
2024
28A4
48A2
4FA2
48BA
48A2
2FA4
2024
1028
0000
0000
0000
ENDCHAR
STARTCHAR U+3214
ENCODING 12820
SWIDTH 500 0
DWIDTH 16 0
BBX 16 13 0 0
BITMAP
1048
2024
2224
4122
4322
44BA
48A2
2024
2024
1028
0000
0000
0000
ENDCHAR
STARTCHAR U+3215
ENCODING 12821
SWIDTH 500 0
DWIDTH 16 0
BBX 16 13 0 0
BITMAP
1048
2024
2624
4922
50A2
50BA
4922
2624
2024
1028
0000
0000
0000
ENDCHAR
STARTCHAR U+3216
ENCODING 12822
SWIDTH 500 0
DWIDTH 16 0
BBX 16 13 0 0
BITMAP
1048
2024
2FA4
4122
4222
453A
48A2
2024
2024
1028
0000
0000
0000
ENDCHAR
STARTCHAR U+3217
ENCODING 12823
SWIDTH 500 0
DWIDTH 16 0
BBX 16 13 0 0
BITMAP
1248
2124
2FA4
4122
4222
453A
48A2
2024
2024
1028
0000
0000
0000
ENDCHAR
STARTCHAR U+3218
ENCODING 12824
SWIDTH 500 0
DWIDTH 16 0
BBX 16 13 0 0
BITMAP
1048
2024
2FA4
40A2
4FA2
413A
4222
2424
2824
1028
0000
0000
0000
ENDCHAR
STARTCHAR U+3219
ENCODING 12825
SWIDTH 500 0
DWIDTH 16 0
BBX 16 13 0 0
BITMAP
1048
2024
2FA4
4822
4F22
483A
48A2
2724
2024
1028
0000
0000
0000
ENDCHAR
STARTCHAR U+321a
ENCODING 12826
SWIDTH 500 0
DWIDTH 16 0
BBX 16 13 0 0
BITMAP
1048
2024
2FA4
4522
4522
453A
4522
2FA4
2024
1028
0000
0000
0000
ENDCHAR
STARTCHAR U+321b
ENCODING 12827
SWIDTH 500 0
DWIDTH 16 0
BBX 16 13 0 0
BITMAP
1448
2624
3FA4
4022
4F22
50BA
50A2
2F24
2024
1028
0000
0000
0000
ENDCHAR
STARTCHAR U+249c
ENCODING 9372
SWIDTH 500 0
DWIDTH 16 0
BBX 16 13 0 0
BITMAP
1008
2004
2004
43C2
4422
43E2
4422
2424
23D4
1008
0000
0000
0000
ENDCHAR
STARTCHAR U+249d
ENCODING 9373
SWIDTH 500 0
DWIDTH 16 0
BBX 16 13 0 0
BITMAP
1008
2404
2404
4402
47C2
4422
4422
2424
27C4
1008
0000
0000
0000
ENDCHAR
STARTCHAR U+249e
ENCODING 9374
SWIDTH 500 0
DWIDTH 16 0
BBX 16 13 0 0
BITMAP
1008
2004
2004
43C2
4422
4402
4402
2424
23C4
1008
0000
0000
0000
ENDCHAR
STARTCHAR U+249f
ENCODING 9375
SWIDTH 500 0
DWIDTH 16 0
BBX 16 13 0 0
BITMAP
1008
2024
2024
4022
43E2
4422
4422
2424
23E4
1008
0000
0000
0000
ENDCHAR
STARTCHAR U+24a0
ENCODING 9376
SWIDTH 500 0
DWIDTH 16 0
BBX 16 13 0 0
BITMAP
1008
2004
2004
43C2
4422
47E2
4402
2424
23C4
1008
0000
0000
0000
ENDCHAR
STARTCHAR U+24a1
ENCODING 9377
SWIDTH 500 0
DWIDTH 16 0
BBX 16 13 0 0
BITMAP
1008
20C4
2104
4102
47C2
4102
4102
2104
2104
1008
0000
0000
0000
ENDCHAR
STARTCHAR U+24a2
ENCODING 9378
SWIDTH 500 0
DWIDTH 16 0
BBX 16 13 0 0
BITMAP
1008
2004
23C4
4422
4422
43E2
4022
2424
23C4
1008
0000
0000
0000
ENDCHAR
STARTCHAR U+24a3
ENCODING 9379
SWIDTH 500 0
DWIDTH 16 0
BBX 16 13 0 0
BITMAP
1008
2404
2404
4402
45C2
4622
4422
2424
2424
1008
0000
0000
0000
ENDCHAR
STARTCHAR U+24a4
ENCODING 9380
SWIDTH 500 0
DWIDTH 16 0
BBX 16 13 0 0
BITMAP
1008
2004
2184
4002
4182
4082
4082
2084
21C4
1008
0000
0000
0000
ENDCHAR
STARTCHAR U+24a5
ENCODING 9381
SWIDTH 500 0
DWIDTH 16 0
BBX 16 13 0 0
BITMAP
1008
2004
20C4
4002
40C2
4042
4042
2044
2444
1388
0000
0000
0000
ENDCHAR
STARTCHAR U+24a6
ENCODING 9382
SWIDTH 500 0
DWIDTH 16 0
BBX 16 13 0 0
BITMAP
1008
2004
2404
4402
4442
4482
4702
2484
2464
1008
0000
0000
0000
ENDCHAR
STARTCHAR U+24a7
ENCODING 9383
SWIDTH 500 0
DWIDTH 16 0
BBX 16 13 0 0
BITMAP
1010
2008
2308
4104
4104
4104
4104
2108
2388
1010
0000
0000
0000
ENDCHAR
STARTCHAR U+24a8
ENCODING 9384
SWIDTH 500 0
DWIDTH 16 0
BBX 16 13 0 0
BITMAP
1008
2004
2004
4F62
4492
4492
4492
2494
2494
1008
0000
0000
0000
ENDCHAR
STARTCHAR U+24a9
ENCODING 9385
SWIDTH 500 0
DWIDTH 16 0
BBX 16 13 0 0
BITMAP
1008
2004
2004
4DC2
4622
4422
4422
2424
2424
1008
0000
0000
0000
ENDCHAR
STARTCHAR U+24aa
ENCODING 9386
SWIDTH 500 0
DWIDTH 16 0
BBX 16 13 0 0
BITMAP
1008
2004
2004
43C2
4422
4812
4812
2424
23C4
1008
0000
0000
0000
ENDCHAR
STARTCHAR U+24ab
ENCODING 9387
SWIDTH 500 0
DWIDTH 16 0
BBX 16 13 0 0
BITMAP
1008
2004
2004
47E2
4412
4412
47E2
2404
2404
1408
0000
0000
0000
ENDCHAR
STARTCHAR U+24ac
ENCODING 9388
SWIDTH 500 0
DWIDTH 16 0
BBX 16 13 0 0
BITMAP
1008
2004
2004
47E2
4822
4822
47E2
2024
2024
1028
0000
0000
0000
ENDCHAR
STARTCHAR U+24ad
ENCODING 9389
SWIDTH 500 0
DWIDTH 16 0
BBX 16 13 0 0
BITMAP
1008
2004
2004
42E2
4312
4202
4202
2204
2204
1008
0000
0000
0000
ENDCHAR
STARTCHAR U+24ae
ENCODING 9390
SWIDTH 500 0
DWIDTH 16 0
BBX 16 13 0 0
BITMAP
1008
2004
23C4
4422
4402
43C2
4022
2424
23C4
1008
0000
0000
0000
ENDCHAR
STARTCHAR U+24af
ENCODING 9391
SWIDTH 500 0
DWIDTH 16 0
BBX 16 13 0 0
BITMAP
1008
2204
2204
4FC2
4202
4202
4202
2224
21C4
1008
0000
0000
0000
ENDCHAR
STARTCHAR U+24b0
ENCODING 9392
SWIDTH 500 0
DWIDTH 16 0
BBX 16 13 0 0
BITMAP
1008
2004
2004
4422
4422
4422
4422
2424
23E4
1008
0000
0000
0000
ENDCHAR
STARTCHAR U+24b1
ENCODING 9393
SWIDTH 500 0
DWIDTH 16 0
BBX 16 13 0 0
BITMAP
1008
2004
2004
4002
4422
4422
4242
2244
2184
1008
0000
0000
0000
ENDCHAR
STARTCHAR U+24b2
ENCODING 9394
SWIDTH 500 0
DWIDTH 16 0
BBX 16 13 0 0
BITMAP
1008
2004
2004
4812
4812
4992
4992
2664
2424
1008
0000
0000
0000
ENDCHAR
STARTCHAR U+24b3
ENCODING 9395
SWIDTH 500 0
DWIDTH 16 0
BBX 16 13 0 0
BITMAP
1008
2004
2004
4422
4242
4182
4242
2424
2004
1008
0000
0000
0000
ENDCHAR
STARTCHAR U+24b4
ENCODING 9396
SWIDTH 500 0
DWIDTH 16 0
BBX 16 13 0 0
BITMAP
1008
2004
2004
4412
4412
4222
4142
2084
2104
1608
0000
0000
0000
ENDCHAR
STARTCHAR U+24b5
ENCODING 9397
SWIDTH 500 0
DWIDTH 16 0
BBX 16 13 0 0
BITMAP
1008
2004
2004
47E2
4042
4082
4102
2204
27E4
1008
0000
0000
0000
ENDCHAR
STARTCHAR U+2474
ENCODING 9332
SWIDTH 500 0
DWIDTH 16 0
BBX 16 13 0 0
BITMAP
1008
2084
2184
4082
4082
4082
4082
2084
21C4
1008
0000
0000
0000
ENDCHAR
STARTCHAR U+2475
ENCODING 9333
SWIDTH 500 0
DWIDTH 16 0
BBX 16 13 0 0
BITMAP
1008
23C4
2424
4422
4042
4182
4202
2404
27E4
1008
0000
0000
0000
ENDCHAR
STARTCHAR U+2476
ENCODING 9334
SWIDTH 500 0
DWIDTH 16 0
BBX 16 13 0 0
BITMAP
1008
23C4
2424
4022
41C2
4022
4022
2424
23C4
1008
0000
0000
0000
ENDCHAR
STARTCHAR U+2477
ENCODING 9335
SWIDTH 500 0
DWIDTH 16 0
BBX 16 13 0 0
BITMAP
1008
2044
20C4
4142
4242
4442
47F2
2044
2044
1008
0000
0000
0000
ENDCHAR
STARTCHAR U+2478
ENCODING 9336
SWIDTH 500 0
DWIDTH 16 0
BBX 16 13 0 0
BITMAP
1008
27E4
2404
4402
47C2
4022
4012
2424
23C4
1008
0000
0000
0000
ENDCHAR
STARTCHAR U+2479
ENCODING 9337
SWIDTH 500 0
DWIDTH 16 0
BBX 16 13 0 0
BITMAP
1008
23C4
2424
4402
45C2
4622
4422
2424
23C4
1008
0000
0000
0000
ENDCHAR
STARTCHAR U+247a
ENCODING 9338
SWIDTH 500 0
DWIDTH 16 0
BBX 16 13 0 0
BITMAP
1008
27E4
2424
4042
4042
4082
4082
2084
2084
1008
0000
0000
0000
ENDCHAR
STARTCHAR U+247b
ENCODING 9339
SWIDTH 500 0
DWIDTH 16 0
BBX 16 13 0 0
BITMAP
1008
23C4
2424
4422
43C2
4422
4422
2424
23C4
1008
0000
0000
0000
ENDCHAR
STARTCHAR U+247c
ENCODING 9340
SWIDTH 500 0
DWIDTH 16 0
BBX 16 13 0 0
BITMAP
1008
23C4
2424
4422
4462
43A2
4022
2424
23C4
1008
0000
0000
0000
ENDCHAR
STARTCHAR U+247d
ENCODING 9341
SWIDTH 500 0
DWIDTH 16 0
BBX 16 13 0 0
BITMAP
1008
24E4
2514
4512
4512
4512
4512
2514
24E4
1008
0000
0000
0000
ENDCHAR
STARTCHAR U+247e
ENCODING 9342
SWIDTH 500 0
DWIDTH 16 0
BBX 16 13 0 0
BITMAP
1008
2444
2444
4442
4442
4442
4442
2444
2444
1008
0000
0000
0000
ENDCHAR
STARTCHAR U+247f
ENCODING 9343
SWIDTH 500 0
DWIDTH 16 0
BBX 16 13 0 0
BITMAP
1008
24E4
2514
4512
4422
4442
4482
2504
25F4
1008
0000
0000
0000
ENDCHAR
STARTCHAR U+2480
ENCODING 9344
SWIDTH 500 0
DWIDTH 16 0
BBX 16 13 0 0
BITMAP
1008
24E4
2514
4412
4462
4412
4412
2514
24E4
1008
0000
0000
0000
ENDCHAR
STARTCHAR U+2481
ENCODING 9345
SWIDTH 500 0
DWIDTH 16 0
BBX 16 13 0 0
BITMAP
1008
2464
24A4
44A2
4522
4522
45F2
2424
2424
1008
0000
0000
0000
ENDCHAR
STARTCHAR U+2482
ENCODING 9346
SWIDTH 500 0
DWIDTH 16 0
BBX 16 13 0 0
BITMAP
1008
25F4
2504
4502
45E2
4412
4412
2514
24E4
1008
0000
0000
0000
ENDCHAR
STARTCHAR U+00b9
ENCODING 185
SWIDTH 500 0
DWIDTH 8 0
BBX 8 15 0 0
BITMAP
1000
3000
1000
1000
1000
3800
0000
0000
0000
0000
0000
0000
0000
0000
0000
ENDCHAR
STARTCHAR U+00b3
ENCODING 179
SWIDTH 500 0
DWIDTH 8 0
BBX 8 15 0 0
BITMAP
3800
4400
1800
0400
4400
3800
0000
0000
0000
0000
0000
0000
0000
0000
0000
ENDCHAR
STARTCHAR U+2074
ENCODING 8308
SWIDTH 500 0
DWIDTH 8 0
BBX 8 15 0 0
BITMAP
0C00
1400
2400
7E00
0400
0400
0000
0000
0000
0000
0000
0000
0000
0000
0000
ENDCHAR
STARTCHAR U+2081
ENCODING 8321
SWIDTH 500 0
DWIDTH 8 0
BBX 8 7 0 0
BITMAP
1000
3000
1000
1000
1000
3800
0000
ENDCHAR
STARTCHAR U+2082
ENCODING 8322
SWIDTH 500 0
DWIDTH 8 0
BBX 8 7 0 0
BITMAP
3800
4400
0800
1000
2000
7C00
0000
ENDCHAR
STARTCHAR U+2083
ENCODING 8323
SWIDTH 500 0
DWIDTH 8 0
BBX 8 7 0 0
BITMAP
3800
4400
1800
0400
4400
3800
0000
ENDCHAR
STARTCHAR U+2084
ENCODING 8324
SWIDTH 500 0
DWIDTH 8 0
BBX 8 7 0 0
BITMAP
0C00
1400
2400
7E00
0400
0400
0000
ENDCHAR
STARTCHAR U+3041
ENCODING 12353
SWIDTH 500 0
DWIDTH 16 0
BBX 16 12 0 0
BITMAP
0400
0680
3FC0
0400
07C0
1D60
2630
6630
6A30
3260
0000
0000
ENDCHAR
STARTCHAR U+3042
ENCODING 12354
SWIDTH 500 0
DWIDTH 16 0
BBX 16 16 0 0
BITMAP
0600
0700
0640
3FE0
0400
0480
07E0
1C98
358C
270C
660C
6E0C
7A18
2260
0000
0000
ENDCHAR
STARTCHAR U+3043
ENCODING 12355
SWIDTH 500 0
DWIDTH 16 0
BBX 16 10 0 0
BITMAP
6080
3040
3020
3030
3470
1830
1800
0000
0000
0000
ENDCHAR
STARTCHAR U+3044
ENCODING 12356
SWIDTH 500 0
DWIDTH 16 0
BBX 16 14 0 0
BITMAP
8000
4040
4030
6018
600C
600C
6406
6806
781E
3004
3000
0000
0000
0000
ENDCHAR
STARTCHAR U+3045
ENCODING 12357
SWIDTH 500 0
DWIDTH 16 0
BBX 16 13 0 0
BITMAP
0C00
0700
0000
0380
3EC0
18C0
00C0
00C0
0180
0300
0400
0000
0000
ENDCHAR
STARTCHAR U+3046
ENCODING 12358
SWIDTH 500 0
DWIDTH 16 0
BBX 16 16 0 0
BITMAP
0700
03C0
0000
0000
03C0
3E60
1830
0030
0030
0030
0030
0060
00C0
0300
0000
0000
ENDCHAR
STARTCHAR U+3047
ENCODING 12359
SWIDTH 500 0
DWIDTH 16 0
BBX 16 13 0 0
BITMAP
0C00
0700
0000
0380
3D80
1300
0600
0C00
1C00
7300
21F0
0000
0000
ENDCHAR
STARTCHAR U+3048
ENCODING 12360
SWIDTH 500 0
DWIDTH 16 0
BBX 16 16 0 0
BITMAP
0700
01C0
0000
0000
01E0
3F60
18C0
0180
0300
0600
0C00
1A00
7188
20FC
0000
0000
ENDCHAR
STARTCHAR U+3049
ENCODING 12361
SWIDTH 500 0
DWIDTH 16 0
BBX 16 13 0 0
BITMAP
1000
1860
1830
1F20
7000
13E0
1E30
3830
C830
3860
1880
0000
0000
ENDCHAR
STARTCHAR U+304a
ENCODING 12362
SWIDTH 500 0
DWIDTH 16 0
BBX 16 16 0 0
BITMAP
1800
0E00
0C38
0C0C
0F88
7C00
0800
08F0
0B18
0C0C
0C0C
740C
1C18
0C60
0000
0000
ENDCHAR
STARTCHAR U+304b
ENCODING 12363
SWIDTH 500 0
DWIDTH 16 0
BBX 16 16 0 0
BITMAP
1800
0C00
0C00
0C00
0F98
7C44
2842
0842
1846
10C2
3080
2480
6380
4300
0000
0000
ENDCHAR
STARTCHAR U+304c
ENCODING 12364
SWIDTH 500 0
DWIDTH 16 0
BBX 16 16 0 0
BITMAP
1804
0C12
0C08
0C00
0F98
7C44
2842
0842
1846
10C2
3080
2480
6380
4300
0000
0000
ENDCHAR
STARTCHAR U+304d
ENCODING 12365
SWIDTH 500 0
DWIDTH 16 0
BBX 16 16 0 0
BITMAP
0C00
0600
02E0
3F80
1B00
01F0
1FC0
0CC0
0060
07F0
0C30
1000
1C00
07C0
0000
0000
ENDCHAR
STARTCHAR U+304e
ENCODING 12366
SWIDTH 500 0
DWIDTH 16 0
BBX 16 16 0 0
BITMAP
0C02
0609
02E4
3F80
1B00
01F0
1FC0
0CC0
0060
07F0
0C30
1000
1C00
07C0
0000
0000
ENDCHAR
STARTCHAR U+304f
ENCODING 12367
SWIDTH 500 0
DWIDTH 16 0
BBX 16 16 0 0
BITMAP
0020
0060
00C0
0180
0600
1800
2000
2000
1800
0600
0380
00C0
0060
0020
0000
0000
ENDCHAR
STARTCHAR U+3050
ENCODING 12368
SWIDTH 500 0
DWIDTH 16 0
BBX 16 16 0 0
BITMAP
0020
0062
00C9
0184
0600
1800
2000
2000
1800
0600
0380
00C0
0060
0020
0000
0000
ENDCHAR
STARTCHAR U+3051
ENCODING 12369
SWIDTH 500 0
DWIDTH 16 0
BBX 16 16 0 0
BITMAP
60C0
3060
3020
2034
63FE
4130
4030
4030
4830
6820
3060
3040
1040
0080
0000
0000
ENDCHAR
STARTCHAR U+3052
ENCODING 12370
SWIDTH 500 0
DWIDTH 16 0
BBX 16 16 0 0
BITMAP
60C2
3069
3024
2030
63FE
4130
4030
4030
4830
6820
3060
3040
1040
0080
0000
0000
ENDCHAR
STARTCHAR U+3053
ENCODING 12371
SWIDTH 500 0
DWIDTH 16 0
BBX 16 15 0 0
BITMAP
0800
0700
01F0
0300
0000
0000
0000
1000
2000
2000
3000
1C00
07F8
0000
0000
ENDCHAR
STARTCHAR U+3054
ENCODING 12372
SWIDTH 500 0
DWIDTH 16 0
BBX 16 16 0 0
BITMAP
0002
0809
0704
01F0
0300
0000
0000
0000
1000
2000
2000
3000
1C00
07F8
0000
0000
ENDCHAR
STARTCHAR U+3055
ENCODING 12373
SWIDTH 500 0
DWIDTH 16 0
BBX 16 16 0 0
BITMAP
0C00
0660
03F0
3F00
1980
0080
0040
0060
07F0
1830
3000
3000
1C00
07C0
0000
0000
ENDCHAR
STARTCHAR U+3056
ENCODING 12374
SWIDTH 500 0
DWIDTH 16 0
BBX 16 16 0 0
BITMAP
0C02
0669
03C4
3F00
1980
0080
0040
0060
07F0
1830
3000
3000
1C00
07C0
0000
0000
ENDCHAR
STARTCHAR U+3057
ENCODING 12375
SWIDTH 500 0
DWIDTH 16 0
BBX 16 16 0 0
BITMAP
1800
0E00
0E00
0C00
0C00
0C00
0800
0800
0800
0800
0808
0810
0CE0
0780
0000
0000
ENDCHAR
STARTCHAR U+3058
ENCODING 12376
SWIDTH 500 0
DWIDTH 16 0
BBX 16 16 0 0
BITMAP
1800
0E00
0E10
0C48
0C20
0C00
0800
0800
0800
0800
0808
0810
0CE0
0780
0000
0000
ENDCHAR
STARTCHAR U+3059
ENCODING 12377
SWIDTH 500 0
DWIDTH 16 0
BBX 16 16 0 0
BITMAP
0300
01C0
018C
FFFE
6100
0F00
1180
1180
1980
0E80
0080
0180
0100
0200
0000
0000
ENDCHAR
STARTCHAR U+305a
ENCODING 12378
SWIDTH 500 0
DWIDTH 16 0
BBX 16 16 0 0
BITMAP
0302
01C9
0184
FFFE
6100
0F00
1180
1180
1980
0E80
0080
0180
0100
0200
0000
0000
ENDCHAR
STARTCHAR U+305b
ENCODING 12379
SWIDTH 500 0
DWIDTH 16 0
BBX 16 16 0 0
BITMAP
0060
3030
1820
1820
1024
1FFE
F020
5020
10E0
1040
1800
0800
0C30
03F8
0000
0000
ENDCHAR
STARTCHAR U+305c
ENCODING 12380
SWIDTH 500 0
DWIDTH 16 0
BBX 16 16 0 0
BITMAP
00C2
3069
1844
1840
1044
1FFE
F040
5040
11C0
1080
1800
0800
0C30
03F8
0000
0000
ENDCHAR
STARTCHAR U+305d
ENCODING 12381
SWIDTH 500 0
DWIDTH 16 0
BBX 16 15 0 0
BITMAP
01C0
1EE0
0980
0300
0408
0BFC
3CC0
6100
0200
0200
0300
01C0
00E0
0000
0000
ENDCHAR
STARTCHAR U+305e
ENCODING 12382
SWIDTH 500 0
DWIDTH 16 0
BBX 16 15 0 0
BITMAP
01C2
1EE9
0984
0300
0408
0BFC
3CC0
6100
0200
0200
0300
01C0
00E0
0000
0000
ENDCHAR
STARTCHAR U+305f
ENCODING 12383
SWIDTH 500 0
DWIDTH 16 0
BBX 16 16 0 0
BITMAP
1800
0C00
0880
0F80
F830
581C
1820
1000
1000
3000
3100
6100
6180
00FC
0000
0000
ENDCHAR
STARTCHAR U+3060
ENCODING 12384
SWIDTH 500 0
DWIDTH 16 0
BBX 16 16 0 0
BITMAP
1804
0C12
0888
0F80
F830
581C
1820
1000
1000
3000
3100
6100
6180
00FC
0000
0000
ENDCHAR
STARTCHAR U+3061
ENCODING 12385
SWIDTH 500 0
DWIDTH 16 0
BBX 16 16 0 0
BITMAP
0C00
0600
0480
07C0
7C00
2C00
0800
08F0
0B18
1C0C
180C
0018
0070
0380
0000
0000
ENDCHAR
STARTCHAR U+3062
ENCODING 12386
SWIDTH 500 0
DWIDTH 16 0
BBX 16 16 0 0
BITMAP
0C00
0604
0492
07C8
7C00
2C00
0800
08F0
0B18
1C0C
180C
0018
0070
0380
0000
0000
ENDCHAR
STARTCHAR U+3063
ENCODING 12387
SWIDTH 500 0
DWIDTH 16 0
BBX 16 8 0 0
BITMAP
07C0
7830
2018
0018
0018
0070
01C0
0000
ENDCHAR
STARTCHAR U+3064
ENCODING 12388
SWIDTH 500 0
DWIDTH 16 0
BBX 16 12 0 0
BITMAP
07E0
9E18
780C
000C
000C
000C
0018
0060
0180
0000
0000
0000
ENDCHAR
STARTCHAR U+3065
ENCODING 12389
SWIDTH 500 0
DWIDTH 16 0
BBX 16 16 0 0
BITMAP
0004
0012
0008
0000
07E0
9E18
780C
000C
000C
000C
0018
0060
0180
0000
0000
0000
ENDCHAR
STARTCHAR U+3066
ENCODING 12390
SWIDTH 500 0
DWIDTH 16 0
BBX 16 15 0 0
BITMAP
003E
7FF0
3040
0080
0100
0100
0200
0200
0200
0300
0100
00E0
0038
0000
0000
ENDCHAR
STARTCHAR U+3067
ENCODING 12391
SWIDTH 500 0
DWIDTH 16 0
BBX 16 15 0 0
BITMAP
003E
7FF0
3042
0089
0104
0100
0200
0200
0200
0300
0100
00E0
0038
0000
0000
ENDCHAR
STARTCHAR U+3068
ENCODING 12392
SWIDTH 500 0
DWIDTH 16 0
BBX 16 16 0 0
BITMAP
0400
0700
0200
0200
0220
02F0
0180
0600
0800
1000
3000
3000
1C00
07F0
0000
0000
ENDCHAR
STARTCHAR U+3069
ENCODING 12393
SWIDTH 500 0
DWIDTH 16 0
BBX 16 16 0 0
BITMAP
0404
0712
0208
0200
0220
02F0
0180
0600
0800
1000
3000
3000
1C00
07F0
0000
0000
ENDCHAR
STARTCHAR U+306a
ENCODING 12394
SWIDTH 500 0
DWIDTH 16 0
BBX 16 16 0 0
BITMAP
0600
0300
0200
FFC0
4408
083C
1044
3040
6040
C040
0040
0FF0
1898
0F08
0000
0000
ENDCHAR
STARTCHAR U+306b
ENCODING 12395
SWIDTH 500 0
DWIDTH 16 0
BBX 16 15 0 0
BITMAP
2000
30F0
2318
6020
4000
4000
4000
4000
4900
5200
7318
21FC
2000
0000
0000
ENDCHAR
STARTCHAR U+306c
ENCODING 12396
SWIDTH 500 0
DWIDTH 16 0
BBX 16 16 0 0
BITMAP
0600
0300
0200
23E0
2610
2A08
320C
340C
540C
580C
88E8
9538
6118
00EC
0000
0000
ENDCHAR
STARTCHAR U+306d
ENCODING 12397
SWIDTH 500 0
DWIDTH 16 0
BBX 16 16 0 0
BITMAP
3000
1800
1800
1000
F8F0
5318
140C
1804
1004
3004
50E8
D138
B118
10EC
0000
0000
ENDCHAR
STARTCHAR U+306e
ENCODING 12398
SWIDTH 500 0
DWIDTH 16 0
BBX 16 13 0 0
BITMAP
07C0
1A30
3218
2208
420C
460C
440C
4C08
6818
3070
0080
0000
0000
ENDCHAR
STARTCHAR U+306f
ENCODING 12399
SWIDTH 500 0
DWIDTH 16 0
BBX 16 15 0 0
BITMAP
6030
3018
3010
2010
23FE
6190
4010
4010
5018
51F8
721C
2236
21E2
0000
0000
ENDCHAR
STARTCHAR U+3070
ENCODING 12400
SWIDTH 500 0
DWIDTH 16 0
BBX 16 16 0 0
BITMAP
0002
6049
3064
3020
2020
23FC
61A0
4020
4020
5030
51F0
723C
2236
21E2
0000
0000
ENDCHAR
STARTCHAR U+3071
ENCODING 12401
SWIDTH 500 0
DWIDTH 16 0
BBX 16 16 0 0
BITMAP
0006
6049
3069
3026
2020
23FC
61A0
4020
4020
5030
51F0
723C
2236
21E2
0000
0000
ENDCHAR
STARTCHAR U+3072
ENCODING 12402
SWIDTH 500 0
DWIDTH 16 0
BBX 16 15 0 0
BITMAP
0030
1C30
EC30
0830
1038
1028
202C
2024
2020
2040
1040
1980
0F00
0000
0000
ENDCHAR
STARTCHAR U+3073
ENCODING 12403
SWIDTH 500 0
DWIDTH 16 0
BBX 16 16 0 0
BITMAP
0002
0029
1C24
EC20
0830
1030
1038
202C
2024
2020
2040
1040
1980
0F00
0000
0000
ENDCHAR
STARTCHAR U+3074
ENCODING 12404
SWIDTH 500 0
DWIDTH 16 0
BBX 16 16 0 0
BITMAP
0006
0029
1C29
EC26
0830
1030
1038
202C
2024
2020
2040
1040
1980
0F00
0000
0000
ENDCHAR
STARTCHAR U+3075
ENCODING 12405
SWIDTH 500 0
DWIDTH 16 0
BBX 16 15 0 0
BITMAP
0200
0180
00C0
00C0
0100
0100
0080
00C0
03FE
9CC3
70C3
63C4
0180
0000
0000
ENDCHAR
STARTCHAR U+3076
ENCODING 12406
SWIDTH 500 0
DWIDTH 16 0
BBX 16 15 0 0
BITMAP
0200
0182
00C9
00C4
0100
0100
0080
00C0
03FE
9CC3
70C3
63C4
0180
0000
0000
ENDCHAR
STARTCHAR U+3077
ENCODING 12407
SWIDTH 500 0
DWIDTH 16 0
BBX 16 15 0 0
BITMAP
0200
0186
00C9
00C9
0106
0100
0080
00C0
03FE
9CC3
70C3
63C4
0180
0000
0000
ENDCHAR
STARTCHAR U+3078
ENCODING 12408
SWIDTH 500 0
DWIDTH 16 0
BBX 16 13 0 0
BITMAP
0C00
1200
1100
1080
3040
2020
C018
000E
0003
0000
0000
0000
0000
ENDCHAR
STARTCHAR U+3079
ENCODING 12409
SWIDTH 500 0
DWIDTH 16 0
BBX 16 15 0 0
BITMAP
0010
0048
0C20
1200
1100
1080
3040
2020
C018
000E
0003
0000
0000
0000
0000
ENDCHAR
STARTCHAR U+307a
ENCODING 12410
SWIDTH 500 0
DWIDTH 16 0
BBX 16 14 0 0
BITMAP
0018
0C24
1224
1118
1080
3040
2020
C018
000E
0003
0000
0000
0000
0000
ENDCHAR
STARTCHAR U+307b
ENCODING 12411
SWIDTH 500 0
DWIDTH 16 0
BBX 16 15 0 0
BITMAP
6000
33FC
3020
2010
201C
63F0
4010
4010
5010
51F0
7230
2238
21EC
0000
0000
ENDCHAR
STARTCHAR U+307c
ENCODING 12412
SWIDTH 500 0
DWIDTH 16 0
BBX 16 15 0 0
BITMAP
6000
33FA
3041
2024
2022
63F8
4020
4020
5020
51E0
7270
2268
21CC
0000
0000
ENDCHAR
STARTCHAR U+307d
ENCODING 12413
SWIDTH 500 0
DWIDTH 16 0
BBX 16 16 0 0
BITMAP
0006
6009
33F9
3046
2020
2020
63F8
4020
4020
5020
51E0
7260
2278
21CC
0000
0000
ENDCHAR
STARTCHAR U+307e
ENCODING 12414
SWIDTH 500 0
DWIDTH 16 0
BBX 16 16 0 0
BITMAP
0300
0180
21B0
1FE0
0900
2170
1FE0
0900
0100
0180
0F80
11E0
31B8
1F18
0000
0000
ENDCHAR
STARTCHAR U+307f
ENCODING 12415
SWIDTH 500 0
DWIDTH 16 0
BBX 16 15 0 0
BITMAP
2180
1FC0
0D80
0110
0218
0218
0F90
3470
483C
5826
7060
2040
0080
0000
0000
ENDCHAR
STARTCHAR U+3080
ENCODING 12416
SWIDTH 500 0
DWIDTH 16 0
BBX 16 15 0 0
BITMAP
1800
0C00
0F80
7C08
2814
0812
3C16
4C10
4C08
3808
0818
0838
07F0
0000
0000
ENDCHAR
STARTCHAR U+3081
ENCODING 12417
SWIDTH 500 0
DWIDTH 16 0
BBX 16 15 0 0
BITMAP
0180
00C0
20C0
27E0
1898
3104
5906
4A06
8406
8E06
520C
6018
0060
0000
0000
ENDCHAR
STARTCHAR U+3082
ENCODING 12418
SWIDTH 500 0
DWIDTH 16 0
BBX 16 16 0 0
BITMAP
0300
0180
1100
0B00
0600
0A00
1600
1C00
0710
0588
0C08
0C18
0618
03F0
0000
0000
ENDCHAR
STARTCHAR U+3083
ENCODING 12419
SWIDTH 500 0
DWIDTH 16 0
BBX 16 14 0 0
BITMAP
0400
0400
1A00
21C0
2620
1810
F930
4CE0
0400
0600
0200
0200
0000
0000
ENDCHAR
STARTCHAR U+3084
ENCODING 12420
SWIDTH 500 0
DWIDTH 16 0
BBX 16 16 0 0
BITMAP
0100
0180
0E80
1070
118C
0A06
1E46
F43C
4200
0300
0100
0180
0080
0080
0000
0000
ENDCHAR
STARTCHAR U+3085
ENCODING 12421
SWIDTH 500 0
DWIDTH 16 0
BBX 16 13 0 0
BITMAP
0300
0480
4480
25C0
26A0
4C90
5590
7520
23C0
0100
0200
0000
0000
ENDCHAR
STARTCHAR U+3086
ENCODING 12422
SWIDTH 500 0
DWIDTH 16 0
BBX 16 16 0 0
BITMAP
0180
0240
4240
24F0
372C
2426
2C22
4A22
5266
714C
20F0
0040
00C0
0080
0000
0000
ENDCHAR
STARTCHAR U+3087
ENCODING 12423
SWIDTH 500 0
DWIDTH 16 0
BBX 16 12 0 0
BITMAP
0600
0300
0240
03E0
0200
0200
0200
1F80
26E0
1C60
0000
0000
ENDCHAR
STARTCHAR U+3088
ENCODING 12424
SWIDTH 500 0
DWIDTH 16 0
BBX 16 16 0 0
BITMAP
0300
0180
0100
0110
01F8
0100
0100
0100
0100
0100
1FC0
2170
2318
1E00
0000
0000
ENDCHAR
STARTCHAR U+3089
ENCODING 12425
SWIDTH 500 0
DWIDTH 16 0
BBX 16 16 0 0
BITMAP
0400
0600
0300
0F00
1000
1000
2000
2000
27C0
7830
6018
0018
0030
01C0
0000
0000
ENDCHAR
STARTCHAR U+308a
ENCODING 12426
SWIDTH 500 0
DWIDTH 16 0
BBX 16 16 0 0
BITMAP
1800
09C0
0A60
0C20
1830
1830
1830
0830
0030
0030
0020
0060
00C0
0100
0000
0000
ENDCHAR
STARTCHAR U+308b
ENCODING 12427
SWIDTH 500 0
DWIDTH 16 0
BBX 16 16 0 0
BITMAP
00C0
1FE0
0CC0
0180
0100
0200
05C0
0E30
1818
3008
2388
04D8
0470
03C0
0000
0000
ENDCHAR
STARTCHAR U+308c
ENCODING 12428
SWIDTH 500 0
DWIDTH 16 0
BBX 16 16 0 0
BITMAP
3000
1800
1800
1000
F8E0
5330
1410
1810
1010
3030
5020
D021
B036
101C
0000
0000
ENDCHAR
STARTCHAR U+308d
ENCODING 12429
SWIDTH 500 0
DWIDTH 16 0
BBX 16 16 0 0
BITMAP
00C0
1FE0
0CC0
0180
0100
0200
05E0
0E18
180C
3004
600C
0018
0070
0180
0000
0000
ENDCHAR
STARTCHAR U+308e
ENCODING 12430
SWIDTH 500 0
DWIDTH 16 0
BBX 16 13 0 0
BITMAP
3000
1800
1000
7800
19C0
1620
3810
3010
7030
5060
1080
0000
0000
ENDCHAR
STARTCHAR U+308f
ENCODING 12431
SWIDTH 500 0
DWIDTH 16 0
BBX 16 16 0 0
BITMAP
1800
0C00
0C00
0800
0E00
7CE0
2B18
0C0C
0804
1804
280C
6C08
5C30
0840
0000
0000
ENDCHAR
STARTCHAR U+3090
ENCODING 12432
SWIDTH 500 0
DWIDTH 16 0
BBX 16 16 0 0
BITMAP
00C0
1FE0
0CC0
0080
0180
0100
03E0
1E18
2404
4802
5872
708E
208C
0078
0000
0000
ENDCHAR
STARTCHAR U+3091
ENCODING 12433
SWIDTH 500 0
DWIDTH 16 0
BBX 16 16 0 0
BITMAP
0080
1FC0
0980
0300
07C0
0C60
1020
0720
0DC0
0780
0400
0C38
3ACC
611C
0000
0000
ENDCHAR
STARTCHAR U+3092
ENCODING 12434
SWIDTH 500 0
DWIDTH 16 0
BBX 16 16 0 0
BITMAP
0600
0340
3FE0
1200
0610
0418
0F30
19C0
21C0
0240
0440
0800
0C00
07F0
0000
0000
ENDCHAR
ENDFONT
